#VRML V2.0 utf8
# 3D model generated by easyeda2kicad.py (https://github.com/uPesy/easyeda2kicad.py)

Shape{
    appearance Appearance {
        material  Material 	{
            diffuseColor 0.25098039215686274 0.25098039215686274 0.25098039215686274
            specularColor 0.12549019607843137 0.12549019607843137 0.12549019607843137
            ambientIntensity 0.251
            transparency 0.0
            shininess 0.5
        }
    }
    geometry IndexedFaceSet {
        ccw TRUE
        solid FALSE
        coord DEF co Coordinate {
            point [
                -1.2432 -0.4921 0.0276, -1.2432 -0.0656 0.0276, -0.124 -0.0656 0.0276, -0.1048 -0.0428 0.0276, -0.1048 -0.0644 0.0276, 0.0008 -0.0644 0.0276, 0.0392 -0.0542 0.0276, 0.0392 -0.0326 0.0276, 0.0008 0.1324 0.0276, -0.0952 0.0244 0.0276, -0.0256 0.0244 0.0276, -0.0256 -0.0428 0.0276, -0.1 0.1108 0.0276, -0.1 0.1324 0.0276, -0.124 0.6526 0.0276, 0.1525 -0.0477 0.0276, 0.1673 -0.0321 0.0276, 0.2024 -0.0644 0.0276, -0.0952 0.046 0.0276, -0.0256 0.046 0.0276, -0.0256 0.1108 0.0276, 0.1752 0.0806 0.0276, 0.1637 0.099 0.0276, 0.2769 0.1324 0.0276, 0.2024 -0.0428 0.0276, 0.1047 0.111 0.0276, 0.1194 0.1057 0.0276, 0.0427 -0.0346 0.0276, 0.133 0.0966 0.0276, 0.1449 0.0835 0.0276, 0.1592 0.0319 0.0276, 0.1572 0.0106 0.0276, 0.1519 -0.0064 0.0276, 0.1081 -0.0432 0.0276, 0.0897 -0.0452 0.0276, 0.1224 -0.0379 0.0276, 0.1345 -0.0298 0.0276, 0.1437 -0.02 0.0276, 0.0636 -0.0423 0.0276, 1.1629 0.6311 0.0276, 1.1962 0.6056 0.0276, 0.3033 -0.0644 0.0276, 1.2217 0.5724 0.0276, 0.153 0.0683 0.0276, 0.1583 0.0472 0.0276, 0.1459 0.1161 0.0276, 0.3033 0.1324 0.0276, 1.0827 0.6526 0.0276, 1.1242 0.6472 0.0276, 0.1049 -0.0656 0.0276, 0.1176 -0.0643 0.0276, 0.1367 -0.0578 0.0276, 1.2377 0.5337 0.0276, 1.2432 0.4921 0.0276, 1.2432 -0.0656 0.0276, 0.1778 -0.0134 0.0276, 0.1837 0.0075 0.0276, 0.2769 -0.0428 0.0276, 0.1856 0.0303 0.0276, 0.1828 0.0583 0.0276, 0.1272 0.1268 0.0276, 0.1053 0.1332 0.0276, 0.0855 0.1348 0.0276, 0.062 0.1332 0.0276, 0.0392 0.127 0.0276, 0.0392 0.1006 0.0276, 0.0614 0.1101 0.0276, 0.0853 0.1132 0.0276, -0.1968 -0.0644 0.0276, -0.1433 -0.0644 0.0276, -0.1433 0.1324 0.0276, -0.1988 0.1324 0.0276, -0.2272 0.1294 0.0276, -0.3161 -0.0644 0.0276, -0.2919 -0.0105 0.0276, -0.2806 -0.0281 0.0276, -0.2503 0.1213 0.0276, -0.2717 0.1069 0.0276, -0.3905 0.1324 0.0276, -0.2719 0.1067 0.0276, -0.2858 0.0913 0.0276, -0.295 0.0744 0.0276, -0.4649 -0.0644 0.0276, -0.4937 -0.0644 0.0276, -0.4169 0.1324 0.0276, -1.2432 0.4921 0.0276, -1.2377 0.5337 0.0276, -0.2644 -0.0436 0.0276, -0.2438 -0.0556 0.0276, -0.2211 -0.0623 0.0276, -0.3003 0.055 0.0276, -0.3017 0.0365 0.0276, -0.2989 0.0101 0.0276, -1.2217 0.5724 0.0276, -1.1962 0.6056 0.0276, -1.1629 0.6311 0.0276, -1.0827 0.6526 0.0276, -1.1242 0.6472 0.0276, -0.3449 -0.0644 0.0276, -0.3637 -0.0092 0.0276, -0.445 -0.0092 0.0276, -1.1629 -0.6311 0.0276, -1.1962 -0.6056 0.0276, -1.1242 -0.6472 0.0276, -1.2217 -0.5724 0.0276, -1.0827 -0.6526 0.0276, 0.0602 -0.0629 0.0276, 0.0801 -0.0656 0.0276, -0.124 -0.6526 0.0276, -1.2377 -0.5337 0.0276, 0.088 -0.0668 0.0276, 0.0934 -0.0668 0.0276, 1.2432 -0.4921 0.0276, 1.1629 -0.6311 0.0276, 1.1242 -0.6472 0.0276, 1.0827 -0.6526 0.0276, 1.1962 -0.6056 0.0276, 1.2377 -0.5337 0.0276, 1.2217 -0.5724 0.0276, 0.5906 0.659 0.315, 1.0827 0.689 0.185, -0.5906 0.659 0.315, -1.0827 0.689 0.185, -0.5906 0.6353 0.4173, -1.0827 0.5849 0.6358, 0.5906 0.6353 0.4173, 1.0827 0.5849 0.6358, -1.0827 -0.5849 0.6358, 0.7677 -0.6353 0.4173, 1.0827 -0.5849 0.6358, 1.0433 -0.6353 0.4173, 1.0827 -0.689 0.185, 1.0433 -0.659 0.315, 0.7677 -0.659 0.315, -0.7677 -0.659 0.315, -1.0433 -0.659 0.315, -1.0827 -0.689 0.185, -1.0433 -0.6353 0.4173, -0.7677 -0.6353 0.4173, -0.1378 -0.659 0.315, 0.1378 -0.659 0.315, 0.1378 -0.6353 0.4173, -0.1378 -0.6353 0.4173, 1.2795 -0.4921 0.185, 1.2728 -0.5431 0.185, 1.2532 -0.5906 0.185, 1.2219 -0.6313 0.185, 1.1811 -0.6626 0.185, 1.1336 -0.6823 0.185, -1.1336 -0.6823 0.185, -1.1811 -0.6626 0.185, -1.2219 -0.6313 0.185, -1.2532 -0.5906 0.185, -1.2728 -0.5431 0.185, -1.2795 -0.4921 0.185, -1.2795 0.4921 0.185, -1.2728 0.5431 0.185, -1.2532 0.5906 0.185, -1.2219 0.6313 0.185, -1.1811 0.6626 0.185, -1.1336 0.6823 0.185, 1.1336 0.6823 0.185, 1.1811 0.6626 0.185, 1.2219 0.6313 0.185, 1.2532 0.5906 0.185, 1.2728 0.5431 0.185, 1.2795 0.4921 0.185, 1.1067 -0.5817 0.6358, 1.1291 -0.5725 0.6358, 1.1483 -0.5577 0.6358, 1.163 -0.5385 0.6358, 1.1723 -0.5161 0.6358, 1.1755 -0.4921 0.6358, 1.1755 0.4921 0.6358, 1.1723 0.5161 0.6358, 1.163 0.5385 0.6358, 1.1483 0.5577 0.6358, 1.1291 0.5725 0.6358, 1.1067 0.5817 0.6358, -1.1067 0.5817 0.6358, -1.1291 0.5725 0.6358, -1.1483 0.5577 0.6358, -1.163 0.5385 0.6358, -1.1723 0.5161 0.6358, -1.1755 0.4921 0.6358, -1.1755 -0.4921 0.6358, -1.1723 -0.5161 0.6358, -1.163 -0.5385 0.6358, -1.1483 -0.5577 0.6358, -1.1291 -0.5725 0.6358, -1.1067 -0.5817 0.6358, -0.8261 -0.3584 0.6969, -0.8398 -0.3764 0.6969, 1.0827 -0.5082 0.6969, 1.0982 -0.4963 0.6969, 1.0987 -0.4921 0.6969, -0.9763 -0.3584 0.6969, -0.985 -0.3375 0.6969, -1.0987 -0.4921 0.6969, -0.8174 -0.3375 0.6969, -0.8144 -0.3151 0.6969, 1.0868 -0.5076 0.6969, 1.0907 -0.506 0.6969, 1.094 -0.5035 0.6969, 1.0966 -0.5002 0.6969, -0.9012 -0.4018 0.6969, -1.0827 -0.5082 0.6969, -0.8787 -0.3989 0.6969, -0.8578 -0.3902 0.6969, -0.9879 -0.3151 0.6969, -0.985 -0.2926 0.6969, -1.0987 0.4921 0.6969, -0.9763 -0.2717 0.6969, -0.9625 -0.2537 0.6969, 1.0982 0.4963 0.6969, 1.0966 0.5002 0.6969, -0.8174 -0.2926 0.6969, 1.0987 0.4921 0.6969, -1.0907 0.506 0.6969, -1.094 0.5035 0.6969, -0.9012 -0.2283 0.6969, -0.8578 -0.2399 0.6969, -0.8398 -0.2537 0.6969, 1.0827 0.5082 0.6969, -0.8261 -0.2717 0.6969, 1.0868 0.5076 0.6969, -0.8787 -0.2313 0.6969, -1.0827 0.5082 0.6969, -1.0868 0.5076 0.6969, 1.094 0.5035 0.6969, 1.0907 0.506 0.6969, -0.9236 -0.3989 0.6969, -0.9446 -0.3902 0.6969, -1.0868 -0.5076 0.6969, -0.9625 -0.3764 0.6969, -1.0982 -0.4963 0.6969, -1.0966 -0.5002 0.6969, -0.9446 -0.2399 0.6969, -0.9236 -0.2313 0.6969, -1.0982 0.4963 0.6969, -1.0966 0.5002 0.6969, -1.094 -0.5035 0.6969, -1.0907 -0.506 0.6969, -1.0827 0.5791 0.6524, 1.0827 0.5791 0.6524, -1.0827 0.5697 0.6673, 1.0827 0.5697 0.6673, -1.0827 0.5572 0.6797, 1.0827 0.5572 0.6797, -1.0827 0.5423 0.6891, 1.0827 0.5423 0.6891, -1.0827 0.5257 0.6949, 1.0827 0.5257 0.6949, -1.1162 0.4921 0.6949, -1.1151 0.5008 0.6949, -1.1328 0.4921 0.6891, -1.1311 0.5051 0.6891, -1.1478 0.4921 0.6797, -1.1455 0.509 0.6797, -1.1602 0.4921 0.6673, -1.1576 0.5122 0.6673, -1.1696 0.4921 0.6524, -1.1666 0.5146 0.6524, -1.1117 0.5089 0.6949, -1.1261 0.5172 0.6891, -1.139 0.5247 0.6797, -1.1498 0.5309 0.6673, -1.158 0.5356 0.6524, -1.1064 0.5158 0.6949, -1.1181 0.5276 0.6891, -1.1287 0.5381 0.6797, -1.1375 0.547 0.6673, -1.1441 0.5536 0.6524, -1.0995 0.5212 0.6949, -1.1078 0.5356 0.6891, -1.1152 0.5485 0.6797, -1.1214 0.5593 0.6673, -1.1261 0.5674 0.6524, -1.0914 0.5245 0.6949, -1.0957 0.5406 0.6891, -1.0995 0.555 0.6797, -1.1027 0.567 0.6673, -1.1052 0.5761 0.6524, 1.0914 0.5245 0.6949, 1.0957 0.5406 0.6891, 1.0995 0.555 0.6797, 1.1027 0.567 0.6673, 1.1052 0.5761 0.6524, 1.0995 0.5212 0.6949, 1.1078 0.5356 0.6891, 1.1152 0.5485 0.6797, 1.1214 0.5593 0.6673, 1.1261 0.5674 0.6524, 1.1064 0.5158 0.6949, 1.1181 0.5276 0.6891, 1.1287 0.5381 0.6797, 1.1375 0.547 0.6673, 1.1441 0.5536 0.6524, 1.1117 0.5089 0.6949, 1.1261 0.5172 0.6891, 1.139 0.5247 0.6797, 1.1498 0.5309 0.6673, 1.158 0.5356 0.6524, 1.1151 0.5008 0.6949, 1.1311 0.5051 0.6891, 1.1455 0.509 0.6797, 1.1576 0.5122 0.6673, 1.1666 0.5146 0.6524, 1.1162 0.4921 0.6949, 1.1328 0.4921 0.6891, 1.1478 0.4921 0.6797, 1.1602 0.4921 0.6673, 1.1696 0.4921 0.6524, -1.1696 -0.4921 0.6524, -1.1602 -0.4921 0.6673, -1.1478 -0.4921 0.6797, -1.1328 -0.4921 0.6891, -1.1162 -0.4921 0.6949, 1.1696 -0.4921 0.6524, 1.1602 -0.4921 0.6673, 1.1478 -0.4921 0.6797, 1.1328 -0.4921 0.6891, 1.1162 -0.4921 0.6949, -1.0827 -0.5257 0.6949, -1.0914 -0.5245 0.6949, -1.0827 -0.5423 0.6891, -1.0957 -0.5406 0.6891, -1.0827 -0.5572 0.6797, -1.0995 -0.555 0.6797, -1.0827 -0.5697 0.6673, -1.1027 -0.567 0.6673, -1.0827 -0.5791 0.6524, -1.1052 -0.5761 0.6524, -1.0995 -0.5212 0.6949, -1.1078 -0.5356 0.6891, -1.1152 -0.5485 0.6797, -1.1214 -0.5593 0.6673, -1.1261 -0.5674 0.6524, -1.1064 -0.5158 0.6949, -1.1181 -0.5276 0.6891, -1.1287 -0.5381 0.6797, -1.1375 -0.547 0.6673, -1.1441 -0.5536 0.6524, -1.1117 -0.5089 0.6949, -1.1261 -0.5172 0.6891, -1.139 -0.5247 0.6797, -1.1498 -0.5309 0.6673, -1.158 -0.5356 0.6524, -1.1151 -0.5008 0.6949, -1.1311 -0.5051 0.6891, -1.1455 -0.509 0.6797, -1.1576 -0.5122 0.6673, -1.1666 -0.5146 0.6524, 1.1151 -0.5008 0.6949, 1.1311 -0.5051 0.6891, 1.1455 -0.509 0.6797, 1.1576 -0.5122 0.6673, 1.1666 -0.5146 0.6524, 1.1117 -0.5089 0.6949, 1.1261 -0.5172 0.6891, 1.139 -0.5247 0.6797, 1.1498 -0.5309 0.6673, 1.158 -0.5356 0.6524, 1.1064 -0.5158 0.6949, 1.1181 -0.5276 0.6891, 1.1287 -0.5381 0.6797, 1.1375 -0.547 0.6673, 1.1441 -0.5536 0.6524, 1.0995 -0.5212 0.6949, 1.1078 -0.5356 0.6891, 1.1152 -0.5485 0.6797, 1.1214 -0.5593 0.6673, 1.1261 -0.5674 0.6524, 1.0914 -0.5245 0.6949, 1.0957 -0.5406 0.6891, 1.0995 -0.555 0.6797, 1.1027 -0.567 0.6673, 1.1052 -0.5761 0.6524, 1.0827 -0.5257 0.6949, 1.0827 -0.5423 0.6891, 1.0827 -0.5572 0.6797, 1.0827 -0.5697 0.6673, 1.0827 -0.5791 0.6524
            ]
        }
        coordIndex [
            0,1,2,-1,3,4,2,-1,2,4,5,-1,6,5,7,-1,7,5,8,-1,9,10,11,-1,12,2,13,-1,13,2,14,-1,13,14,8,-1,15,16,17,-1,11,3,9,-1,9,3,2,-1,9,2,18,-1,18,2,12,-1,18,12,19,-1,19,12,20,-1,21,22,23,-1,17,16,24,-1,25,26,27,-1,27,26,28,-1,27,28,29,-1,30,31,27,-1,27,31,32,-1,33,34,35,-1,35,34,36,-1,32,37,27,-1,27,37,36,-1,27,36,38,-1,38,36,34,-1,39,40,41,-1,41,40,42,-1,29,43,27,-1,27,43,44,-1,27,44,30,-1,22,45,23,-1,23,45,14,-1,23,14,46,-1,46,14,47,-1,46,47,41,-1,41,47,48,-1,41,48,39,-1,49,50,17,-1,17,50,51,-1,17,51,15,-1,42,52,41,-1,41,52,53,-1,41,53,54,-1,16,55,24,-1,24,55,56,-1,24,56,57,-1,57,56,58,-1,57,58,23,-1,23,58,59,-1,23,59,21,-1,45,60,14,-1,14,60,61,-1,14,61,62,-1,62,63,14,-1,14,63,64,-1,14,64,8,-1,8,64,65,-1,8,65,7,-1,7,65,66,-1,7,66,27,-1,27,66,67,-1,27,67,25,-1,68,69,2,-1,2,69,70,-1,2,70,14,-1,14,70,71,-1,14,71,72,-1,73,74,75,-1,76,77,78,-1,77,79,78,-1,78,79,80,-1,78,80,81,-1,82,2,83,-1,83,2,1,-1,83,1,84,-1,84,1,85,-1,84,85,86,-1,75,87,73,-1,73,87,88,-1,73,88,89,-1,81,90,78,-1,78,90,91,-1,78,91,73,-1,73,91,92,-1,73,92,74,-1,86,93,84,-1,84,93,94,-1,84,94,95,-1,72,76,14,-1,14,76,78,-1,14,78,96,-1,96,78,84,-1,96,84,97,-1,97,84,95,-1,89,68,73,-1,73,68,2,-1,73,2,98,-1,98,2,82,-1,98,82,99,-1,99,82,100,-1,101,102,103,-1,103,102,104,-1,103,104,105,-1,6,106,5,-1,5,106,107,-1,5,107,2,-1,2,107,108,-1,2,108,0,-1,0,108,105,-1,0,105,109,-1,109,105,104,-1,107,110,108,-1,108,110,111,-1,108,111,49,-1,17,41,49,-1,49,41,54,-1,49,54,108,-1,108,54,112,-1,113,114,112,-1,112,114,115,-1,112,115,108,-1,113,112,116,-1,116,112,117,-1,116,117,118,-1,119,120,121,-1,121,120,122,-1,121,122,123,-1,123,122,124,-1,123,124,125,-1,125,124,126,-1,125,126,119,-1,119,126,120,-1,127,128,129,-1,129,128,130,-1,129,130,131,-1,131,130,132,-1,131,132,133,-1,134,135,136,-1,136,135,137,-1,136,137,127,-1,127,137,138,-1,139,131,140,-1,140,131,133,-1,140,133,141,-1,133,128,141,-1,141,128,127,-1,141,127,142,-1,142,127,138,-1,142,138,139,-1,139,138,134,-1,139,134,131,-1,131,134,136,-1,112,143,144,-1,112,144,117,-1,117,144,145,-1,117,145,118,-1,118,145,146,-1,118,146,116,-1,116,146,147,-1,116,147,113,-1,113,147,148,-1,113,148,114,-1,114,148,131,-1,114,131,115,-1,115,131,108,-1,108,131,136,-1,108,136,105,-1,105,136,149,-1,105,149,103,-1,103,149,150,-1,103,150,101,-1,101,150,151,-1,101,151,102,-1,102,151,152,-1,102,152,104,-1,104,152,153,-1,104,153,109,-1,109,153,154,-1,109,154,0,-1,155,85,154,-1,154,85,1,-1,154,1,0,-1,85,155,156,-1,85,156,86,-1,86,156,157,-1,86,157,93,-1,93,157,158,-1,93,158,94,-1,94,158,159,-1,94,159,95,-1,95,159,160,-1,95,160,97,-1,97,160,122,-1,97,122,96,-1,96,122,14,-1,14,122,120,-1,14,120,47,-1,47,120,161,-1,47,161,48,-1,48,161,162,-1,48,162,39,-1,39,162,163,-1,39,163,40,-1,40,163,164,-1,40,164,42,-1,42,164,165,-1,42,165,52,-1,52,165,166,-1,52,166,53,-1,53,166,54,-1,54,166,143,-1,54,143,112,-1,129,131,148,-1,129,148,167,-1,167,148,147,-1,167,147,168,-1,168,147,146,-1,168,146,169,-1,169,146,145,-1,169,145,170,-1,170,145,144,-1,170,144,171,-1,171,144,143,-1,171,143,172,-1,172,143,173,-1,173,143,166,-1,173,166,165,-1,173,165,174,-1,174,165,164,-1,174,164,175,-1,175,164,163,-1,175,163,176,-1,176,163,162,-1,176,162,177,-1,177,162,161,-1,177,161,178,-1,178,161,120,-1,178,120,126,-1,124,122,160,-1,124,160,179,-1,179,160,159,-1,179,159,180,-1,180,159,158,-1,180,158,181,-1,181,158,157,-1,181,157,182,-1,182,157,156,-1,182,156,183,-1,183,156,155,-1,183,155,184,-1,184,155,185,-1,185,155,154,-1,185,154,153,-1,185,153,186,-1,186,153,152,-1,186,152,187,-1,187,152,151,-1,187,151,188,-1,188,151,150,-1,188,150,189,-1,189,150,149,-1,189,149,190,-1,190,149,136,-1,190,136,127,-1,191,192,193,-1,194,195,193,-1,196,197,198,-1,191,193,199,-1,199,193,195,-1,199,195,200,-1,193,201,202,-1,202,203,193,-1,193,203,204,-1,193,204,194,-1,205,206,207,-1,207,206,193,-1,207,193,208,-1,208,193,192,-1,197,209,198,-1,198,209,210,-1,198,210,211,-1,211,210,212,-1,211,212,213,-1,214,215,216,-1,200,195,216,-1,216,195,217,-1,216,217,214,-1,218,219,220,-1,221,222,223,-1,223,222,224,-1,223,224,225,-1,225,224,216,-1,221,223,226,-1,226,223,227,-1,226,227,220,-1,220,227,228,-1,220,228,218,-1,215,229,216,-1,216,229,230,-1,216,230,225,-1,205,231,206,-1,206,231,232,-1,206,232,233,-1,233,232,234,-1,196,198,234,-1,234,198,235,-1,234,235,236,-1,213,237,211,-1,211,237,238,-1,211,238,239,-1,239,238,220,-1,239,220,240,-1,240,220,219,-1,236,241,234,-1,234,241,242,-1,234,242,233,-1,126,124,243,-1,126,243,244,-1,244,243,245,-1,244,245,246,-1,246,245,247,-1,246,247,248,-1,248,247,249,-1,248,249,250,-1,250,249,251,-1,250,251,252,-1,252,251,227,-1,252,227,223,-1,211,239,253,-1,253,239,254,-1,253,254,255,-1,255,254,256,-1,255,256,257,-1,257,256,258,-1,257,258,259,-1,259,258,260,-1,259,260,261,-1,261,260,262,-1,261,262,184,-1,184,262,183,-1,239,240,254,-1,254,240,263,-1,254,263,256,-1,256,263,264,-1,256,264,258,-1,258,264,265,-1,258,265,260,-1,260,265,266,-1,260,266,262,-1,262,266,267,-1,262,267,183,-1,183,267,182,-1,240,219,263,-1,263,219,268,-1,263,268,264,-1,264,268,269,-1,264,269,265,-1,265,269,270,-1,265,270,266,-1,266,270,271,-1,266,271,267,-1,267,271,272,-1,267,272,182,-1,182,272,181,-1,219,218,268,-1,268,218,273,-1,268,273,269,-1,269,273,274,-1,269,274,270,-1,270,274,275,-1,270,275,271,-1,271,275,276,-1,271,276,272,-1,272,276,277,-1,272,277,181,-1,181,277,180,-1,218,228,273,-1,273,228,278,-1,273,278,274,-1,274,278,279,-1,274,279,275,-1,275,279,280,-1,275,280,276,-1,276,280,281,-1,276,281,277,-1,277,281,282,-1,277,282,180,-1,180,282,179,-1,228,227,278,-1,278,227,251,-1,278,251,279,-1,279,251,249,-1,279,249,280,-1,280,249,247,-1,280,247,281,-1,281,247,245,-1,281,245,282,-1,282,245,243,-1,282,243,179,-1,179,243,124,-1,223,225,252,-1,252,225,283,-1,252,283,250,-1,250,283,284,-1,250,284,248,-1,248,284,285,-1,248,285,246,-1,246,285,286,-1,246,286,244,-1,244,286,287,-1,244,287,126,-1,126,287,178,-1,225,230,283,-1,283,230,288,-1,283,288,284,-1,284,288,289,-1,284,289,285,-1,285,289,290,-1,285,290,286,-1,286,290,291,-1,286,291,287,-1,287,291,292,-1,287,292,178,-1,178,292,177,-1,230,229,288,-1,288,229,293,-1,288,293,289,-1,289,293,294,-1,289,294,290,-1,290,294,295,-1,290,295,291,-1,291,295,296,-1,291,296,292,-1,292,296,297,-1,292,297,177,-1,177,297,176,-1,229,215,293,-1,293,215,298,-1,293,298,294,-1,294,298,299,-1,294,299,295,-1,295,299,300,-1,295,300,296,-1,296,300,301,-1,296,301,297,-1,297,301,302,-1,297,302,176,-1,176,302,175,-1,215,214,298,-1,298,214,303,-1,298,303,299,-1,299,303,304,-1,299,304,300,-1,300,304,305,-1,300,305,301,-1,301,305,306,-1,301,306,302,-1,302,306,307,-1,302,307,175,-1,175,307,174,-1,214,217,303,-1,303,217,308,-1,303,308,304,-1,304,308,309,-1,304,309,305,-1,305,309,310,-1,305,310,306,-1,306,310,311,-1,306,311,307,-1,307,311,312,-1,307,312,174,-1,174,312,173,-1,184,185,313,-1,184,313,261,-1,261,313,314,-1,261,314,259,-1,259,314,315,-1,259,315,257,-1,257,315,316,-1,257,316,255,-1,255,316,317,-1,255,317,253,-1,253,317,198,-1,253,198,211,-1,172,173,312,-1,172,312,318,-1,318,312,311,-1,318,311,319,-1,319,311,310,-1,319,310,320,-1,320,310,309,-1,320,309,321,-1,321,309,308,-1,321,308,322,-1,322,308,217,-1,322,217,195,-1,206,233,323,-1,323,233,324,-1,323,324,325,-1,325,324,326,-1,325,326,327,-1,327,326,328,-1,327,328,329,-1,329,328,330,-1,329,330,331,-1,331,330,332,-1,331,332,127,-1,127,332,190,-1,233,242,324,-1,324,242,333,-1,324,333,326,-1,326,333,334,-1,326,334,328,-1,328,334,335,-1,328,335,330,-1,330,335,336,-1,330,336,332,-1,332,336,337,-1,332,337,190,-1,190,337,189,-1,242,241,333,-1,333,241,338,-1,333,338,334,-1,334,338,339,-1,334,339,335,-1,335,339,340,-1,335,340,336,-1,336,340,341,-1,336,341,337,-1,337,341,342,-1,337,342,189,-1,189,342,188,-1,241,236,338,-1,338,236,343,-1,338,343,339,-1,339,343,344,-1,339,344,340,-1,340,344,345,-1,340,345,341,-1,341,345,346,-1,341,346,342,-1,342,346,347,-1,342,347,188,-1,188,347,187,-1,236,235,343,-1,343,235,348,-1,343,348,344,-1,344,348,349,-1,344,349,345,-1,345,349,350,-1,345,350,346,-1,346,350,351,-1,346,351,347,-1,347,351,352,-1,347,352,187,-1,187,352,186,-1,235,198,348,-1,348,198,317,-1,348,317,349,-1,349,317,316,-1,349,316,350,-1,350,316,315,-1,350,315,351,-1,351,315,314,-1,351,314,352,-1,352,314,313,-1,352,313,186,-1,186,313,185,-1,195,194,322,-1,322,194,353,-1,322,353,321,-1,321,353,354,-1,321,354,320,-1,320,354,355,-1,320,355,319,-1,319,355,356,-1,319,356,318,-1,318,356,357,-1,318,357,172,-1,172,357,171,-1,194,204,353,-1,353,204,358,-1,353,358,354,-1,354,358,359,-1,354,359,355,-1,355,359,360,-1,355,360,356,-1,356,360,361,-1,356,361,357,-1,357,361,362,-1,357,362,171,-1,171,362,170,-1,204,203,358,-1,358,203,363,-1,358,363,359,-1,359,363,364,-1,359,364,360,-1,360,364,365,-1,360,365,361,-1,361,365,366,-1,361,366,362,-1,362,366,367,-1,362,367,170,-1,170,367,169,-1,203,202,363,-1,363,202,368,-1,363,368,364,-1,364,368,369,-1,364,369,365,-1,365,369,370,-1,365,370,366,-1,366,370,371,-1,366,371,367,-1,367,371,372,-1,367,372,169,-1,169,372,168,-1,202,201,368,-1,368,201,373,-1,368,373,369,-1,369,373,374,-1,369,374,370,-1,370,374,375,-1,370,375,371,-1,371,375,376,-1,371,376,372,-1,372,376,377,-1,372,377,168,-1,168,377,167,-1,201,193,373,-1,373,193,378,-1,373,378,374,-1,374,378,379,-1,374,379,375,-1,375,379,380,-1,375,380,376,-1,376,380,381,-1,376,381,377,-1,377,381,382,-1,377,382,167,-1,167,382,129,-1,127,129,382,-1,127,382,331,-1,331,382,381,-1,331,381,329,-1,329,381,380,-1,329,380,327,-1,327,380,379,-1,327,379,325,-1,325,379,378,-1,325,378,323,-1,323,378,193,-1,323,193,206,-1,
        ]
    }
}
Shape{
    appearance Appearance {
        material  Material 	{
            diffuseColor 1.0 1.0 1.0
            specularColor 0.5019607843137255 0.5019607843137255 0.5019607843137255
            ambientIntensity 1.0
            transparency 0.0
            shininess 0.5
        }
    }
    geometry IndexedFaceSet {
        ccw TRUE
        solid FALSE
        coord DEF co Coordinate {
            point [
                0.1378 -0.8794 0.315, -0.1378 -0.8794 0.315, 0.1378 -0.659 0.315, -0.1378 -0.659 0.315, -0.1378 -0.6353 0.4173, -0.1378 -0.8794 0.4173, 0.1378 -0.6353 0.4173, 0.1378 -0.8794 0.4173, 0.1378 -1.378 0.1024, 0.1378 -1.378 0.0, 0.1378 -1.0795 0.1024, 0.1378 -1.0767 0.0, 0.1378 -1.0529 0.0029, 0.1378 -1.0305 0.0115, 0.1378 -1.0109 0.0253, 0.1378 -0.8842 0.3144, 0.1378 -0.9089 0.4137, 0.1378 -0.8886 0.3127, 0.1378 -0.9367 0.403, 0.1378 -0.8926 0.3099, 0.1378 -0.9611 0.386, 0.1378 -0.8957 0.3063, 0.1378 -0.9806 0.3635, 0.1378 -0.8979 0.302, 0.1378 -0.9941 0.337, 0.1378 -0.9843 0.0648, 0.1378 -0.9951 0.0434, -0.1378 -0.9951 0.0434, -0.1378 -1.0109 0.0253, -0.1378 -1.0795 0.1024, -0.1378 -1.0305 0.0115, -0.1378 -1.378 0.0, -0.1378 -1.378 0.1024, -0.1378 -1.0767 0.0, -0.1378 -1.0529 0.0029, -0.1378 -0.9089 0.4137, -0.1378 -0.8842 0.3144, -0.1378 -0.9367 0.403, -0.1378 -0.8886 0.3127, -0.1378 -0.9611 0.386, -0.1378 -0.8926 0.3099, -0.1378 -0.9806 0.3635, -0.1378 -0.8957 0.3063, -0.1378 -0.9941 0.337, -0.1378 -0.8979 0.302, -0.1378 -0.9843 0.0648, 1.0433 -0.8794 0.315, 0.7677 -0.8794 0.315, 1.0433 -0.659 0.315, 0.7677 -0.659 0.315, 0.7677 -0.6353 0.4173, 0.7677 -0.8794 0.4173, 1.0433 -0.6353 0.4173, 1.0433 -0.8794 0.4173, 1.0433 -1.378 0.1024, 1.0433 -1.378 0.0, 1.0433 -1.0795 0.1024, 1.0433 -1.0767 0.0, 1.0433 -1.0529 0.0029, 1.0433 -1.0305 0.0115, 1.0433 -1.0109 0.0253, 1.0433 -0.8842 0.3144, 1.0433 -0.9089 0.4137, 1.0433 -0.8886 0.3127, 1.0433 -0.9367 0.403, 1.0433 -0.8926 0.3099, 1.0433 -0.9611 0.386, 1.0433 -0.8957 0.3063, 1.0433 -0.9806 0.3635, 1.0433 -0.8979 0.302, 1.0433 -0.9941 0.337, 1.0433 -0.9843 0.0648, 1.0433 -0.9951 0.0434, 0.7677 -1.378 0.1024, 0.7677 -1.0795 0.1024, 0.7677 -1.378 0.0, 0.7677 -1.0767 0.0, 0.7677 -1.0529 0.0029, 0.7677 -1.0305 0.0115, 0.7677 -1.0109 0.0253, 0.7677 -0.9951 0.0434, 0.7677 -0.9843 0.0648, 0.7677 -0.8979 0.302, 0.7677 -0.8957 0.3063, 0.7677 -0.8926 0.3099, 0.7677 -0.8886 0.3127, 0.7677 -0.8842 0.3144, 0.7677 -0.9089 0.4137, 0.7677 -0.9367 0.403, 0.7677 -0.9611 0.386, 0.7677 -0.9806 0.3635, 0.7677 -0.9941 0.337, -0.7677 -0.8794 0.315, -1.0433 -0.8794 0.315, -0.7677 -0.659 0.315, -1.0433 -0.659 0.315, -0.7677 -0.8794 0.4173, -0.7677 -0.6353 0.4173, -1.0433 -0.8794 0.4173, -1.0433 -0.6353 0.4173, -1.0433 -0.9951 0.0434, -1.0433 -1.0109 0.0253, -1.0433 -1.0795 0.1024, -1.0433 -1.0305 0.0115, -1.0433 -1.378 0.0, -1.0433 -1.378 0.1024, -1.0433 -1.0767 0.0, -1.0433 -1.0529 0.0029, -1.0433 -0.9089 0.4137, -1.0433 -0.8842 0.3144, -1.0433 -0.9367 0.403, -1.0433 -0.8886 0.3127, -1.0433 -0.9611 0.386, -1.0433 -0.8926 0.3099, -1.0433 -0.9806 0.3635, -1.0433 -0.8957 0.3063, -1.0433 -0.9941 0.337, -1.0433 -0.8979 0.302, -1.0433 -0.9843 0.0648, -0.7677 -1.0795 0.1024, -0.7677 -1.378 0.1024, -0.7677 -1.378 0.0, -0.7677 -1.0767 0.0, -0.7677 -0.9843 0.0648, -0.7677 -0.9951 0.0434, -0.7677 -1.0109 0.0253, -0.7677 -1.0305 0.0115, -0.7677 -1.0529 0.0029, -0.7677 -0.8979 0.302, -0.7677 -0.8842 0.3144, -0.7677 -0.8886 0.3127, -0.7677 -0.8926 0.3099, -0.7677 -0.8957 0.3063, -0.7677 -0.9089 0.4137, -0.7677 -0.9367 0.403, -0.7677 -0.9611 0.386, -0.7677 -0.9806 0.3635, -0.7677 -0.9941 0.337, 0.5906 0.8794 0.315, -0.5906 0.8794 0.315, 0.5906 0.8842 0.3144, -0.5906 0.8842 0.3144, 0.5906 0.8886 0.3127, -0.5906 0.8886 0.3127, 0.5906 0.8926 0.3099, -0.5906 0.8926 0.3099, 0.5906 0.8957 0.3063, -0.5906 0.8957 0.3063, 0.5906 0.8979 0.302, -0.5906 0.8979 0.302, 0.5906 0.9843 0.0648, -0.5906 0.9843 0.0648, -0.5906 0.9951 0.0434, 0.5906 0.9951 0.0434, -0.5906 1.0109 0.0253, 0.5906 1.0109 0.0253, -0.5906 1.0305 0.0115, 0.5906 1.0305 0.0115, -0.5906 1.0529 0.0029, 0.5906 1.0529 0.0029, -0.5906 1.0767 0.0, 0.5906 1.0767 0.0, 0.5906 1.378 0.0, -0.5906 1.378 0.0, 0.5906 1.378 0.1024, -0.5906 1.378 0.1024, 0.5906 1.0795 0.1024, -0.5906 1.0795 0.1024, 0.5906 0.9941 0.337, -0.5906 0.9941 0.337, -0.5906 0.9806 0.3635, 0.5906 0.9806 0.3635, -0.5906 0.9611 0.386, 0.5906 0.9611 0.386, -0.5906 0.9367 0.403, 0.5906 0.9367 0.403, -0.5906 0.9089 0.4137, 0.5906 0.9089 0.4137, -0.5906 0.8794 0.4173, 0.5906 0.8794 0.4173, 0.5906 0.6353 0.4173, -0.5906 0.6353 0.4173, 0.5906 0.659 0.315, -0.5906 0.659 0.315
            ]
        }
        coordIndex [
            0,1,2,-1,2,1,3,-1,4,5,6,-1,6,5,7,-1,8,9,10,-1,10,9,11,-1,11,12,10,-1,10,12,13,-1,10,13,14,-1,2,6,0,-1,0,6,7,-1,0,7,15,-1,15,7,16,-1,15,16,17,-1,17,16,18,-1,17,18,19,-1,19,18,20,-1,19,20,21,-1,21,20,22,-1,21,22,23,-1,23,22,24,-1,23,24,25,-1,25,24,10,-1,25,10,26,-1,26,10,14,-1,27,28,29,-1,29,28,30,-1,31,32,33,-1,33,32,29,-1,33,29,34,-1,34,29,30,-1,4,3,5,-1,5,3,1,-1,5,1,35,-1,35,1,36,-1,35,36,37,-1,37,36,38,-1,37,38,39,-1,39,38,40,-1,39,40,41,-1,41,40,42,-1,41,42,43,-1,43,42,44,-1,43,44,29,-1,29,44,45,-1,29,45,27,-1,8,10,32,-1,32,10,29,-1,9,8,31,-1,31,8,32,-1,11,9,33,-1,33,9,31,-1,11,33,34,-1,11,34,12,-1,12,34,30,-1,12,30,13,-1,13,30,28,-1,13,28,14,-1,14,28,27,-1,14,27,26,-1,26,27,45,-1,26,45,25,-1,23,25,44,-1,44,25,45,-1,23,44,21,-1,21,44,42,-1,21,42,19,-1,19,42,40,-1,19,40,17,-1,17,40,38,-1,17,38,15,-1,15,38,36,-1,15,36,0,-1,0,36,1,-1,7,5,35,-1,7,35,16,-1,16,35,37,-1,16,37,18,-1,18,37,39,-1,18,39,20,-1,20,39,41,-1,20,41,22,-1,22,41,43,-1,22,43,24,-1,10,24,29,-1,29,24,43,-1,46,47,48,-1,48,47,49,-1,50,51,52,-1,52,51,53,-1,54,55,56,-1,56,55,57,-1,57,58,56,-1,56,58,59,-1,56,59,60,-1,48,52,46,-1,46,52,53,-1,46,53,61,-1,61,53,62,-1,61,62,63,-1,63,62,64,-1,63,64,65,-1,65,64,66,-1,65,66,67,-1,67,66,68,-1,67,68,69,-1,69,68,70,-1,69,70,71,-1,71,70,56,-1,71,56,72,-1,72,56,60,-1,54,56,73,-1,73,56,74,-1,55,54,75,-1,75,54,73,-1,57,55,76,-1,76,55,75,-1,57,76,77,-1,57,77,58,-1,58,77,78,-1,58,78,59,-1,59,78,79,-1,59,79,60,-1,60,79,80,-1,60,80,72,-1,72,80,81,-1,72,81,71,-1,69,71,82,-1,82,71,81,-1,69,82,67,-1,67,82,83,-1,67,83,65,-1,65,83,84,-1,65,84,63,-1,63,84,85,-1,63,85,61,-1,61,85,86,-1,61,86,46,-1,46,86,47,-1,80,79,74,-1,74,79,78,-1,75,73,76,-1,76,73,74,-1,76,74,77,-1,77,74,78,-1,50,49,51,-1,51,49,47,-1,51,47,87,-1,87,47,86,-1,87,86,88,-1,88,86,85,-1,88,85,89,-1,89,85,84,-1,89,84,90,-1,90,84,83,-1,90,83,91,-1,91,83,82,-1,91,82,74,-1,74,82,81,-1,74,81,80,-1,53,51,87,-1,53,87,62,-1,62,87,88,-1,62,88,64,-1,64,88,89,-1,64,89,66,-1,66,89,90,-1,66,90,68,-1,68,90,91,-1,68,91,70,-1,56,70,74,-1,74,70,91,-1,92,93,94,-1,94,93,95,-1,96,97,98,-1,98,97,99,-1,100,101,102,-1,102,101,103,-1,104,105,106,-1,106,105,102,-1,106,102,107,-1,107,102,103,-1,99,95,98,-1,98,95,93,-1,98,93,108,-1,108,93,109,-1,108,109,110,-1,110,109,111,-1,110,111,112,-1,112,111,113,-1,112,113,114,-1,114,113,115,-1,114,115,116,-1,116,115,117,-1,116,117,102,-1,102,117,118,-1,102,118,100,-1,102,105,119,-1,119,105,120,-1,105,104,120,-1,120,104,121,-1,104,106,121,-1,121,106,122,-1,118,123,124,-1,118,124,100,-1,100,124,125,-1,100,125,101,-1,101,125,126,-1,101,126,103,-1,103,126,127,-1,103,127,107,-1,107,127,122,-1,107,122,106,-1,118,117,123,-1,123,117,128,-1,93,92,109,-1,109,92,129,-1,109,129,111,-1,111,129,130,-1,111,130,113,-1,113,130,131,-1,113,131,115,-1,115,131,132,-1,115,132,117,-1,117,132,128,-1,120,121,119,-1,119,121,122,-1,122,127,119,-1,119,127,126,-1,119,126,125,-1,94,97,92,-1,92,97,96,-1,92,96,129,-1,129,96,133,-1,129,133,130,-1,130,133,134,-1,130,134,131,-1,131,134,135,-1,131,135,132,-1,132,135,136,-1,132,136,128,-1,128,136,137,-1,128,137,123,-1,123,137,119,-1,123,119,124,-1,124,119,125,-1,116,137,136,-1,116,136,114,-1,114,136,135,-1,114,135,112,-1,112,135,134,-1,112,134,110,-1,110,134,133,-1,110,133,108,-1,108,133,96,-1,108,96,98,-1,116,102,137,-1,137,102,119,-1,138,139,140,-1,140,139,141,-1,140,141,142,-1,142,141,143,-1,142,143,144,-1,144,143,145,-1,144,145,146,-1,146,145,147,-1,146,147,148,-1,148,147,149,-1,150,148,151,-1,151,148,149,-1,150,151,152,-1,150,152,153,-1,153,152,154,-1,153,154,155,-1,155,154,156,-1,155,156,157,-1,157,156,158,-1,157,158,159,-1,159,158,160,-1,159,160,161,-1,162,161,163,-1,163,161,160,-1,164,162,165,-1,165,162,163,-1,166,164,167,-1,167,164,165,-1,168,166,169,-1,169,166,167,-1,168,169,170,-1,168,170,171,-1,171,170,172,-1,171,172,173,-1,173,172,174,-1,173,174,175,-1,175,174,176,-1,175,176,177,-1,177,176,178,-1,177,178,179,-1,180,179,181,-1,181,179,178,-1,138,182,139,-1,139,182,183,-1,153,155,166,-1,166,155,157,-1,162,164,161,-1,161,164,166,-1,161,166,159,-1,159,166,157,-1,180,182,179,-1,179,182,138,-1,179,138,177,-1,177,138,140,-1,177,140,175,-1,175,140,142,-1,175,142,173,-1,173,142,144,-1,173,144,171,-1,171,144,146,-1,171,146,168,-1,168,146,148,-1,168,148,166,-1,166,148,150,-1,166,150,153,-1,165,163,167,-1,167,163,160,-1,160,158,167,-1,167,158,156,-1,167,156,154,-1,183,181,139,-1,139,181,178,-1,139,178,141,-1,141,178,176,-1,141,176,143,-1,143,176,174,-1,143,174,145,-1,145,174,172,-1,145,172,147,-1,147,172,170,-1,147,170,149,-1,149,170,169,-1,149,169,151,-1,151,169,167,-1,151,167,152,-1,152,167,154,-1,
        ]
    }
}
Shape{
    appearance Appearance {
        material  Material 	{
            diffuseColor 0.0 0.0 0.0
            specularColor 0.0 0.0 0.0
            ambientIntensity 0.0
            transparency 0.0
            shininess 0.5
        }
    }
    geometry IndexedFaceSet {
        ccw TRUE
        solid FALSE
        coord DEF co Coordinate {
            point [
                -0.8144 -0.3151 0.6965, -0.8144 -0.3151 0.6969, -0.8174 -0.2926 0.6965, -0.8174 -0.2926 0.6969, -0.8261 -0.2717 0.6965, -0.8261 -0.2717 0.6969, -0.8398 -0.2537 0.6965, -0.8398 -0.2537 0.6969, -0.8578 -0.2399 0.6965, -0.8578 -0.2399 0.6969, -0.8787 -0.2313 0.6965, -0.8787 -0.2313 0.6969, -0.9012 -0.2283 0.6965, -0.9012 -0.2283 0.6969, -0.9236 -0.2313 0.6965, -0.9236 -0.2313 0.6969, -0.9446 -0.2399 0.6965, -0.9446 -0.2399 0.6969, -0.9625 -0.2537 0.6965, -0.9625 -0.2537 0.6969, -0.9763 -0.2717 0.6965, -0.9763 -0.2717 0.6969, -0.985 -0.2926 0.6965, -0.985 -0.2926 0.6969, -0.9879 -0.3151 0.6965, -0.9879 -0.3151 0.6969, -0.985 -0.3375 0.6965, -0.985 -0.3375 0.6969, -0.9763 -0.3584 0.6965, -0.9763 -0.3584 0.6969, -0.9625 -0.3764 0.6965, -0.9625 -0.3764 0.6969, -0.9446 -0.3902 0.6965, -0.9446 -0.3902 0.6969, -0.9236 -0.3989 0.6965, -0.9236 -0.3989 0.6969, -0.9012 -0.4018 0.6965, -0.9012 -0.4018 0.6969, -0.8787 -0.3989 0.6965, -0.8787 -0.3989 0.6969, -0.8578 -0.3902 0.6965, -0.8578 -0.3902 0.6969, -0.8398 -0.3764 0.6965, -0.8398 -0.3764 0.6969, -0.8261 -0.3584 0.6965, -0.8261 -0.3584 0.6969, -0.8174 -0.3375 0.6965, -0.8174 -0.3375 0.6969, -0.9012 -0.3151 0.6965, -0.3703 0.0124 0.0354, -0.3637 -0.0092 0.0354, -0.4362 0.0124 0.0354, -0.445 -0.0092 0.0354, -0.3997 0.0946 0.0354, -0.3905 0.1324 0.0354, -0.3161 -0.0644 0.0354, -0.3449 -0.0644 0.0354, -0.4016 0.1014 0.0354, -0.4029 0.1084 0.0354, -0.4169 0.1324 0.0354, -0.4035 0.1084 0.0354, -0.4048 0.1014 0.0354, -0.4065 0.0946 0.0354, -0.4937 -0.0644 0.0354, -0.4649 -0.0644 0.0354, -0.445 -0.0092 0.0276, -0.4649 -0.0644 0.0276, -0.3637 -0.0092 0.0276, -0.3449 -0.0644 0.0276, -0.3161 -0.0644 0.0276, -0.3905 0.1324 0.0276, -0.4169 0.1324 0.0276, -0.4937 -0.0644 0.0276, -0.4065 0.0946 0.0276, -0.4048 0.1014 0.0276, -0.4035 0.1084 0.0276, -0.4029 0.1084 0.0276, -0.4016 0.1014 0.0276, -0.3997 0.0946 0.0276, -0.3703 0.0124 0.0276, -0.4362 0.0124 0.0276, -0.1988 0.1324 0.0354, -0.1988 0.1324 0.0276, -0.1433 0.1324 0.0354, -0.1433 0.1324 0.0276, -0.2272 0.1294 0.0354, -0.2272 0.1294 0.0276, -0.2503 0.1213 0.0354, -0.2503 0.1213 0.0276, -0.2717 0.1069 0.0354, -0.2717 0.1069 0.0276, -0.2719 0.1067 0.0354, -0.2719 0.1067 0.0276, -0.2858 0.0913 0.0354, -0.2858 0.0913 0.0276, -0.295 0.0744 0.0354, -0.295 0.0744 0.0276, -0.3003 0.055 0.0354, -0.3003 0.055 0.0276, -0.3017 0.0365 0.0354, -0.3017 0.0365 0.0276, -0.2989 0.0101 0.0354, -0.2989 0.0101 0.0276, -0.2919 -0.0105 0.0354, -0.2919 -0.0105 0.0276, -0.2806 -0.0281 0.0354, -0.2806 -0.0281 0.0276, -0.2644 -0.0436 0.0354, -0.2644 -0.0436 0.0276, -0.2438 -0.0556 0.0354, -0.2438 -0.0556 0.0276, -0.2211 -0.0623 0.0354, -0.2211 -0.0623 0.0276, -0.1968 -0.0644 0.0354, -0.1968 -0.0644 0.0276, -0.1433 -0.0644 0.0354, -0.1433 -0.0644 0.0276, -0.2622 0.0832 0.0354, -0.2526 0.0933 0.0354, -0.2382 0.1026 0.0354, -0.222 0.1083 0.0354, -0.1987 0.1108 0.0354, -0.1697 0.1108 0.0354, -0.1697 -0.0428 0.0354, -0.1976 -0.0428 0.0354, -0.2184 -0.0409 0.0354, -0.2349 -0.0357 0.0354, -0.2484 -0.0278 0.0354, -0.2594 -0.0169 0.0354, -0.2677 -0.0033 0.0354, -0.2735 0.0152 0.0354, -0.2753 0.0359 0.0354, -0.2736 0.0555 0.0354, -0.269 0.0711 0.0354, -0.1976 -0.0428 0.0276, -0.1697 -0.0428 0.0276, -0.2184 -0.0409 0.0276, -0.2349 -0.0357 0.0276, -0.2484 -0.0278 0.0276, -0.2594 -0.0169 0.0276, -0.2677 -0.0033 0.0276, -0.2735 0.0152 0.0276, -0.2753 0.0359 0.0276, -0.2736 0.0555 0.0276, -0.269 0.0711 0.0276, -0.2622 0.0832 0.0276, -0.2526 0.0933 0.0276, -0.2382 0.1026 0.0276, -0.222 0.1083 0.0276, -0.1987 0.1108 0.0276, -0.1697 0.1108 0.0276, 0.0008 0.1324 0.0354, 0.0008 0.1324 0.0276, 0.0008 -0.0644 0.0354, 0.0008 -0.0644 0.0276, -0.1 0.1324 0.0354, -0.1 0.1324 0.0276, -0.1 0.1108 0.0354, -0.1 0.1108 0.0276, -0.0256 0.1108 0.0354, -0.0256 0.1108 0.0276, -0.0256 0.046 0.0354, -0.0256 0.046 0.0276, -0.0952 0.046 0.0354, -0.0952 0.046 0.0276, -0.0952 0.0244 0.0354, -0.0952 0.0244 0.0276, -0.0256 0.0244 0.0354, -0.0256 0.0244 0.0276, -0.0256 -0.0428 0.0354, -0.0256 -0.0428 0.0276, -0.1048 -0.0428 0.0354, -0.1048 -0.0428 0.0276, -0.1048 -0.0644 0.0354, -0.1048 -0.0644 0.0276, 0.1049 -0.0656 0.0276, 0.0934 -0.0668 0.0276, 0.0934 -0.0668 0.0354, 0.1176 -0.0643 0.0276, 0.1176 -0.0643 0.0354, 0.1367 -0.0578 0.0354, 0.1367 -0.0578 0.0276, 0.1525 -0.0477 0.0354, 0.1525 -0.0477 0.0276, 0.1673 -0.0321 0.0354, 0.1673 -0.0321 0.0276, 0.1778 -0.0134 0.0354, 0.1778 -0.0134 0.0276, 0.1837 0.0075 0.0354, 0.1837 0.0075 0.0276, 0.1856 0.0303 0.0354, 0.1856 0.0303 0.0276, 0.1828 0.0583 0.0354, 0.1828 0.0583 0.0276, 0.1752 0.0806 0.0354, 0.1752 0.0806 0.0276, 0.1637 0.099 0.0354, 0.1637 0.099 0.0276, 0.1459 0.1161 0.0354, 0.1459 0.1161 0.0276, 0.1272 0.1268 0.0354, 0.1272 0.1268 0.0276, 0.1053 0.1332 0.0354, 0.1053 0.1332 0.0276, 0.0855 0.1348 0.0354, 0.0855 0.1348 0.0276, 0.062 0.1332 0.0354, 0.062 0.1332 0.0276, 0.0392 0.127 0.0354, 0.0392 0.127 0.0276, 0.0392 0.1006 0.0354, 0.0392 0.1006 0.0276, 0.0614 0.1101 0.0354, 0.0614 0.1101 0.0276, 0.0853 0.1132 0.0354, 0.0853 0.1132 0.0276, 0.1047 0.111 0.0354, 0.1047 0.111 0.0276, 0.1194 0.1057 0.0354, 0.1194 0.1057 0.0276, 0.133 0.0966 0.0354, 0.133 0.0966 0.0276, 0.1449 0.0835 0.0354, 0.1449 0.0835 0.0276, 0.153 0.0683 0.0354, 0.153 0.0683 0.0276, 0.1583 0.0472 0.0354, 0.1583 0.0472 0.0276, 0.1592 0.0319 0.0354, 0.1592 0.0319 0.0276, 0.1572 0.0106 0.0354, 0.1572 0.0106 0.0276, 0.1519 -0.0064 0.0354, 0.1519 -0.0064 0.0276, 0.1437 -0.02 0.0354, 0.1437 -0.02 0.0276, 0.1345 -0.0298 0.0354, 0.1345 -0.0298 0.0276, 0.1224 -0.0379 0.0354, 0.1224 -0.0379 0.0276, 0.1081 -0.0432 0.0354, 0.1081 -0.0432 0.0276, 0.0897 -0.0452 0.0354, 0.0897 -0.0452 0.0276, 0.0636 -0.0423 0.0354, 0.0636 -0.0423 0.0276, 0.0427 -0.0346 0.0354, 0.0427 -0.0346 0.0276, 0.0392 -0.0326 0.0354, 0.0392 -0.0326 0.0276, 0.0392 -0.0542 0.0354, 0.0392 -0.0542 0.0276, 0.0602 -0.0629 0.0276, 0.0602 -0.0629 0.0354, 0.0801 -0.0656 0.0276, 0.088 -0.0668 0.0354, 0.088 -0.0668 0.0276, 0.3033 0.1324 0.0354, 0.3033 0.1324 0.0276, 0.3033 -0.0644 0.0354, 0.3033 -0.0644 0.0276, 0.2769 0.1324 0.0354, 0.2769 0.1324 0.0276, 0.2769 -0.0428 0.0354, 0.2769 -0.0428 0.0276, 0.2024 -0.0428 0.0354, 0.2024 -0.0428 0.0276, 0.2024 -0.0644 0.0354, 0.2024 -0.0644 0.0276
            ]
        }
        coordIndex [
            0,1,2,-1,2,1,3,-1,2,3,4,-1,4,3,5,-1,4,5,6,-1,6,5,7,-1,6,7,8,-1,8,7,9,-1,8,9,10,-1,10,9,11,-1,10,11,12,-1,12,11,13,-1,12,13,14,-1,14,13,15,-1,14,15,16,-1,16,15,17,-1,16,17,18,-1,18,17,19,-1,18,19,20,-1,20,19,21,-1,20,21,22,-1,22,21,23,-1,22,23,24,-1,24,23,25,-1,24,25,26,-1,26,25,27,-1,26,27,28,-1,28,27,29,-1,28,29,30,-1,30,29,31,-1,30,31,32,-1,32,31,33,-1,32,33,34,-1,34,33,35,-1,34,35,36,-1,36,35,37,-1,36,37,38,-1,38,37,39,-1,38,39,40,-1,40,39,41,-1,40,41,42,-1,42,41,43,-1,42,43,44,-1,44,43,45,-1,44,45,46,-1,46,45,47,-1,46,47,0,-1,0,47,1,-1,44,46,48,-1,48,46,0,-1,48,0,2,-1,38,40,48,-1,48,40,42,-1,48,42,44,-1,32,34,48,-1,48,34,36,-1,48,36,38,-1,26,28,48,-1,48,28,30,-1,48,30,32,-1,20,22,48,-1,48,22,24,-1,48,24,26,-1,14,16,48,-1,48,16,18,-1,48,18,20,-1,8,10,48,-1,48,10,12,-1,48,12,14,-1,2,4,48,-1,48,4,6,-1,48,6,8,-1,49,50,51,-1,51,50,52,-1,53,54,49,-1,49,54,55,-1,49,55,50,-1,50,55,56,-1,53,57,54,-1,54,57,58,-1,54,58,59,-1,59,58,60,-1,59,60,61,-1,61,62,59,-1,59,62,51,-1,59,51,63,-1,63,51,52,-1,63,52,64,-1,52,65,64,-1,64,65,66,-1,50,67,52,-1,52,67,65,-1,56,68,50,-1,50,68,67,-1,55,69,56,-1,56,69,68,-1,54,70,55,-1,55,70,69,-1,59,71,54,-1,54,71,70,-1,63,72,59,-1,59,72,71,-1,63,64,72,-1,72,64,66,-1,73,62,61,-1,73,61,74,-1,74,61,60,-1,74,60,75,-1,58,76,60,-1,60,76,75,-1,76,58,57,-1,76,57,77,-1,77,57,53,-1,77,53,78,-1,49,79,53,-1,53,79,78,-1,51,80,49,-1,49,80,79,-1,73,80,62,-1,62,80,51,-1,81,82,83,-1,83,82,84,-1,82,81,85,-1,82,85,86,-1,86,85,87,-1,86,87,88,-1,88,87,89,-1,88,89,90,-1,90,89,91,-1,90,91,92,-1,92,91,93,-1,92,93,94,-1,94,93,95,-1,94,95,96,-1,96,95,97,-1,96,97,98,-1,98,97,99,-1,98,99,100,-1,100,99,101,-1,100,101,102,-1,102,101,103,-1,102,103,104,-1,104,103,105,-1,104,105,106,-1,106,105,107,-1,106,107,108,-1,108,107,109,-1,108,109,110,-1,110,109,111,-1,110,111,112,-1,112,111,113,-1,112,113,114,-1,115,116,113,-1,113,116,114,-1,115,83,116,-1,116,83,84,-1,95,93,117,-1,117,93,91,-1,117,91,118,-1,118,91,89,-1,118,89,119,-1,119,89,87,-1,119,87,120,-1,120,87,85,-1,120,85,121,-1,121,85,81,-1,121,81,122,-1,122,81,83,-1,122,83,123,-1,123,83,115,-1,123,115,124,-1,124,115,113,-1,124,113,125,-1,125,113,111,-1,125,111,126,-1,126,111,109,-1,126,109,127,-1,127,109,107,-1,127,107,128,-1,128,107,105,-1,128,105,129,-1,129,105,103,-1,129,103,130,-1,130,103,101,-1,130,101,131,-1,131,101,99,-1,131,99,132,-1,132,99,97,-1,132,97,133,-1,133,97,95,-1,133,95,117,-1,124,134,123,-1,123,134,135,-1,134,124,125,-1,134,125,136,-1,136,125,126,-1,136,126,137,-1,137,126,127,-1,137,127,138,-1,138,127,128,-1,138,128,139,-1,139,128,129,-1,139,129,140,-1,140,129,130,-1,140,130,141,-1,141,130,131,-1,141,131,142,-1,142,131,132,-1,142,132,143,-1,143,132,133,-1,143,133,144,-1,144,133,117,-1,144,117,145,-1,145,117,118,-1,145,118,146,-1,146,118,119,-1,146,119,147,-1,147,119,120,-1,147,120,148,-1,148,120,121,-1,148,121,149,-1,122,150,121,-1,121,150,149,-1,135,150,123,-1,123,150,122,-1,151,152,153,-1,153,152,154,-1,155,156,151,-1,151,156,152,-1,157,158,155,-1,155,158,156,-1,159,160,157,-1,157,160,158,-1,161,162,159,-1,159,162,160,-1,163,164,161,-1,161,164,162,-1,165,166,163,-1,163,166,164,-1,167,168,165,-1,165,168,166,-1,169,170,167,-1,167,170,168,-1,171,172,169,-1,169,172,170,-1,173,174,171,-1,171,174,172,-1,173,153,174,-1,174,153,154,-1,153,173,171,-1,171,169,153,-1,153,169,167,-1,153,167,151,-1,157,155,159,-1,159,155,151,-1,159,151,161,-1,161,151,167,-1,161,167,163,-1,163,167,165,-1,175,176,177,-1,175,177,178,-1,177,179,178,-1,178,179,180,-1,178,180,181,-1,181,180,182,-1,181,182,183,-1,183,182,184,-1,183,184,185,-1,185,184,186,-1,185,186,187,-1,187,186,188,-1,187,188,189,-1,189,188,190,-1,189,190,191,-1,191,190,192,-1,191,192,193,-1,193,192,194,-1,193,194,195,-1,195,194,196,-1,195,196,197,-1,197,196,198,-1,197,198,199,-1,199,198,200,-1,199,200,201,-1,201,200,202,-1,201,202,203,-1,203,202,204,-1,203,204,205,-1,205,204,206,-1,205,206,207,-1,207,206,208,-1,207,208,209,-1,210,211,208,-1,208,211,209,-1,211,210,212,-1,211,212,213,-1,213,212,214,-1,213,214,215,-1,215,214,216,-1,215,216,217,-1,217,216,218,-1,217,218,219,-1,219,218,220,-1,219,220,221,-1,221,220,222,-1,221,222,223,-1,223,222,224,-1,223,224,225,-1,225,224,226,-1,225,226,227,-1,227,226,228,-1,227,228,229,-1,229,228,230,-1,229,230,231,-1,231,230,232,-1,231,232,233,-1,233,232,234,-1,233,234,235,-1,235,234,236,-1,235,236,237,-1,237,236,238,-1,237,238,239,-1,239,238,240,-1,239,240,241,-1,241,240,242,-1,241,242,243,-1,243,242,244,-1,243,244,245,-1,245,244,246,-1,245,246,247,-1,247,246,248,-1,247,248,249,-1,250,251,248,-1,248,251,249,-1,252,251,253,-1,253,251,250,-1,252,253,254,-1,254,253,255,-1,254,255,256,-1,256,255,177,-1,256,177,176,-1,240,177,242,-1,242,177,255,-1,242,255,244,-1,244,255,253,-1,244,253,246,-1,246,253,250,-1,246,250,248,-1,210,208,212,-1,212,208,206,-1,212,206,214,-1,214,206,204,-1,214,204,216,-1,216,204,202,-1,216,202,218,-1,218,202,200,-1,218,200,220,-1,220,200,198,-1,220,198,222,-1,222,198,196,-1,222,196,224,-1,224,196,194,-1,224,194,226,-1,226,194,192,-1,226,192,228,-1,228,192,190,-1,228,190,230,-1,230,190,188,-1,230,188,232,-1,232,188,186,-1,232,186,234,-1,234,186,184,-1,234,184,236,-1,236,184,182,-1,236,182,238,-1,238,182,180,-1,238,180,240,-1,240,180,179,-1,240,179,177,-1,257,258,259,-1,259,258,260,-1,261,262,257,-1,257,262,258,-1,263,264,261,-1,261,264,262,-1,265,266,263,-1,263,266,264,-1,267,268,265,-1,265,268,266,-1,267,259,268,-1,268,259,260,-1,261,257,263,-1,263,257,259,-1,263,259,265,-1,265,259,267,-1,
        ]
    }
}
Shape{
    appearance Appearance {
        material  Material 	{
            diffuseColor 0.25098039215686274 0.25098039215686274 0.25098039215686274
            specularColor 0.12549019607843137 0.12549019607843137 0.12549019607843137
            ambientIntensity 0.251
            transparency 0.0
            shininess 0.5
        }
    }
    geometry IndexedFaceSet {
        ccw TRUE
        solid FALSE
        coord DEF co Coordinate {
            point [
                -0.3703 0.0124 0.0276, -0.4362 0.0124 0.0276, -0.3997 0.0946 0.0276, -0.4065 0.0946 0.0276, -0.4016 0.1014 0.0276, -0.4048 0.1014 0.0276, -0.4029 0.1084 0.0276, -0.4035 0.1084 0.0276, -0.1697 0.1108 0.0276, -0.1697 -0.0428 0.0276, -0.1987 0.1108 0.0276, -0.1976 -0.0428 0.0276, -0.2184 -0.0409 0.0276, -0.2753 0.0359 0.0276, -0.2736 0.0555 0.0276, -0.269 0.0711 0.0276, -0.222 0.1083 0.0276, -0.2349 -0.0357 0.0276, -0.2484 -0.0278 0.0276, -0.2594 -0.0169 0.0276, -0.2677 -0.0033 0.0276, -0.2735 0.0152 0.0276, -0.2622 0.0832 0.0276, -0.2526 0.0933 0.0276, -0.2382 0.1026 0.0276
            ]
        }
        coordIndex [
            0,1,2,-1,2,1,3,-1,2,3,4,-1,4,3,5,-1,4,5,6,-1,6,5,7,-1,8,9,10,-1,10,9,11,-1,10,11,12,-1,13,14,10,-1,10,14,15,-1,10,15,16,-1,12,17,10,-1,10,17,18,-1,10,18,19,-1,19,20,10,-1,10,20,21,-1,10,21,13,-1,22,23,15,-1,15,23,24,-1,15,24,16,-1,
        ]
    }
}