#VRML V2.0 utf8
# 3D model generated by easyeda2kicad.py (https://github.com/uPesy/easyeda2kicad.py)

Shape{
    appearance Appearance {
        material  Material 	{
            diffuseColor 0.8274509803921568 0.6666666666666666 0.12941176470588237
            specularColor 0.8274509803921568 0.6666666666666666 0.12941176470588237
            ambientIntensity 0.6535
            transparency 0.0
            shininess 0.5
        }
    }
    geometry IndexedFaceSet {
        ccw TRUE
        solid FALSE
        coord DEF co Coordinate {
            point [
                -0.0163 0.3735 0.0, -0.0086 -0.0213 0.0, -0.0163 -0.0305 0.0, -0.0086 -0.03 0.0, 0.0336 -0.03 0.0, -0.0067 0.0401 0.0, 0.023 0.0401 0.0, 0.023 0.0142 0.0, 0.049 -0.0259 0.0, 0.049 -0.0173 0.0, 0.0336 0.0488 0.0, 0.0574 -0.0294 0.0, 0.0653 -0.0305 0.0, 0.023 0.0055 0.0, 0.023 -0.0213 0.0, -0.0048 0.0055 0.0, -0.0048 0.0142 0.0, 0.1546 -0.03 0.0, 0.0753 -0.0305 0.0, 0.1143 -0.03 0.0, 0.0803 -0.0299 0.0, 0.088 -0.0273 0.0, -0.0067 0.0488 0.0, 0.0752 0.0402 0.0, 0.0811 0.0381 0.0, 0.0504 -0.018 0.0, 0.0865 0.0344 0.0, 0.0913 0.0292 0.0, 0.097 0.0085 0.0, 0.0962 0.0 0.0, 0.094 -0.0068 0.0, 0.0765 -0.0215 0.0, 0.0692 -0.0223 0.0, 0.0823 -0.0194 0.0, 0.0871 -0.0161 0.0, 0.0908 -0.0122 0.0, 0.0587 -0.0211 0.0, 0.3582 0.1078 0.0, 0.37 0.0545 0.0, 0.0409 0.3718 0.0, 0.144 0.0488 0.0, -0.0137 0.3738 0.0, 0.0946 0.3619 0.0, 0.1463 0.3442 0.0, 0.1948 0.3193 0.0, 0.0945 0.0231 0.0, 0.0966 0.0147 0.0, 0.2392 0.2875 0.0, 0.2786 0.2496 0.0, 0.1546 0.0488 0.0, 0.3119 0.2064 0.0, 0.3387 0.1588 0.0, 0.1034 0.028 0.0, 0.0988 0.0354 0.0, 0.0917 0.0422 0.0, 0.0943 -0.0233 0.0, 0.1002 -0.017 0.0, 0.1143 -0.0213 0.0, 0.1044 -0.0096 0.0, 0.144 -0.0213 0.0, 0.1068 -0.0012 0.0, 0.1075 0.0079 0.0, 0.1064 0.0191 0.0, 0.0842 0.0465 0.0, 0.0754 0.0491 0.0, 0.0675 0.0497 0.0, 0.0581 0.0491 0.0, 0.049 0.0466 0.0, 0.049 0.036 0.0, 0.0578 0.0398 0.0, 0.0674 0.0411 0.0, -0.1642 -0.03 0.0, -0.1527 -0.03 0.0, -0.0931 -0.03 0.0, -0.0835 -0.0084 0.0, -0.0789 -0.0154 0.0, -0.1229 0.0488 0.0, -0.1335 0.0488 0.0, -0.2596 0.2693 0.0, -0.0725 -0.0217 0.0, -0.0642 -0.0264 0.0, -0.0552 -0.0291 0.0, -0.0454 -0.03 0.0, -0.024 -0.03 0.0, -0.024 0.0488 0.0, -0.0462 0.0488 0.0, -0.0576 0.0475 0.0, -0.0668 0.0443 0.0, -0.0754 0.0386 0.0, -0.0755 0.0385 0.0, -0.081 0.0323 0.0, -0.0847 0.0255 0.0, -0.2176 0.3042 0.0, -0.171 0.3326 0.0, -0.1208 0.354 0.0, -0.0679 0.3678 0.0, -0.3651 0.0813 0.0, -0.3493 0.1336 0.0, -0.1047 -0.03 0.0, -0.1122 -0.0079 0.0, -0.1447 -0.0079 0.0, -0.0868 0.0178 0.0, -0.0874 0.0104 0.0, -0.0863 -0.0002 0.0, -0.3262 0.183 0.0, -0.296 0.2286 0.0, -0.0163 -0.3735 0.0, -0.0679 -0.3678 0.0, -0.1208 -0.354 0.0, -0.171 -0.3326 0.0, -0.2176 -0.3042 0.0, -0.2596 -0.2693 0.0, -0.296 -0.2286 0.0, -0.3262 -0.183 0.0, -0.3493 -0.1336 0.0, -0.3651 -0.0813 0.0, -0.3726 -0.0305 0.0, -0.373 -0.0273 0.0, -0.373 0.0273 0.0, -0.0137 -0.3738 0.0, 0.0409 -0.3718 0.0, 0.0685 -0.0309 0.0, 0.0946 -0.3619 0.0, 0.374 0.0 0.0, 0.3718 -0.0305 0.0, 0.37 -0.0545 0.0, 0.3582 -0.1078 0.0, 0.3387 -0.1588 0.0, 0.3119 -0.2064 0.0, 0.2786 -0.2496 0.0, 0.2392 -0.2875 0.0, 0.1948 -0.3193 0.0, 0.0706 -0.0309 0.0, 0.1463 -0.3442 0.0, -0.3895 -0.0573 0.1969, -0.3937 0.0 0.1969, -0.3927 -0.0287 0.0197, -0.3885 -0.0572 0.0197, -0.3843 -0.0856 0.0197, -0.377 -0.1134 0.1969, -0.376 -0.1131 0.0197, -0.3677 -0.1406 0.0197, -0.3565 -0.1671 0.1969, -0.3555 -0.1667 0.0197, -0.3433 -0.1927 0.0197, -0.3283 -0.2172 0.1969, -0.3275 -0.2167 0.0197, -0.3116 -0.2406 0.0197, -0.2932 -0.2627 0.1969, -0.2924 -0.262 0.0197, -0.2733 -0.2834 0.0197, -0.2518 -0.3026 0.1969, -0.2512 -0.3018 0.0197, -0.2291 -0.3202 0.0197, -0.2051 -0.3361 0.1969, -0.2045 -0.3352 0.0197, -0.18 -0.3501 0.0197, -0.154 -0.3623 0.1969, -0.1536 -0.3614 0.0197, -0.1271 -0.3726 0.0197, -0.0996 -0.3809 0.1969, -0.0993 -0.3799 0.0197, -0.0715 -0.3872 0.0197, -0.0431 -0.3913 0.1969, -0.0429 -0.3903 0.0197, -0.0144 -0.3934 0.0197, 0.0144 -0.3934 0.1969, 0.0143 -0.3924 0.0197, 0.0431 -0.3913 0.0197, 0.0715 -0.3872 0.1969, 0.0713 -0.3861 0.0197, 0.0996 -0.3809 0.0197, 0.1271 -0.3726 0.1969, 0.1268 -0.3716 0.0197, 0.154 -0.3623 0.0197, 0.18 -0.3501 0.1969, 0.1795 -0.3492 0.0197, 0.2051 -0.3361 0.0197, 0.2291 -0.3202 0.1969, 0.2285 -0.3193 0.0197, 0.2518 -0.3026 0.0197, 0.2733 -0.2834 0.1969, 0.2725 -0.2827 0.0197, 0.2932 -0.2627 0.0197, 0.3116 -0.2406 0.1969, 0.3108 -0.24 0.0197, 0.3283 -0.2172 0.0197, 0.3433 -0.1927 0.1969, 0.3424 -0.1922 0.0197, 0.3565 -0.1671 0.0197, 0.3677 -0.1406 0.1969, 0.3667 -0.1403 0.0197, 0.377 -0.1134 0.0197, 0.3843 -0.0856 0.1969, 0.3833 -0.0854 0.0197, 0.3895 -0.0573 0.0197, 0.3927 -0.0287 0.1969, 0.3916 -0.0287 0.0197, 0.3937 0.0 0.1969, 0.3937 0.0 0.0197, 0.3927 0.0287 0.1969, 0.3916 0.0287 0.0197, 0.3895 0.0573 0.0197, 0.3843 0.0856 0.1969, 0.3833 0.0854 0.0197, 0.377 0.1134 0.0197, 0.3677 0.1406 0.1969, 0.3667 0.1403 0.0197, 0.3565 0.1671 0.0197, 0.3433 0.1927 0.1969, 0.3424 0.1922 0.0197, 0.3283 0.2172 0.0197, 0.3116 0.2406 0.1969, 0.3108 0.24 0.0197, 0.2932 0.2627 0.0197, 0.2733 0.2834 0.1969, 0.2725 0.2827 0.0197, 0.2518 0.3026 0.0197, 0.2291 0.3202 0.1969, 0.2285 0.3193 0.0197, 0.2051 0.3361 0.0197, 0.18 0.3501 0.1969, 0.1795 0.3492 0.0197, 0.154 0.3623 0.0197, 0.1271 0.3726 0.1969, 0.1268 0.3716 0.0197, 0.0996 0.3809 0.0197, 0.0715 0.3872 0.1969, 0.0713 0.3861 0.0197, 0.0431 0.3913 0.0197, 0.0144 0.3934 0.1969, 0.0143 0.3924 0.0197, -0.0144 0.3934 0.0197, -0.0431 0.3913 0.1969, -0.0429 0.3903 0.0197, -0.0715 0.3872 0.0197, -0.0996 0.3809 0.1969, -0.0993 0.3799 0.0197, -0.1271 0.3726 0.0197, -0.154 0.3623 0.1969, -0.1536 0.3614 0.0197, -0.18 0.3501 0.0197, -0.2051 0.3361 0.1969, -0.2045 0.3352 0.0197, -0.2291 0.3202 0.0197, -0.2518 0.3026 0.1969, -0.2512 0.3018 0.0197, -0.2733 0.2834 0.0197, -0.2932 0.2627 0.1969, -0.2924 0.262 0.0197, -0.3116 0.2406 0.0197, -0.3283 0.2172 0.1969, -0.3275 0.2167 0.0197, -0.3433 0.1927 0.0197, -0.3565 0.1671 0.1969, -0.3555 0.1667 0.0197, -0.3677 0.1406 0.0197, -0.377 0.1134 0.1969, -0.376 0.1131 0.0197, -0.3843 0.0856 0.0197, -0.3895 0.0573 0.1969, -0.3885 0.0572 0.0197, -0.3927 0.0287 0.0197, -0.3927 0.0 0.0197, -0.2578 -0.144 0.1969, -0.2297 -0.1855 0.1969, -0.1951 -0.2217 0.1969, -0.1548 -0.2514 0.1969, -0.1101 -0.274 0.1969, -0.0622 -0.2886 0.1969, -0.0125 -0.295 0.1969, 0.0375 -0.2929 0.1969, 0.0865 -0.2823 0.1969, 0.1329 -0.2637 0.1969, 0.1756 -0.2374 0.1969, 0.2132 -0.2043 0.1969, 0.2446 -0.1653 0.1969, 0.2691 0.1216 0.1969, 0.2446 0.1653 0.1969, 0.2132 0.2043 0.1969, 0.1756 0.2374 0.1969, 0.1329 0.2637 0.1969, 0.0865 0.2823 0.1969, 0.0375 0.2929 0.1969, 0.2691 -0.1216 0.1969, 0.2857 -0.0744 0.1969, 0.2942 -0.025 0.1969, 0.2953 0.0 0.1969, 0.2942 0.025 0.1969, 0.2857 0.0744 0.1969, -0.2297 0.1855 0.1969, -0.2578 0.144 0.1969, -0.2784 0.0984 0.1969, -0.291 0.0499 0.1969, -0.2953 0.0 0.1969, -0.291 -0.0499 0.1969, -0.2784 -0.0984 0.1969, -0.0125 0.295 0.1969, -0.0622 0.2886 0.1969, -0.1101 0.274 0.1969, -0.1548 0.2514 0.1969, -0.1951 0.2217 0.1969, -0.2905 -0.0498 0.8661, -0.2931 -0.0356 0.8661, -0.2867 -0.0707 0.8661, -0.2781 -0.0983 0.8661, -0.2761 -0.1047 0.8661, -0.2615 -0.1372 0.8661, -0.243 -0.1677 0.8661, -0.2575 -0.1438 0.8661, -0.1958 -0.221 0.8661, -0.221 -0.1958 0.8661, -0.2293 -0.1852 0.8661, -0.195 -0.2216 0.8661, -0.1677 -0.243 0.8661, -0.1545 -0.251 0.8661, -0.1372 -0.2615 0.8661, -0.11 -0.2737 0.8661, -0.1047 -0.2761 0.8661, -0.0707 -0.2867 0.8661, -0.0356 -0.2931 0.8661, -0.0621 -0.2883 0.8661, 0.0356 -0.2931 0.8661, 0.0 -0.2953 0.8661, -0.0125 -0.2945 0.8661, 0.0375 -0.2928 0.8661, 0.0707 -0.2867 0.8661, 0.0863 -0.2818 0.8661, 0.1047 -0.2761 0.8661, 0.1328 -0.2634 0.8661, 0.1372 -0.2615 0.8661, 0.1677 -0.243 0.8661, 0.221 -0.1958 0.8661, 0.2128 -0.204 0.8661, 0.1958 -0.221 0.8661, 0.1753 -0.2371 0.8661, 0.2615 -0.1372 0.8661, 0.2445 -0.1653 0.8661, 0.243 -0.1677 0.8661, 0.2761 -0.1047 0.8661, 0.2686 -0.1214 0.8661, 0.2938 -0.025 0.8661, 0.2931 -0.0356 0.8661, 0.2867 -0.0707 0.8661, 0.2855 -0.0743 0.8661, 0.2953 0.0 0.8661, 0.2938 0.025 0.8661, 0.2931 0.0356 0.8661, 0.2867 0.0707 0.8661, 0.2761 0.1047 0.8661, 0.2855 0.0743 0.8661, 0.2615 0.1372 0.8661, 0.2686 0.1214 0.8661, 0.2128 0.204 0.8661, 0.221 0.1958 0.8661, 0.243 0.1677 0.8661, 0.2445 0.1653 0.8661, 0.1958 0.221 0.8661, 0.1753 0.2371 0.8661, 0.1677 0.243 0.8661, 0.1372 0.2615 0.8661, 0.1047 0.2761 0.8661, 0.1328 0.2634 0.8661, 0.0707 0.2867 0.8661, 0.0863 0.2818 0.8661, -0.0125 0.2945 0.8661, 0.0 0.2953 0.8661, 0.0356 0.2931 0.8661, 0.0375 0.2928 0.8661, -0.0356 0.2931 0.8661, -0.0621 0.2883 0.8661, -0.0707 0.2867 0.8661, -0.1047 0.2761 0.8661, -0.1372 0.2615 0.8661, -0.11 0.2737 0.8661, -0.1677 0.243 0.8661, -0.1545 0.251 0.8661, -0.2293 0.1852 0.8661, -0.221 0.1958 0.8661, -0.1958 0.221 0.8661, -0.195 0.2216 0.8661, -0.243 0.1677 0.8661, -0.2575 0.1438 0.8661, -0.2615 0.1372 0.8661, -0.2761 0.1047 0.8661, -0.2867 0.0707 0.8661, -0.2781 0.0983 0.8661, -0.2953 0.0 0.8661, -0.2931 0.0356 0.8661, -0.2905 0.0498 0.8661, -0.1725 -0.038 1.2008, -0.172 -0.0424 0.9843, -0.1685 -0.0547 1.2008, -0.1657 -0.0628 0.9843, -0.1604 -0.0742 1.2008, -0.1605 -0.0743 0.9843, -0.1579 -0.0804 1.2008, -0.1569 -0.0823 0.9843, -0.1458 -0.1006 0.9843, -0.1433 -0.1041 1.2008, -0.1408 -0.107 0.9843, -0.1408 -0.107 1.2008, -0.1326 -0.1175 0.9843, -0.1253 -0.1253 1.2008, -0.1175 -0.1326 0.9843, -0.1143 -0.1346 1.2008, -0.1146 -0.1349 0.9843, -0.1041 -0.1433 1.2008, -0.1006 -0.1458 0.9843, -0.0829 -0.1564 1.2008, -0.083 -0.1565 0.9843, -0.0804 -0.1579 1.2008, -0.0096 -0.1766 0.9843, 0.0 -0.1772 0.9843, 0.0277 -0.175 1.2008, 0.0214 -0.1759 0.9843, 0.0286 -0.1748 1.2008, -0.0823 -0.1569 0.9843, -0.0628 -0.1657 0.9843, -0.0547 -0.1685 1.2008, -0.0473 -0.1705 0.9843, -0.0473 -0.1703 1.2008, -0.0424 -0.172 0.9843, -0.0277 -0.175 1.2008, -0.0214 -0.1759 0.9843, -0.0096 -0.1764 1.2008, 0.0 -0.1772 1.2008, 0.0286 -0.1745 0.9843, 0.0424 -0.172 0.9843, 0.0547 -0.1685 1.2008, 0.0628 -0.1657 0.9843, 0.0654 -0.1641 1.2008, 0.0655 -0.1644 0.9843, 0.0804 -0.1579 1.2008, 0.0823 -0.1569 0.9843, 0.0992 -0.1463 1.2008, 0.0994 -0.1466 0.9843, 0.1041 -0.1433 1.2008, 0.1006 -0.1458 0.9843, 0.1175 -0.1326 0.9843, 0.1253 -0.1253 1.2008, 0.1284 -0.1217 0.9843, 0.1284 -0.1216 1.2008, 0.1326 -0.1175 0.9843, 0.1433 -0.1041 1.2008, 0.1458 -0.1006 0.9843, 0.1513 -0.0911 1.2008, 0.1515 -0.0912 0.9843, 0.1579 -0.0804 1.2008, 0.1569 -0.0823 0.9843, 0.1657 -0.0628 0.9843, 0.1678 -0.0565 1.2008, 0.1676 -0.0565 0.9843, 0.1685 -0.0547 1.2008, 0.172 -0.0424 0.9843, 0.175 -0.0277 1.2008, 0.1759 -0.0214 0.9843, 0.1757 -0.0191 1.2008, 0.176 -0.0191 0.9843, 0.1772 0.0 1.2008, 0.1772 0.0 0.9843, 0.1757 0.0191 1.2008, 0.176 0.0191 0.9843, 0.175 0.0277 1.2008, 0.1759 0.0214 0.9843, 0.172 0.0424 0.9843, 0.1685 0.0547 1.2008, 0.1676 0.0565 0.9843, 0.1678 0.0565 1.2008, 0.1657 0.0628 0.9843, 0.1579 0.0804 1.2008, 0.1569 0.0823 0.9843, 0.1513 0.0911 1.2008, 0.1515 0.0912 0.9843, 0.1433 0.1041 1.2008, 0.1458 0.1006 0.9843, 0.1326 0.1175 0.9843, 0.1284 0.1216 1.2008, 0.1284 0.1217 0.9843, 0.1253 0.1253 1.2008, 0.1175 0.1326 0.9843, 0.1041 0.1433 1.2008, 0.1006 0.1458 0.9843, 0.0992 0.1463 1.2008, 0.0994 0.1466 0.9843, 0.0804 0.1579 1.2008, 0.0823 0.1569 0.9843, 0.0654 0.1641 1.2008, 0.0655 0.1644 0.9843, 0.0547 0.1685 1.2008, 0.0628 0.1657 0.9843, 0.0424 0.172 0.9843, 0.0286 0.1748 1.2008, 0.0286 0.1745 0.9843, 0.0277 0.175 1.2008, 0.0214 0.1759 0.9843, 0.0 0.1772 1.2008, 0.0 0.1772 0.9843, -0.0096 0.1764 1.2008, -0.0096 0.1766 0.9843, -0.0277 0.175 1.2008, -0.0214 0.1759 0.9843, -0.0424 0.172 0.9843, -0.0473 0.1703 1.2008, -0.0473 0.1705 0.9843, -0.0547 0.1685 1.2008, -0.0628 0.1657 0.9843, -0.0804 0.1579 1.2008, -0.0823 0.1569 0.9843, -0.0829 0.1564 1.2008, -0.083 0.1565 0.9843, -0.1041 0.1433 1.2008, -0.1006 0.1458 0.9843, -0.1143 0.1346 1.2008, -0.1146 0.1349 0.9843, -0.1253 0.1253 1.2008, -0.1175 0.1326 0.9843, -0.1326 0.1175 0.9843, -0.1408 0.107 1.2008, -0.1408 0.107 0.9843, -0.1433 0.1041 1.2008, -0.1458 0.1006 0.9843, -0.1579 0.0804 1.2008, -0.1569 0.0823 0.9843, -0.1604 0.0742 1.2008, -0.1605 0.0743 0.9843, -0.1685 0.0547 1.2008, -0.1657 0.0628 0.9843, -0.172 0.0424 0.9843, -0.1725 0.038 1.2008, -0.1728 0.038 0.9843, -0.175 0.0277 1.2008, -0.1759 0.0214 0.9843, -0.1772 0.0 1.2008, -0.1772 0.0 0.9843, -0.175 -0.0277 1.2008, -0.1759 -0.0214 0.9843, -0.1728 -0.038 0.9843, 0.1728 0.0274 1.2285, 0.1559 0.0794 1.2285, 0.1416 0.1029 1.2285, 0.1237 0.1237 1.2285, 0.0794 0.1559 1.2285, 0.0541 0.1664 1.2285, 0.0274 0.1728 1.2285, -0.0274 0.1728 1.2285, -0.0541 0.1664 1.2285, -0.1029 0.1416 1.2285, -0.1237 0.1237 1.2285, -0.1416 0.1029 1.2285, -0.1664 0.0541 1.2285, -0.1728 0.0274 1.2285, -0.1664 -0.0541 1.2285, -0.1559 -0.0794 1.2285, -0.1237 -0.1237 1.2285, -0.1029 -0.1416 1.2285, -0.0794 -0.1559 1.2285, -0.0274 -0.1728 1.2285, 0.0 -0.175 1.2285, 0.0541 -0.1664 1.2285, 0.0794 -0.1559 1.2285, 0.1029 -0.1416 1.2285, 0.1416 -0.1029 1.2285, 0.1559 -0.0794 1.2285, 0.0322 -0.0443 1.3693, 0.0163 -0.0224 1.3758, 0.0126 -0.0247 1.3758, 0.0 0.0 1.378, 0.0196 -0.0196 1.3758, 0.0387 -0.0387 1.3693, 0.0569 -0.0569 1.3586, 0.0224 -0.0163 1.3758, 0.0443 -0.0322 1.3693, 0.0651 -0.0473 1.3586, 0.0842 -0.0612 1.3441, 0.0247 -0.0126 1.3758, 0.0488 -0.0249 1.3693, 0.0717 -0.0365 1.3586, 0.0928 -0.0473 1.3441, 0.1116 -0.0569 1.3261, 0.0264 -0.0086 1.3758, 0.0521 -0.0169 1.3693, 0.0765 -0.0249 1.3586, 0.099 -0.0322 1.3441, 0.1191 -0.0387 1.3261, 0.1363 -0.0443 1.3049, 0.0274 -0.0043 1.3758, 0.0541 -0.0086 1.3693, 0.0794 -0.0126 1.3586, 0.1029 -0.0163 1.3441, 0.1237 -0.0196 1.3261, 0.1416 -0.0224 1.3049, 0.1559 -0.0247 1.2812, 0.0277 0.0 1.3758, 0.0547 0.0 1.3693, 0.0804 0.0 1.3586, 0.1041 0.0 1.3441, 0.1253 0.0 1.3261, 0.1433 0.0 1.3049, 0.1579 0.0 1.2812, 0.1685 0.0 1.2555, 0.1664 -0.0264 1.2555, 0.1728 -0.0274 1.2285, 0.175 0.0 1.2285, 0.1664 -0.0541 1.2285, 0.1602 -0.0521 1.2555, 0.1501 -0.0488 1.2812, 0.1501 -0.0765 1.2555, 0.1407 -0.0717 1.2812, 0.1277 -0.0651 1.3049, 0.1363 -0.099 1.2555, 0.1277 -0.0928 1.2812, 0.116 -0.0842 1.3049, 0.1013 -0.0736 1.3261, 0.1237 -0.1237 1.2285, 0.1191 -0.1191 1.2555, 0.1116 -0.1116 1.2812, 0.1013 -0.1013 1.3049, 0.0886 -0.0886 1.3261, 0.0736 -0.0736 1.3441, 0.099 -0.1363 1.2555, 0.0928 -0.1277 1.2812, 0.0842 -0.116 1.3049, 0.0736 -0.1013 1.3261, 0.0612 -0.0842 1.3441, 0.0473 -0.0651 1.3586, 0.0765 -0.1501 1.2555, 0.0717 -0.1407 1.2812, 0.0651 -0.1277 1.3049, 0.0569 -0.1116 1.3261, 0.0473 -0.0928 1.3441, 0.0365 -0.0717 1.3586, 0.0249 -0.0488 1.3693, 0.0521 -0.1602 1.2555, 0.0488 -0.1501 1.2812, 0.0443 -0.1363 1.3049, 0.0387 -0.1191 1.3261, 0.0322 -0.099 1.3441, 0.0249 -0.0765 1.3586, 0.0169 -0.0521 1.3693, 0.0086 -0.0264 1.3758, 0.0274 -0.1728 1.2285, 0.0264 -0.1664 1.2555, 0.0247 -0.1559 1.2812, 0.0224 -0.1416 1.3049, 0.0196 -0.1237 1.3261, 0.0163 -0.1029 1.3441, 0.0126 -0.0794 1.3586, 0.0086 -0.0541 1.3693, 0.0043 -0.0274 1.3758, 0.0 -0.1685 1.2555, 0.0 -0.1579 1.2812, 0.0 -0.1433 1.3049, 0.0 -0.1253 1.3261, 0.0 -0.1041 1.3441, 0.0 -0.0804 1.3586, 0.0 -0.0547 1.3693, 0.0 -0.0277 1.3758, -0.0264 -0.1664 1.2555, -0.0247 -0.1559 1.2812, -0.0224 -0.1416 1.3049, -0.0196 -0.1237 1.3261, -0.0163 -0.1029 1.3441, -0.0126 -0.0794 1.3586, -0.0086 -0.0541 1.3693, -0.0043 -0.0274 1.3758, -0.0541 -0.1664 1.2285, -0.0521 -0.1602 1.2555, -0.0488 -0.1501 1.2812, -0.0443 -0.1363 1.3049, -0.0387 -0.1191 1.3261, -0.0322 -0.099 1.3441, -0.0249 -0.0765 1.3586, -0.0169 -0.0521 1.3693, -0.0086 -0.0264 1.3758, -0.0765 -0.1501 1.2555, -0.0717 -0.1407 1.2812, -0.0651 -0.1277 1.3049, -0.0569 -0.1116 1.3261, -0.0473 -0.0928 1.3441, -0.0365 -0.0717 1.3586, -0.0249 -0.0488 1.3693, -0.0126 -0.0247 1.3758, -0.099 -0.1363 1.2555, -0.0928 -0.1277 1.2812, -0.0842 -0.116 1.3049, -0.0736 -0.1013 1.3261, -0.0612 -0.0842 1.3441, -0.0473 -0.0651 1.3586, -0.0322 -0.0443 1.3693, -0.0163 -0.0224 1.3758, -0.1191 -0.1191 1.2555, -0.1116 -0.1116 1.2812, -0.1013 -0.1013 1.3049, -0.0886 -0.0886 1.3261, -0.0736 -0.0736 1.3441, -0.0569 -0.0569 1.3586, -0.0387 -0.0387 1.3693, -0.0196 -0.0196 1.3758, -0.1416 -0.1029 1.2285, -0.1363 -0.099 1.2555, -0.1277 -0.0928 1.2812, -0.116 -0.0842 1.3049, -0.1013 -0.0736 1.3261, -0.0842 -0.0612 1.3441, -0.0651 -0.0473 1.3586, -0.0443 -0.0322 1.3693, -0.0224 -0.0163 1.3758, -0.1501 -0.0765 1.2555, -0.1407 -0.0717 1.2812, -0.1277 -0.0651 1.3049, -0.1116 -0.0569 1.3261, -0.0928 -0.0473 1.3441, -0.0717 -0.0365 1.3586, -0.0488 -0.0249 1.3693, -0.0247 -0.0126 1.3758, -0.1602 -0.0521 1.2555, -0.1501 -0.0488 1.2812, -0.1363 -0.0443 1.3049, -0.1191 -0.0387 1.3261, -0.099 -0.0322 1.3441, -0.0765 -0.0249 1.3586, -0.0521 -0.0169 1.3693, -0.0264 -0.0086 1.3758, -0.1728 -0.0274 1.2285, -0.1664 -0.0264 1.2555, -0.1559 -0.0247 1.2812, -0.1416 -0.0224 1.3049, -0.1237 -0.0196 1.3261, -0.1029 -0.0163 1.3441, -0.0794 -0.0126 1.3586, -0.0541 -0.0086 1.3693, -0.0274 -0.0043 1.3758, -0.175 0.0 1.2285, -0.1685 0.0 1.2555, -0.1579 0.0 1.2812, -0.1433 0.0 1.3049, -0.1253 0.0 1.3261, -0.1041 0.0 1.3441, -0.0804 0.0 1.3586, -0.0547 0.0 1.3693, -0.0277 0.0 1.3758, -0.1664 0.0264 1.2555, -0.1559 0.0247 1.2812, -0.1416 0.0224 1.3049, -0.1237 0.0196 1.3261, -0.1029 0.0163 1.3441, -0.0794 0.0126 1.3586, -0.0541 0.0086 1.3693, -0.0274 0.0043 1.3758, -0.1602 0.0521 1.2555, -0.1501 0.0488 1.2812, -0.1363 0.0443 1.3049, -0.1191 0.0387 1.3261, -0.099 0.0322 1.3441, -0.0765 0.0249 1.3586, -0.0521 0.0169 1.3693, -0.0264 0.0086 1.3758, -0.1559 0.0794 1.2285, -0.1501 0.0765 1.2555, -0.1407 0.0717 1.2812, -0.1277 0.0651 1.3049, -0.1116 0.0569 1.3261, -0.0928 0.0473 1.3441, -0.0717 0.0365 1.3586, -0.0488 0.0249 1.3693, -0.0247 0.0126 1.3758, -0.1363 0.099 1.2555, -0.1277 0.0928 1.2812, -0.116 0.0842 1.3049, -0.1013 0.0736 1.3261, -0.0842 0.0612 1.3441, -0.0651 0.0473 1.3586, -0.0443 0.0322 1.3693, -0.0224 0.0163 1.3758, -0.1191 0.1191 1.2555, -0.1116 0.1116 1.2812, -0.1013 0.1013 1.3049, -0.0886 0.0886 1.3261, -0.0736 0.0736 1.3441, -0.0569 0.0569 1.3586, -0.0387 0.0387 1.3693, -0.0196 0.0196 1.3758, -0.099 0.1363 1.2555, -0.0928 0.1277 1.2812, -0.0842 0.116 1.3049, -0.0736 0.1013 1.3261, -0.0612 0.0842 1.3441, -0.0473 0.0651 1.3586, -0.0322 0.0443 1.3693, -0.0163 0.0224 1.3758, -0.0794 0.1559 1.2285, -0.0765 0.1501 1.2555, -0.0717 0.1407 1.2812, -0.0651 0.1277 1.3049, -0.0569 0.1116 1.3261, -0.0473 0.0928 1.3441, -0.0365 0.0717 1.3586, -0.0249 0.0488 1.3693, -0.0126 0.0247 1.3758, -0.0521 0.1602 1.2555, -0.0488 0.1501 1.2812, -0.0443 0.1363 1.3049, -0.0387 0.1191 1.3261, -0.0322 0.099 1.3441, -0.0249 0.0765 1.3586, -0.0169 0.0521 1.3693, -0.0086 0.0264 1.3758, -0.0264 0.1664 1.2555, -0.0247 0.1559 1.2812, -0.0224 0.1416 1.3049, -0.0196 0.1237 1.3261, -0.0163 0.1029 1.3441, -0.0126 0.0794 1.3586, -0.0086 0.0541 1.3693, -0.0043 0.0274 1.3758, 0.0 0.175 1.2285, 0.0 0.1685 1.2555, 0.0 0.1579 1.2812, 0.0 0.1433 1.3049, 0.0 0.1253 1.3261, 0.0 0.1041 1.3441, 0.0 0.0804 1.3586, 0.0 0.0547 1.3693, 0.0 0.0277 1.3758, 0.0264 0.1664 1.2555, 0.0247 0.1559 1.2812, 0.0224 0.1416 1.3049, 0.0196 0.1237 1.3261, 0.0163 0.1029 1.3441, 0.0126 0.0794 1.3586, 0.0086 0.0541 1.3693, 0.0043 0.0274 1.3758, 0.0521 0.1602 1.2555, 0.0488 0.1501 1.2812, 0.0443 0.1363 1.3049, 0.0387 0.1191 1.3261, 0.0322 0.099 1.3441, 0.0249 0.0765 1.3586, 0.0169 0.0521 1.3693, 0.0086 0.0264 1.3758, 0.0765 0.1501 1.2555, 0.0717 0.1407 1.2812, 0.0651 0.1277 1.3049, 0.0569 0.1116 1.3261, 0.0473 0.0928 1.3441, 0.0365 0.0717 1.3586, 0.0249 0.0488 1.3693, 0.0126 0.0247 1.3758, 0.1029 0.1416 1.2285, 0.099 0.1363 1.2555, 0.0928 0.1277 1.2812, 0.0842 0.116 1.3049, 0.0736 0.1013 1.3261, 0.0612 0.0842 1.3441, 0.0473 0.0651 1.3586, 0.0322 0.0443 1.3693, 0.0163 0.0224 1.3758, 0.1191 0.1191 1.2555, 0.1116 0.1116 1.2812, 0.1013 0.1013 1.3049, 0.0886 0.0886 1.3261, 0.0736 0.0736 1.3441, 0.0569 0.0569 1.3586, 0.0387 0.0387 1.3693, 0.0196 0.0196 1.3758, 0.1363 0.099 1.2555, 0.1277 0.0928 1.2812, 0.116 0.0842 1.3049, 0.1013 0.0736 1.3261, 0.0842 0.0612 1.3441, 0.0651 0.0473 1.3586, 0.0443 0.0322 1.3693, 0.0224 0.0163 1.3758, 0.1501 0.0765 1.2555, 0.1407 0.0717 1.2812, 0.1277 0.0651 1.3049, 0.1116 0.0569 1.3261, 0.0928 0.0473 1.3441, 0.0717 0.0365 1.3586, 0.0488 0.0249 1.3693, 0.0247 0.0126 1.3758, 0.1664 0.0541 1.2285, 0.1602 0.0521 1.2555, 0.1501 0.0488 1.2812, 0.1363 0.0443 1.3049, 0.1191 0.0387 1.3261, 0.099 0.0322 1.3441, 0.0765 0.0249 1.3586, 0.0521 0.0169 1.3693, 0.0264 0.0086 1.3758, 0.1664 0.0264 1.2555, 0.1559 0.0247 1.2812, 0.1416 0.0224 1.3049, 0.1237 0.0196 1.3261, 0.1029 0.0163 1.3441, 0.0794 0.0126 1.3586, 0.0541 0.0086 1.3693, 0.0274 0.0043 1.3758, 0.2913 0.0354 0.8867, 0.2744 0.1041 0.8867, 0.2415 0.1667 0.8867, 0.1946 0.2197 0.8867, 0.1667 0.2415 0.8867, 0.1041 0.2744 0.8867, 0.0354 0.2913 0.8867, -0.0354 0.2913 0.8867, -0.0702 0.285 0.8867, -0.1364 0.2599 0.8867, -0.1946 0.2197 0.8867, -0.2415 0.1667 0.8867, -0.2599 0.1364 0.8867, -0.285 0.0702 0.8867, -0.285 -0.0702 0.8867, -0.2744 -0.1041 0.8867, -0.2415 -0.1667 0.8867, -0.1667 -0.2415 0.8867, -0.1364 -0.2599 0.8867, -0.1041 -0.2744 0.8867, -0.0354 -0.2913 0.8867, 0.0702 -0.285 0.8867, 0.1041 -0.2744 0.8867, 0.1364 -0.2599 0.8867, 0.1946 -0.2197 0.8867, 0.2197 -0.1946 0.8867, 0.2599 -0.1364 0.8867, 0.2744 -0.1041 0.8867, 0.285 -0.0702 0.8867, 0.2935 0.0 0.8867, 0.1977 0.0 0.9825, 0.1919 0.0473 0.9825, 0.175 0.0919 0.9825, 0.148 0.1311 0.9825, 0.1123 0.1627 0.9825, 0.0919 0.175 0.9825, 0.0473 0.1919 0.9825, 0.0 0.1977 0.9825, -0.0473 0.1919 0.9825, -0.0919 0.175 0.9825, -0.1123 0.1627 0.9825, -0.148 0.1311 0.9825, -0.175 0.0919 0.9825, -0.1919 0.0473 0.9825, -0.1962 -0.0238 0.9825, -0.1848 -0.0701 0.9825, -0.1627 -0.1123 0.9825, -0.1311 -0.148 0.9825, -0.1123 -0.1627 0.9825, -0.0701 -0.1848 0.9825, -0.0238 -0.1962 0.9825, 0.0238 -0.1962 0.9825, 0.0701 -0.1848 0.9825, 0.0919 -0.175 0.9825, 0.1311 -0.148 0.9825, 0.1627 -0.1123 0.9825, 0.1848 -0.0701 0.9825, 0.1962 -0.0238 0.9825, 0.0 -0.1977 0.9825, 0.0 -0.2176 0.9771, -0.0262 -0.216 0.9771, 0.0 -0.2362 0.9684, -0.0285 -0.2345 0.9684, 0.0 -0.2531 0.9566, -0.0305 -0.2512 0.9566, 0.0 -0.2676 0.9421, -0.0323 -0.2657 0.9421, 0.0 -0.2795 0.9252, -0.0337 -0.2774 0.9252, 0.0 -0.2882 0.9065, -0.0347 -0.2861 0.9065, 0.0 -0.2935 0.8867, -0.148 -0.1311 0.9825, -0.1628 -0.1443 0.9771, -0.179 -0.1236 0.9771, -0.1768 -0.1566 0.9684, -0.1944 -0.1342 0.9684, -0.1894 -0.1678 0.9566, -0.2083 -0.1438 0.9566, -0.2003 -0.1775 0.9421, -0.2203 -0.152 0.9421, -0.2092 -0.1853 0.9252, -0.23 -0.1587 0.9252, -0.2157 -0.1911 0.9065, -0.2371 -0.1637 0.9065, -0.2197 -0.1946 0.8867, -0.1962 0.0238 0.9825, -0.216 0.0262 0.9771, -0.2112 0.0521 0.9771, -0.2345 0.0285 0.9684, -0.2294 0.0565 0.9684, -0.2512 0.0305 0.9566, -0.2457 0.0606 0.9566, -0.2657 0.0323 0.9421, -0.2599 0.0641 0.9421, -0.2774 0.0337 0.9252, -0.2713 0.0669 0.9252, -0.2861 0.0347 0.9065, -0.2798 0.069 0.9065, -0.2913 0.0354 0.8867, -0.1236 0.179 0.9771, -0.1011 0.1926 0.9771, -0.1342 0.1944 0.9684, -0.1098 0.2092 0.9684, -0.1438 0.2083 0.9566, -0.1176 0.2241 0.9566, -0.152 0.2203 0.9421, -0.1244 0.237 0.9421, -0.1587 0.23 0.9252, -0.1299 0.2474 0.9252, -0.1637 0.2371 0.9065, -0.1339 0.2551 0.9065, -0.1667 0.2415 0.8867, 0.0701 0.1848 0.9825, 0.0521 0.2112 0.9771, 0.0771 0.2034 0.9771, 0.0565 0.2294 0.9684, 0.0838 0.2209 0.9684, 0.0606 0.2457 0.9566, 0.0897 0.2366 0.9566, 0.0641 0.2599 0.9421, 0.0949 0.2503 0.9421, 0.0669 0.2713 0.9252, 0.0991 0.2613 0.9252, 0.069 0.2798 0.9065, 0.1022 0.2694 0.9065, 0.0702 0.285 0.8867, 0.1848 0.0701 0.9825, 0.1926 0.1011 0.9771, 0.2034 0.0771 0.9771, 0.2092 0.1098 0.9684, 0.2209 0.0838 0.9684, 0.2241 0.1176 0.9566, 0.2366 0.0897 0.9566, 0.237 0.1244 0.9421, 0.2503 0.0949 0.9421, 0.2474 0.1299 0.9252, 0.2613 0.0991 0.9252, 0.2551 0.1339 0.9065, 0.2694 0.1022 0.9065, 0.2599 0.1364 0.8867, 0.2913 -0.0354 0.8867, 0.2861 -0.0347 0.9065, 0.2882 0.0 0.9065, 0.2774 -0.0337 0.9252, 0.2795 0.0 0.9252, 0.2657 -0.0323 0.9421, 0.2676 0.0 0.9421, 0.2512 -0.0305 0.9566, 0.2531 0.0 0.9566, 0.2345 -0.0285 0.9684, 0.2362 0.0 0.9684, 0.216 -0.0262 0.9771, 0.2176 0.0 0.9771, 0.1919 -0.0473 0.9825, 0.2112 -0.0521 0.9771, 0.2294 -0.0565 0.9684, 0.2457 -0.0606 0.9566, 0.2599 -0.0641 0.9421, 0.2713 -0.0669 0.9252, 0.2798 -0.069 0.9065, 0.2694 -0.1022 0.9065, 0.2613 -0.0991 0.9252, 0.2503 -0.0949 0.9421, 0.2366 -0.0897 0.9566, 0.2209 -0.0838 0.9684, 0.2034 -0.0771 0.9771, 0.2551 -0.1339 0.9065, 0.2474 -0.1299 0.9252, 0.237 -0.1244 0.9421, 0.2241 -0.1176 0.9566, 0.2092 -0.1098 0.9684, 0.1926 -0.1011 0.9771, 0.175 -0.0919 0.9825, 0.2415 -0.1667 0.8867, 0.2371 -0.1637 0.9065, 0.23 -0.1587 0.9252, 0.2203 -0.152 0.9421, 0.2083 -0.1438 0.9566, 0.1944 -0.1342 0.9684, 0.179 -0.1236 0.9771, 0.148 -0.1311 0.9825, 0.1628 -0.1443 0.9771, 0.1768 -0.1566 0.9684, 0.1894 -0.1678 0.9566, 0.2003 -0.1775 0.9421, 0.2092 -0.1853 0.9252, 0.2157 -0.1911 0.9065, 0.1911 -0.2157 0.9065, 0.1853 -0.2092 0.9252, 0.1775 -0.2003 0.9421, 0.1678 -0.1894 0.9566, 0.1566 -0.1768 0.9684, 0.1443 -0.1628 0.9771, 0.1667 -0.2415 0.8867, 0.1637 -0.2371 0.9065, 0.1587 -0.23 0.9252, 0.152 -0.2203 0.9421, 0.1438 -0.2083 0.9566, 0.1342 -0.1944 0.9684, 0.1236 -0.179 0.9771, 0.1123 -0.1627 0.9825, 0.1011 -0.1926 0.9771, 0.1098 -0.2092 0.9684, 0.1176 -0.2241 0.9566, 0.1244 -0.237 0.9421, 0.1299 -0.2474 0.9252, 0.1339 -0.2551 0.9065, 0.1022 -0.2694 0.9065, 0.0991 -0.2613 0.9252, 0.0949 -0.2503 0.9421, 0.0897 -0.2366 0.9566, 0.0838 -0.2209 0.9684, 0.0771 -0.2034 0.9771, 0.069 -0.2798 0.9065, 0.0669 -0.2713 0.9252, 0.0641 -0.2599 0.9421, 0.0606 -0.2457 0.9566, 0.0565 -0.2294 0.9684, 0.0521 -0.2112 0.9771, 0.0473 -0.1919 0.9825, 0.0354 -0.2913 0.8867, 0.0347 -0.2861 0.9065, 0.0337 -0.2774 0.9252, 0.0323 -0.2657 0.9421, 0.0305 -0.2512 0.9566, 0.0285 -0.2345 0.9684, 0.0262 -0.216 0.9771, -0.0702 -0.285 0.8867, -0.069 -0.2798 0.9065, -0.0669 -0.2713 0.9252, -0.0641 -0.2599 0.9421, -0.0606 -0.2457 0.9566, -0.0565 -0.2294 0.9684, -0.0521 -0.2112 0.9771, -0.0473 -0.1919 0.9825, -0.0771 -0.2034 0.9771, -0.0838 -0.2209 0.9684, -0.0897 -0.2366 0.9566, -0.0949 -0.2503 0.9421, -0.0991 -0.2613 0.9252, -0.1022 -0.2694 0.9065, -0.1339 -0.2551 0.9065, -0.1299 -0.2474 0.9252, -0.1244 -0.237 0.9421, -0.1176 -0.2241 0.9566, -0.1098 -0.2092 0.9684, -0.1011 -0.1926 0.9771, -0.0919 -0.175 0.9825, -0.1637 -0.2371 0.9065, -0.1587 -0.23 0.9252, -0.152 -0.2203 0.9421, -0.1438 -0.2083 0.9566, -0.1342 -0.1944 0.9684, -0.1236 -0.179 0.9771, -0.1946 -0.2197 0.8867, -0.1911 -0.2157 0.9065, -0.1853 -0.2092 0.9252, -0.1775 -0.2003 0.9421, -0.1678 -0.1894 0.9566, -0.1566 -0.1768 0.9684, -0.1443 -0.1628 0.9771, -0.2599 -0.1364 0.8867, -0.2551 -0.1339 0.9065, -0.2474 -0.1299 0.9252, -0.237 -0.1244 0.9421, -0.2241 -0.1176 0.9566, -0.2092 -0.1098 0.9684, -0.1926 -0.1011 0.9771, -0.175 -0.0919 0.9825, -0.2034 -0.0771 0.9771, -0.2209 -0.0838 0.9684, -0.2366 -0.0897 0.9566, -0.2503 -0.0949 0.9421, -0.2613 -0.0991 0.9252, -0.2694 -0.1022 0.9065, -0.2798 -0.069 0.9065, -0.2713 -0.0669 0.9252, -0.2599 -0.0641 0.9421, -0.2457 -0.0606 0.9566, -0.2294 -0.0565 0.9684, -0.2112 -0.0521 0.9771, -0.1919 -0.0473 0.9825, -0.2913 -0.0354 0.8867, -0.2861 -0.0347 0.9065, -0.2774 -0.0337 0.9252, -0.2657 -0.0323 0.9421, -0.2512 -0.0305 0.9566, -0.2345 -0.0285 0.9684, -0.216 -0.0262 0.9771, -0.1977 0.0 0.9825, -0.2176 0.0 0.9771, -0.2362 0.0 0.9684, -0.2531 0.0 0.9566, -0.2676 0.0 0.9421, -0.2795 0.0 0.9252, -0.2882 0.0 0.9065, -0.2935 0.0 0.8867, -0.2744 0.1041 0.8867, -0.2694 0.1022 0.9065, -0.2613 0.0991 0.9252, -0.2503 0.0949 0.9421, -0.2366 0.0897 0.9566, -0.2209 0.0838 0.9684, -0.2034 0.0771 0.9771, -0.1848 0.0701 0.9825, -0.1926 0.1011 0.9771, -0.2092 0.1098 0.9684, -0.2241 0.1176 0.9566, -0.237 0.1244 0.9421, -0.2474 0.1299 0.9252, -0.2551 0.1339 0.9065, -0.2371 0.1637 0.9065, -0.23 0.1587 0.9252, -0.2203 0.152 0.9421, -0.2083 0.1438 0.9566, -0.1944 0.1342 0.9684, -0.179 0.1236 0.9771, -0.1627 0.1123 0.9825, -0.2197 0.1946 0.8867, -0.2157 0.1911 0.9065, -0.2092 0.1853 0.9252, -0.2003 0.1775 0.9421, -0.1894 0.1678 0.9566, -0.1768 0.1566 0.9684, -0.1628 0.1443 0.9771, -0.1311 0.148 0.9825, -0.1443 0.1628 0.9771, -0.1566 0.1768 0.9684, -0.1678 0.1894 0.9566, -0.1775 0.2003 0.9421, -0.1853 0.2092 0.9252, -0.1911 0.2157 0.9065, -0.1041 0.2744 0.8867, -0.1022 0.2694 0.9065, -0.0991 0.2613 0.9252, -0.0949 0.2503 0.9421, -0.0897 0.2366 0.9566, -0.0838 0.2209 0.9684, -0.0771 0.2034 0.9771, -0.0701 0.1848 0.9825, -0.0521 0.2112 0.9771, -0.0565 0.2294 0.9684, -0.0606 0.2457 0.9566, -0.0641 0.2599 0.9421, -0.0669 0.2713 0.9252, -0.069 0.2798 0.9065, -0.0347 0.2861 0.9065, -0.0337 0.2774 0.9252, -0.0323 0.2657 0.9421, -0.0305 0.2512 0.9566, -0.0285 0.2345 0.9684, -0.0262 0.216 0.9771, -0.0238 0.1962 0.9825, 0.0 0.2935 0.8867, 0.0 0.2882 0.9065, 0.0 0.2795 0.9252, 0.0 0.2676 0.9421, 0.0 0.2531 0.9566, 0.0 0.2362 0.9684, 0.0 0.2176 0.9771, 0.0238 0.1962 0.9825, 0.0262 0.216 0.9771, 0.0285 0.2345 0.9684, 0.0305 0.2512 0.9566, 0.0323 0.2657 0.9421, 0.0337 0.2774 0.9252, 0.0347 0.2861 0.9065, 0.1364 0.2599 0.8867, 0.1339 0.2551 0.9065, 0.1299 0.2474 0.9252, 0.1244 0.237 0.9421, 0.1176 0.2241 0.9566, 0.1098 0.2092 0.9684, 0.1011 0.1926 0.9771, 0.1236 0.179 0.9771, 0.1342 0.1944 0.9684, 0.1438 0.2083 0.9566, 0.152 0.2203 0.9421, 0.1587 0.23 0.9252, 0.1637 0.2371 0.9065, 0.1911 0.2157 0.9065, 0.1853 0.2092 0.9252, 0.1775 0.2003 0.9421, 0.1678 0.1894 0.9566, 0.1566 0.1768 0.9684, 0.1443 0.1628 0.9771, 0.1311 0.148 0.9825, 0.2197 0.1946 0.8867, 0.2157 0.1911 0.9065, 0.2092 0.1853 0.9252, 0.2003 0.1775 0.9421, 0.1894 0.1678 0.9566, 0.1768 0.1566 0.9684, 0.1628 0.1443 0.9771, 0.1627 0.1123 0.9825, 0.179 0.1236 0.9771, 0.1944 0.1342 0.9684, 0.2083 0.1438 0.9566, 0.2203 0.152 0.9421, 0.23 0.1587 0.9252, 0.2371 0.1637 0.9065, 0.285 0.0702 0.8867, 0.2798 0.069 0.9065, 0.2713 0.0669 0.9252, 0.2599 0.0641 0.9421, 0.2457 0.0606 0.9566, 0.2294 0.0565 0.9684, 0.2112 0.0521 0.9771, 0.1962 0.0238 0.9825, 0.216 0.0262 0.9771, 0.2345 0.0285 0.9684, 0.2512 0.0305 0.9566, 0.2657 0.0323 0.9421, 0.2774 0.0337 0.9252, 0.2861 0.0347 0.9065
            ]
        }
        coordIndex [
            0,1,2,-1,2,1,3,-1,2,3,4,-1,5,6,7,-1,8,4,9,-1,9,4,10,-1,8,11,4,-1,4,11,12,-1,4,12,2,-1,13,14,15,-1,15,14,1,-1,15,1,16,-1,17,18,19,-1,19,18,20,-1,19,20,21,-1,7,16,5,-1,5,16,1,-1,5,1,22,-1,22,1,0,-1,22,0,10,-1,23,24,25,-1,25,24,26,-1,25,26,27,-1,28,29,25,-1,25,29,30,-1,31,32,33,-1,33,32,34,-1,30,35,25,-1,25,35,34,-1,25,34,36,-1,36,34,32,-1,17,37,38,-1,39,40,41,-1,41,40,0,-1,39,42,40,-1,40,42,43,-1,40,43,44,-1,27,45,25,-1,25,45,46,-1,25,46,28,-1,44,47,40,-1,40,47,48,-1,40,48,49,-1,49,48,50,-1,49,50,17,-1,17,50,51,-1,17,51,37,-1,52,53,40,-1,40,53,54,-1,40,54,0,-1,21,55,19,-1,19,55,56,-1,19,56,57,-1,57,56,58,-1,57,58,59,-1,58,60,59,-1,59,60,61,-1,59,61,40,-1,40,61,62,-1,40,62,52,-1,54,63,0,-1,0,63,64,-1,0,64,65,-1,65,66,0,-1,0,66,67,-1,0,67,10,-1,10,67,68,-1,10,68,9,-1,9,68,69,-1,9,69,25,-1,25,69,70,-1,25,70,23,-1,71,72,2,-1,73,74,75,-1,76,77,78,-1,75,79,73,-1,73,79,80,-1,73,80,81,-1,82,83,2,-1,2,83,84,-1,2,84,0,-1,0,84,85,-1,0,85,86,-1,87,88,76,-1,88,89,76,-1,76,89,90,-1,76,90,91,-1,78,92,76,-1,76,92,93,-1,76,93,94,-1,86,87,0,-1,0,87,76,-1,0,76,95,-1,95,76,94,-1,77,96,97,-1,81,82,73,-1,73,82,2,-1,73,2,98,-1,98,2,72,-1,98,72,99,-1,99,72,100,-1,91,101,76,-1,76,101,102,-1,76,102,73,-1,73,102,103,-1,73,103,74,-1,97,104,77,-1,77,104,105,-1,77,105,78,-1,106,107,2,-1,2,107,108,-1,108,109,2,-1,2,109,110,-1,2,110,111,-1,111,112,2,-1,2,112,113,-1,2,113,114,-1,114,115,2,-1,2,115,116,-1,2,116,71,-1,71,116,117,-1,71,117,77,-1,77,117,118,-1,77,118,96,-1,106,2,119,-1,119,2,12,-1,119,12,120,-1,120,12,121,-1,120,121,122,-1,38,123,17,-1,17,123,124,-1,17,124,18,-1,18,124,125,-1,125,126,18,-1,18,126,127,-1,18,127,128,-1,128,129,18,-1,18,129,130,-1,18,130,131,-1,121,132,122,-1,122,132,18,-1,122,18,133,-1,133,18,131,-1,134,135,136,-1,136,137,134,-1,134,137,138,-1,134,138,139,-1,138,140,139,-1,139,140,141,-1,139,141,142,-1,141,143,142,-1,142,143,144,-1,142,144,145,-1,144,146,145,-1,145,146,147,-1,145,147,148,-1,147,149,148,-1,148,149,150,-1,148,150,151,-1,150,152,151,-1,151,152,153,-1,151,153,154,-1,153,155,154,-1,154,155,156,-1,154,156,157,-1,156,158,157,-1,157,158,159,-1,157,159,160,-1,159,161,160,-1,160,161,162,-1,160,162,163,-1,162,164,163,-1,163,164,165,-1,163,165,166,-1,165,167,166,-1,166,167,168,-1,166,168,169,-1,168,170,169,-1,169,170,171,-1,169,171,172,-1,171,173,172,-1,172,173,174,-1,172,174,175,-1,174,176,175,-1,175,176,177,-1,175,177,178,-1,177,179,178,-1,178,179,180,-1,178,180,181,-1,180,182,181,-1,181,182,183,-1,181,183,184,-1,183,185,184,-1,184,185,186,-1,184,186,187,-1,186,188,187,-1,187,188,189,-1,187,189,190,-1,189,191,190,-1,190,191,192,-1,190,192,193,-1,192,194,193,-1,193,194,195,-1,193,195,196,-1,196,195,197,-1,196,197,198,-1,198,197,199,-1,198,199,200,-1,199,201,200,-1,200,201,202,-1,200,202,203,-1,202,204,203,-1,203,204,205,-1,203,205,206,-1,205,207,206,-1,206,207,208,-1,206,208,209,-1,208,210,209,-1,209,210,211,-1,209,211,212,-1,211,213,212,-1,212,213,214,-1,212,214,215,-1,214,216,215,-1,215,216,217,-1,215,217,218,-1,217,219,218,-1,218,219,220,-1,218,220,221,-1,220,222,221,-1,221,222,223,-1,221,223,224,-1,223,225,224,-1,224,225,226,-1,224,226,227,-1,226,228,227,-1,227,228,229,-1,227,229,230,-1,229,231,230,-1,230,231,232,-1,230,232,233,-1,232,234,233,-1,233,234,235,-1,233,235,236,-1,235,237,236,-1,236,237,238,-1,236,238,239,-1,238,240,239,-1,239,240,241,-1,239,241,242,-1,241,243,242,-1,242,243,244,-1,242,244,245,-1,244,246,245,-1,245,246,247,-1,245,247,248,-1,247,249,248,-1,248,249,250,-1,248,250,251,-1,250,252,251,-1,251,252,253,-1,251,253,254,-1,253,255,254,-1,254,255,256,-1,254,256,257,-1,256,258,257,-1,257,258,259,-1,257,259,260,-1,259,261,260,-1,260,261,262,-1,260,262,135,-1,135,262,263,-1,135,263,136,-1,264,145,265,-1,265,145,148,-1,265,148,266,-1,266,148,151,-1,266,151,267,-1,267,151,154,-1,267,154,268,-1,268,154,157,-1,268,157,269,-1,269,157,160,-1,269,160,270,-1,160,163,270,-1,270,163,166,-1,270,166,271,-1,271,166,169,-1,271,169,272,-1,272,169,172,-1,272,172,273,-1,273,172,175,-1,273,175,274,-1,274,175,178,-1,274,178,275,-1,275,178,181,-1,275,181,276,-1,277,209,278,-1,278,209,212,-1,278,212,279,-1,279,212,215,-1,279,215,280,-1,280,215,218,-1,280,218,281,-1,281,218,221,-1,281,221,282,-1,282,221,224,-1,282,224,283,-1,181,184,276,-1,276,184,187,-1,276,187,284,-1,284,187,190,-1,284,190,285,-1,285,190,193,-1,285,193,286,-1,286,193,196,-1,286,196,287,-1,287,196,198,-1,287,198,288,-1,288,198,200,-1,288,200,289,-1,289,200,203,-1,289,203,277,-1,277,203,206,-1,277,206,209,-1,290,251,291,-1,291,251,254,-1,291,254,292,-1,292,254,257,-1,292,257,293,-1,293,257,260,-1,293,260,294,-1,294,260,135,-1,294,135,295,-1,295,135,134,-1,295,134,296,-1,296,134,139,-1,296,139,264,-1,264,139,142,-1,264,142,145,-1,224,227,283,-1,283,227,230,-1,283,230,297,-1,297,230,233,-1,297,233,298,-1,298,233,236,-1,298,236,299,-1,299,236,239,-1,299,239,300,-1,300,239,242,-1,300,242,301,-1,301,242,245,-1,301,245,290,-1,290,245,248,-1,290,248,251,-1,295,302,303,-1,295,303,294,-1,302,295,304,-1,304,295,296,-1,304,296,305,-1,305,296,306,-1,306,296,264,-1,306,264,307,-1,265,308,264,-1,264,308,309,-1,264,309,307,-1,310,311,265,-1,265,311,312,-1,265,312,308,-1,310,265,313,-1,313,265,266,-1,313,266,314,-1,314,266,267,-1,314,267,315,-1,315,267,316,-1,316,267,268,-1,316,268,317,-1,317,268,318,-1,318,268,269,-1,318,269,319,-1,270,320,269,-1,269,320,321,-1,269,321,319,-1,322,323,270,-1,270,323,324,-1,270,324,320,-1,322,270,325,-1,325,270,271,-1,325,271,326,-1,326,271,272,-1,326,272,327,-1,327,272,328,-1,328,272,273,-1,328,273,329,-1,329,273,330,-1,330,273,274,-1,330,274,331,-1,332,333,275,-1,275,333,334,-1,275,334,274,-1,274,334,335,-1,274,335,331,-1,284,336,276,-1,276,336,337,-1,276,337,275,-1,275,337,338,-1,275,338,332,-1,285,339,284,-1,284,339,340,-1,284,340,336,-1,341,342,286,-1,286,342,343,-1,286,343,285,-1,285,343,344,-1,285,344,339,-1,341,286,345,-1,345,286,287,-1,345,287,346,-1,346,287,288,-1,346,288,347,-1,347,288,289,-1,347,289,348,-1,277,349,289,-1,289,349,350,-1,289,350,348,-1,278,351,277,-1,277,351,352,-1,277,352,349,-1,353,354,279,-1,279,354,355,-1,279,355,278,-1,278,355,356,-1,278,356,351,-1,353,279,357,-1,357,279,280,-1,357,280,358,-1,358,280,359,-1,359,280,281,-1,359,281,360,-1,282,361,281,-1,281,361,362,-1,281,362,360,-1,283,363,282,-1,282,363,364,-1,282,364,361,-1,365,366,297,-1,297,366,367,-1,297,367,283,-1,283,367,368,-1,283,368,363,-1,365,297,369,-1,369,297,298,-1,369,298,370,-1,370,298,371,-1,371,298,299,-1,371,299,372,-1,300,373,299,-1,299,373,374,-1,299,374,372,-1,301,375,300,-1,300,375,376,-1,300,376,373,-1,377,378,290,-1,290,378,379,-1,290,379,301,-1,301,379,380,-1,301,380,375,-1,377,290,381,-1,381,290,291,-1,381,291,382,-1,382,291,383,-1,383,291,292,-1,383,292,384,-1,293,385,292,-1,292,385,386,-1,292,386,384,-1,303,387,294,-1,294,387,388,-1,294,388,293,-1,293,388,389,-1,293,389,385,-1,390,391,392,-1,392,391,393,-1,392,393,394,-1,394,393,395,-1,394,395,396,-1,395,397,396,-1,396,397,398,-1,396,398,399,-1,399,398,400,-1,399,400,401,-1,401,400,402,-1,401,402,403,-1,403,402,404,-1,403,404,405,-1,405,404,406,-1,405,406,407,-1,407,406,408,-1,407,408,409,-1,409,408,410,-1,409,410,411,-1,412,413,414,-1,414,413,415,-1,414,415,416,-1,410,417,411,-1,411,417,418,-1,411,418,419,-1,419,418,420,-1,419,420,421,-1,421,420,422,-1,421,422,423,-1,423,422,424,-1,423,424,425,-1,425,424,412,-1,425,412,426,-1,426,412,414,-1,415,427,416,-1,416,427,428,-1,416,428,429,-1,429,428,430,-1,429,430,431,-1,431,430,432,-1,431,432,433,-1,433,432,434,-1,433,434,435,-1,435,434,436,-1,435,436,437,-1,436,438,437,-1,437,438,439,-1,437,439,440,-1,440,439,441,-1,440,441,442,-1,442,441,443,-1,442,443,444,-1,444,443,445,-1,444,445,446,-1,446,445,447,-1,446,447,448,-1,447,449,448,-1,448,449,450,-1,448,450,451,-1,451,450,452,-1,451,452,453,-1,453,452,454,-1,453,454,455,-1,455,454,456,-1,455,456,457,-1,457,456,458,-1,457,458,459,-1,459,458,460,-1,459,460,461,-1,461,460,462,-1,461,462,463,-1,462,464,463,-1,463,464,465,-1,463,465,466,-1,466,465,467,-1,466,467,468,-1,468,467,469,-1,468,469,470,-1,470,469,471,-1,470,471,472,-1,472,471,473,-1,472,473,474,-1,473,475,474,-1,474,475,476,-1,474,476,477,-1,477,476,478,-1,477,478,479,-1,479,478,480,-1,479,480,481,-1,481,480,482,-1,481,482,483,-1,483,482,484,-1,483,484,485,-1,485,484,486,-1,485,486,487,-1,487,486,488,-1,487,488,489,-1,488,490,489,-1,489,490,491,-1,489,491,492,-1,492,491,493,-1,492,493,494,-1,494,493,495,-1,494,495,496,-1,496,495,497,-1,496,497,498,-1,498,497,499,-1,498,499,500,-1,499,501,500,-1,500,501,502,-1,500,502,503,-1,503,502,504,-1,503,504,505,-1,505,504,506,-1,505,506,507,-1,507,506,508,-1,507,508,509,-1,509,508,510,-1,509,510,511,-1,511,510,512,-1,511,512,513,-1,513,512,514,-1,513,514,515,-1,514,516,515,-1,515,516,517,-1,515,517,518,-1,518,517,519,-1,518,519,520,-1,520,519,521,-1,520,521,522,-1,522,521,523,-1,522,523,524,-1,524,523,525,-1,524,525,526,-1,525,527,526,-1,526,527,528,-1,526,528,529,-1,529,528,530,-1,529,530,531,-1,531,530,532,-1,531,532,533,-1,533,532,534,-1,533,534,535,-1,535,534,536,-1,535,536,390,-1,390,536,537,-1,390,537,391,-1,461,463,538,-1,468,470,539,-1,472,474,540,-1,477,479,541,-1,483,485,542,-1,487,489,543,-1,492,494,544,-1,498,500,545,-1,503,505,546,-1,509,511,547,-1,513,515,548,-1,518,520,549,-1,524,526,550,-1,529,531,551,-1,390,392,552,-1,394,396,553,-1,401,403,554,-1,405,407,555,-1,409,411,556,-1,421,423,557,-1,425,426,558,-1,416,429,559,-1,431,433,560,-1,435,437,561,-1,442,444,562,-1,446,448,563,-1,564,565,566,-1,566,565,567,-1,568,567,565,-1,568,565,569,-1,569,565,564,-1,569,564,570,-1,571,567,568,-1,571,568,572,-1,572,568,569,-1,572,569,573,-1,573,569,570,-1,573,570,574,-1,575,567,571,-1,575,571,576,-1,576,571,572,-1,576,572,577,-1,577,572,573,-1,577,573,578,-1,578,573,574,-1,578,574,579,-1,580,567,575,-1,580,575,581,-1,581,575,576,-1,581,576,582,-1,582,576,577,-1,582,577,583,-1,583,577,578,-1,583,578,584,-1,584,578,579,-1,584,579,585,-1,586,567,580,-1,586,580,587,-1,587,580,581,-1,587,581,588,-1,588,581,582,-1,588,582,589,-1,589,582,583,-1,589,583,590,-1,590,583,584,-1,590,584,591,-1,591,584,585,-1,591,585,592,-1,593,567,586,-1,593,586,594,-1,594,586,587,-1,594,587,595,-1,595,587,588,-1,595,588,596,-1,596,588,589,-1,596,589,597,-1,597,589,590,-1,597,590,598,-1,598,590,591,-1,598,591,599,-1,599,591,592,-1,599,592,600,-1,601,602,603,-1,604,602,605,-1,605,602,601,-1,605,601,606,-1,451,453,604,-1,604,453,455,-1,604,455,602,-1,602,455,457,-1,602,457,603,-1,603,457,459,-1,448,451,563,-1,563,451,604,-1,563,604,607,-1,607,604,605,-1,607,605,608,-1,608,605,606,-1,608,606,609,-1,444,446,562,-1,562,446,563,-1,562,563,610,-1,610,563,607,-1,610,607,611,-1,611,607,608,-1,611,608,612,-1,612,608,609,-1,612,609,613,-1,440,442,614,-1,614,442,562,-1,614,562,615,-1,615,562,610,-1,615,610,616,-1,616,610,611,-1,616,611,617,-1,617,611,612,-1,617,612,618,-1,618,612,613,-1,618,613,619,-1,437,440,561,-1,561,440,614,-1,561,614,620,-1,620,614,615,-1,620,615,621,-1,621,615,616,-1,621,616,622,-1,622,616,617,-1,622,617,623,-1,623,617,618,-1,623,618,624,-1,624,618,619,-1,624,619,625,-1,433,435,560,-1,560,435,561,-1,560,561,626,-1,626,561,620,-1,626,620,627,-1,627,620,621,-1,627,621,628,-1,628,621,622,-1,628,622,629,-1,629,622,623,-1,629,623,630,-1,630,623,624,-1,630,624,631,-1,631,624,625,-1,631,625,632,-1,429,431,559,-1,559,431,560,-1,559,560,633,-1,633,560,626,-1,633,626,634,-1,634,626,627,-1,634,627,635,-1,635,627,628,-1,635,628,636,-1,636,628,629,-1,636,629,637,-1,637,629,630,-1,637,630,638,-1,638,630,631,-1,638,631,639,-1,639,631,632,-1,639,632,640,-1,414,416,641,-1,641,416,559,-1,641,559,642,-1,642,559,633,-1,642,633,643,-1,643,633,634,-1,643,634,644,-1,644,634,635,-1,644,635,645,-1,645,635,636,-1,645,636,646,-1,646,636,637,-1,646,637,647,-1,647,637,638,-1,647,638,648,-1,648,638,639,-1,648,639,649,-1,649,639,640,-1,426,414,558,-1,558,414,641,-1,558,641,650,-1,650,641,642,-1,650,642,651,-1,651,642,643,-1,651,643,652,-1,652,643,644,-1,652,644,653,-1,653,644,645,-1,653,645,654,-1,654,645,646,-1,654,646,655,-1,655,646,647,-1,655,647,656,-1,656,647,648,-1,656,648,657,-1,657,648,649,-1,657,649,567,-1,640,567,649,-1,603,600,601,-1,601,600,592,-1,601,592,606,-1,606,592,585,-1,606,585,609,-1,609,585,579,-1,609,579,613,-1,613,579,574,-1,613,574,619,-1,619,574,570,-1,619,570,625,-1,625,570,564,-1,625,564,632,-1,632,564,566,-1,632,566,640,-1,640,566,567,-1,423,425,557,-1,557,425,558,-1,557,558,658,-1,658,558,650,-1,658,650,659,-1,659,650,651,-1,659,651,660,-1,660,651,652,-1,660,652,661,-1,661,652,653,-1,661,653,662,-1,662,653,654,-1,662,654,663,-1,663,654,655,-1,663,655,664,-1,664,655,656,-1,664,656,665,-1,665,656,657,-1,665,657,567,-1,419,421,666,-1,666,421,557,-1,666,557,667,-1,667,557,658,-1,667,658,668,-1,668,658,659,-1,668,659,669,-1,669,659,660,-1,669,660,670,-1,670,660,661,-1,670,661,671,-1,671,661,662,-1,671,662,672,-1,672,662,663,-1,672,663,673,-1,673,663,664,-1,673,664,674,-1,674,664,665,-1,674,665,567,-1,411,419,556,-1,556,419,666,-1,556,666,675,-1,675,666,667,-1,675,667,676,-1,676,667,668,-1,676,668,677,-1,677,668,669,-1,677,669,678,-1,678,669,670,-1,678,670,679,-1,679,670,671,-1,679,671,680,-1,680,671,672,-1,680,672,681,-1,681,672,673,-1,681,673,682,-1,682,673,674,-1,682,674,567,-1,407,409,555,-1,555,409,556,-1,555,556,683,-1,683,556,675,-1,683,675,684,-1,684,675,676,-1,684,676,685,-1,685,676,677,-1,685,677,686,-1,686,677,678,-1,686,678,687,-1,687,678,679,-1,687,679,688,-1,688,679,680,-1,688,680,689,-1,689,680,681,-1,689,681,690,-1,690,681,682,-1,690,682,567,-1,403,405,554,-1,554,405,555,-1,554,555,691,-1,691,555,683,-1,691,683,692,-1,692,683,684,-1,692,684,693,-1,693,684,685,-1,693,685,694,-1,694,685,686,-1,694,686,695,-1,695,686,687,-1,695,687,696,-1,696,687,688,-1,696,688,697,-1,697,688,689,-1,697,689,698,-1,698,689,690,-1,698,690,567,-1,399,401,699,-1,699,401,554,-1,699,554,700,-1,700,554,691,-1,700,691,701,-1,701,691,692,-1,701,692,702,-1,702,692,693,-1,702,693,703,-1,703,693,694,-1,703,694,704,-1,704,694,695,-1,704,695,705,-1,705,695,696,-1,705,696,706,-1,706,696,697,-1,706,697,707,-1,707,697,698,-1,707,698,567,-1,396,399,553,-1,553,399,699,-1,553,699,708,-1,708,699,700,-1,708,700,709,-1,709,700,701,-1,709,701,710,-1,710,701,702,-1,710,702,711,-1,711,702,703,-1,711,703,712,-1,712,703,704,-1,712,704,713,-1,713,704,705,-1,713,705,714,-1,714,705,706,-1,714,706,715,-1,715,706,707,-1,715,707,567,-1,392,394,552,-1,552,394,553,-1,552,553,716,-1,716,553,708,-1,716,708,717,-1,717,708,709,-1,717,709,718,-1,718,709,710,-1,718,710,719,-1,719,710,711,-1,719,711,720,-1,720,711,712,-1,720,712,721,-1,721,712,713,-1,721,713,722,-1,722,713,714,-1,722,714,723,-1,723,714,715,-1,723,715,567,-1,535,390,724,-1,724,390,552,-1,724,552,725,-1,725,552,716,-1,725,716,726,-1,726,716,717,-1,726,717,727,-1,727,717,718,-1,727,718,728,-1,728,718,719,-1,728,719,729,-1,729,719,720,-1,729,720,730,-1,730,720,721,-1,730,721,731,-1,731,721,722,-1,731,722,732,-1,732,722,723,-1,732,723,567,-1,533,535,733,-1,733,535,724,-1,733,724,734,-1,734,724,725,-1,734,725,735,-1,735,725,726,-1,735,726,736,-1,736,726,727,-1,736,727,737,-1,737,727,728,-1,737,728,738,-1,738,728,729,-1,738,729,739,-1,739,729,730,-1,739,730,740,-1,740,730,731,-1,740,731,741,-1,741,731,732,-1,741,732,567,-1,531,533,551,-1,551,533,733,-1,551,733,742,-1,742,733,734,-1,742,734,743,-1,743,734,735,-1,743,735,744,-1,744,735,736,-1,744,736,745,-1,745,736,737,-1,745,737,746,-1,746,737,738,-1,746,738,747,-1,747,738,739,-1,747,739,748,-1,748,739,740,-1,748,740,749,-1,749,740,741,-1,749,741,567,-1,526,529,550,-1,550,529,551,-1,550,551,750,-1,750,551,742,-1,750,742,751,-1,751,742,743,-1,751,743,752,-1,752,743,744,-1,752,744,753,-1,753,744,745,-1,753,745,754,-1,754,745,746,-1,754,746,755,-1,755,746,747,-1,755,747,756,-1,756,747,748,-1,756,748,757,-1,757,748,749,-1,757,749,567,-1,522,524,758,-1,758,524,550,-1,758,550,759,-1,759,550,750,-1,759,750,760,-1,760,750,751,-1,760,751,761,-1,761,751,752,-1,761,752,762,-1,762,752,753,-1,762,753,763,-1,763,753,754,-1,763,754,764,-1,764,754,755,-1,764,755,765,-1,765,755,756,-1,765,756,766,-1,766,756,757,-1,766,757,567,-1,520,522,549,-1,549,522,758,-1,549,758,767,-1,767,758,759,-1,767,759,768,-1,768,759,760,-1,768,760,769,-1,769,760,761,-1,769,761,770,-1,770,761,762,-1,770,762,771,-1,771,762,763,-1,771,763,772,-1,772,763,764,-1,772,764,773,-1,773,764,765,-1,773,765,774,-1,774,765,766,-1,774,766,567,-1,515,518,548,-1,548,518,549,-1,548,549,775,-1,775,549,767,-1,775,767,776,-1,776,767,768,-1,776,768,777,-1,777,768,769,-1,777,769,778,-1,778,769,770,-1,778,770,779,-1,779,770,771,-1,779,771,780,-1,780,771,772,-1,780,772,781,-1,781,772,773,-1,781,773,782,-1,782,773,774,-1,782,774,567,-1,511,513,547,-1,547,513,548,-1,547,548,783,-1,783,548,775,-1,783,775,784,-1,784,775,776,-1,784,776,785,-1,785,776,777,-1,785,777,786,-1,786,777,778,-1,786,778,787,-1,787,778,779,-1,787,779,788,-1,788,779,780,-1,788,780,789,-1,789,780,781,-1,789,781,790,-1,790,781,782,-1,790,782,567,-1,507,509,791,-1,791,509,547,-1,791,547,792,-1,792,547,783,-1,792,783,793,-1,793,783,784,-1,793,784,794,-1,794,784,785,-1,794,785,795,-1,795,785,786,-1,795,786,796,-1,796,786,787,-1,796,787,797,-1,797,787,788,-1,797,788,798,-1,798,788,789,-1,798,789,799,-1,799,789,790,-1,799,790,567,-1,505,507,546,-1,546,507,791,-1,546,791,800,-1,800,791,792,-1,800,792,801,-1,801,792,793,-1,801,793,802,-1,802,793,794,-1,802,794,803,-1,803,794,795,-1,803,795,804,-1,804,795,796,-1,804,796,805,-1,805,796,797,-1,805,797,806,-1,806,797,798,-1,806,798,807,-1,807,798,799,-1,807,799,567,-1,500,503,545,-1,545,503,546,-1,545,546,808,-1,808,546,800,-1,808,800,809,-1,809,800,801,-1,809,801,810,-1,810,801,802,-1,810,802,811,-1,811,802,803,-1,811,803,812,-1,812,803,804,-1,812,804,813,-1,813,804,805,-1,813,805,814,-1,814,805,806,-1,814,806,815,-1,815,806,807,-1,815,807,567,-1,496,498,816,-1,816,498,545,-1,816,545,817,-1,817,545,808,-1,817,808,818,-1,818,808,809,-1,818,809,819,-1,819,809,810,-1,819,810,820,-1,820,810,811,-1,820,811,821,-1,821,811,812,-1,821,812,822,-1,822,812,813,-1,822,813,823,-1,823,813,814,-1,823,814,824,-1,824,814,815,-1,824,815,567,-1,494,496,544,-1,544,496,816,-1,544,816,825,-1,825,816,817,-1,825,817,826,-1,826,817,818,-1,826,818,827,-1,827,818,819,-1,827,819,828,-1,828,819,820,-1,828,820,829,-1,829,820,821,-1,829,821,830,-1,830,821,822,-1,830,822,831,-1,831,822,823,-1,831,823,832,-1,832,823,824,-1,832,824,567,-1,489,492,543,-1,543,492,544,-1,543,544,833,-1,833,544,825,-1,833,825,834,-1,834,825,826,-1,834,826,835,-1,835,826,827,-1,835,827,836,-1,836,827,828,-1,836,828,837,-1,837,828,829,-1,837,829,838,-1,838,829,830,-1,838,830,839,-1,839,830,831,-1,839,831,840,-1,840,831,832,-1,840,832,567,-1,485,487,542,-1,542,487,543,-1,542,543,841,-1,841,543,833,-1,841,833,842,-1,842,833,834,-1,842,834,843,-1,843,834,835,-1,843,835,844,-1,844,835,836,-1,844,836,845,-1,845,836,837,-1,845,837,846,-1,846,837,838,-1,846,838,847,-1,847,838,839,-1,847,839,848,-1,848,839,840,-1,848,840,567,-1,481,483,849,-1,849,483,542,-1,849,542,850,-1,850,542,841,-1,850,841,851,-1,851,841,842,-1,851,842,852,-1,852,842,843,-1,852,843,853,-1,853,843,844,-1,853,844,854,-1,854,844,845,-1,854,845,855,-1,855,845,846,-1,855,846,856,-1,856,846,847,-1,856,847,857,-1,857,847,848,-1,857,848,567,-1,479,481,541,-1,541,481,849,-1,541,849,858,-1,858,849,850,-1,858,850,859,-1,859,850,851,-1,859,851,860,-1,860,851,852,-1,860,852,861,-1,861,852,853,-1,861,853,862,-1,862,853,854,-1,862,854,863,-1,863,854,855,-1,863,855,864,-1,864,855,856,-1,864,856,865,-1,865,856,857,-1,865,857,567,-1,474,477,540,-1,540,477,541,-1,540,541,866,-1,866,541,858,-1,866,858,867,-1,867,858,859,-1,867,859,868,-1,868,859,860,-1,868,860,869,-1,869,860,861,-1,869,861,870,-1,870,861,862,-1,870,862,871,-1,871,862,863,-1,871,863,872,-1,872,863,864,-1,872,864,873,-1,873,864,865,-1,873,865,567,-1,470,472,539,-1,539,472,540,-1,539,540,874,-1,874,540,866,-1,874,866,875,-1,875,866,867,-1,875,867,876,-1,876,867,868,-1,876,868,877,-1,877,868,869,-1,877,869,878,-1,878,869,870,-1,878,870,879,-1,879,870,871,-1,879,871,880,-1,880,871,872,-1,880,872,881,-1,881,872,873,-1,881,873,567,-1,466,468,882,-1,882,468,539,-1,882,539,883,-1,883,539,874,-1,883,874,884,-1,884,874,875,-1,884,875,885,-1,885,875,876,-1,885,876,886,-1,886,876,877,-1,886,877,887,-1,887,877,878,-1,887,878,888,-1,888,878,879,-1,888,879,889,-1,889,879,880,-1,889,880,890,-1,890,880,881,-1,890,881,567,-1,463,466,538,-1,538,466,882,-1,538,882,891,-1,891,882,883,-1,891,883,892,-1,892,883,884,-1,892,884,893,-1,893,884,885,-1,893,885,894,-1,894,885,886,-1,894,886,895,-1,895,886,887,-1,895,887,896,-1,896,887,888,-1,896,888,897,-1,897,888,889,-1,897,889,898,-1,898,889,890,-1,898,890,567,-1,459,461,603,-1,603,461,538,-1,603,538,600,-1,600,538,891,-1,600,891,599,-1,599,891,892,-1,599,892,598,-1,598,892,893,-1,598,893,597,-1,597,893,894,-1,597,894,596,-1,596,894,895,-1,596,895,595,-1,595,895,896,-1,595,896,594,-1,594,896,897,-1,594,897,593,-1,593,897,898,-1,593,898,567,-1,346,347,899,-1,350,349,900,-1,356,355,901,-1,353,357,902,-1,358,359,903,-1,362,361,904,-1,368,367,905,-1,365,369,906,-1,370,371,907,-1,374,373,908,-1,380,379,909,-1,377,381,910,-1,382,383,911,-1,386,385,912,-1,302,304,913,-1,305,306,914,-1,309,308,915,-1,313,314,916,-1,315,316,917,-1,317,318,918,-1,321,320,919,-1,325,326,920,-1,327,328,921,-1,329,330,922,-1,335,334,923,-1,333,332,924,-1,337,336,925,-1,340,339,926,-1,344,343,927,-1,341,345,928,-1,462,460,929,-1,467,465,930,-1,473,471,931,-1,478,476,932,-1,484,482,933,-1,488,486,934,-1,493,491,935,-1,499,497,936,-1,504,502,937,-1,510,508,938,-1,514,512,939,-1,519,517,940,-1,525,523,941,-1,530,528,942,-1,537,536,943,-1,395,393,944,-1,400,398,945,-1,406,404,946,-1,410,408,947,-1,420,418,948,-1,412,424,949,-1,427,415,950,-1,432,430,951,-1,436,434,952,-1,441,439,953,-1,447,445,954,-1,452,450,955,-1,458,456,956,-1,413,412,957,-1,957,412,949,-1,957,949,958,-1,958,949,959,-1,958,959,960,-1,960,959,961,-1,960,961,962,-1,962,961,963,-1,962,963,964,-1,964,963,965,-1,964,965,966,-1,966,965,967,-1,966,967,968,-1,968,967,969,-1,968,969,970,-1,970,969,919,-1,402,400,971,-1,971,400,945,-1,971,945,972,-1,972,945,973,-1,972,973,974,-1,974,973,975,-1,974,975,976,-1,976,975,977,-1,976,977,978,-1,978,977,979,-1,978,979,980,-1,980,979,981,-1,980,981,982,-1,982,981,983,-1,982,983,984,-1,984,983,915,-1,532,530,985,-1,985,530,942,-1,985,942,986,-1,986,942,987,-1,986,987,988,-1,988,987,989,-1,988,989,990,-1,990,989,991,-1,990,991,992,-1,992,991,993,-1,992,993,994,-1,994,993,995,-1,994,995,996,-1,996,995,997,-1,996,997,998,-1,998,997,912,-1,512,510,939,-1,939,510,938,-1,939,938,999,-1,999,938,1000,-1,999,1000,1001,-1,1001,1000,1002,-1,1001,1002,1003,-1,1003,1002,1004,-1,1003,1004,1005,-1,1005,1004,1006,-1,1005,1006,1007,-1,1007,1006,1008,-1,1007,1008,1009,-1,1009,1008,1010,-1,1009,1010,1011,-1,1011,1010,908,-1,491,490,935,-1,935,490,1012,-1,935,1012,1013,-1,1013,1012,1014,-1,1013,1014,1015,-1,1015,1014,1016,-1,1015,1016,1017,-1,1017,1016,1018,-1,1017,1018,1019,-1,1019,1018,1020,-1,1019,1020,1021,-1,1021,1020,1022,-1,1021,1022,1023,-1,1023,1022,1024,-1,1023,1024,1025,-1,1025,1024,904,-1,471,469,931,-1,931,469,1026,-1,931,1026,1027,-1,1027,1026,1028,-1,1027,1028,1029,-1,1029,1028,1030,-1,1029,1030,1031,-1,1031,1030,1032,-1,1031,1032,1033,-1,1033,1032,1034,-1,1033,1034,1035,-1,1035,1034,1036,-1,1035,1036,1037,-1,1037,1036,1038,-1,1037,1038,1039,-1,1039,1038,900,-1,342,341,1040,-1,1040,341,928,-1,1040,928,1041,-1,1041,928,1042,-1,1041,1042,1043,-1,1043,1042,1044,-1,1043,1044,1045,-1,1045,1044,1046,-1,1045,1046,1047,-1,1047,1046,1048,-1,1047,1048,1049,-1,1049,1048,1050,-1,1049,1050,1051,-1,1051,1050,1052,-1,1051,1052,956,-1,956,1052,929,-1,956,929,458,-1,458,929,460,-1,456,454,956,-1,956,454,1053,-1,956,1053,1051,-1,1051,1053,1054,-1,1051,1054,1049,-1,1049,1054,1055,-1,1049,1055,1047,-1,1047,1055,1056,-1,1047,1056,1045,-1,1045,1056,1057,-1,1045,1057,1043,-1,1043,1057,1058,-1,1043,1058,1041,-1,1041,1058,1059,-1,1041,1059,1040,-1,1040,1059,927,-1,1040,927,342,-1,342,927,343,-1,339,344,926,-1,926,344,927,-1,926,927,1060,-1,1060,927,1059,-1,1060,1059,1061,-1,1061,1059,1058,-1,1061,1058,1062,-1,1062,1058,1057,-1,1062,1057,1063,-1,1063,1057,1056,-1,1063,1056,1064,-1,1064,1056,1055,-1,1064,1055,1065,-1,1065,1055,1054,-1,1065,1054,955,-1,955,1054,1053,-1,955,1053,452,-1,452,1053,454,-1,336,340,925,-1,925,340,926,-1,925,926,1066,-1,1066,926,1060,-1,1066,1060,1067,-1,1067,1060,1061,-1,1067,1061,1068,-1,1068,1061,1062,-1,1068,1062,1069,-1,1069,1062,1063,-1,1069,1063,1070,-1,1070,1063,1064,-1,1070,1064,1071,-1,1071,1064,1065,-1,1071,1065,1072,-1,1072,1065,955,-1,1072,955,449,-1,449,955,450,-1,338,337,1073,-1,1073,337,925,-1,1073,925,1074,-1,1074,925,1066,-1,1074,1066,1075,-1,1075,1066,1067,-1,1075,1067,1076,-1,1076,1067,1068,-1,1076,1068,1077,-1,1077,1068,1069,-1,1077,1069,1078,-1,1078,1069,1070,-1,1078,1070,1079,-1,1079,1070,1071,-1,1079,1071,954,-1,954,1071,1072,-1,954,1072,447,-1,447,1072,449,-1,445,443,954,-1,954,443,1080,-1,954,1080,1079,-1,1079,1080,1081,-1,1079,1081,1078,-1,1078,1081,1082,-1,1078,1082,1077,-1,1077,1082,1083,-1,1077,1083,1076,-1,1076,1083,1084,-1,1076,1084,1075,-1,1075,1084,1085,-1,1075,1085,1074,-1,1074,1085,1086,-1,1074,1086,1073,-1,1073,1086,924,-1,1073,924,338,-1,338,924,332,-1,334,333,923,-1,923,333,924,-1,923,924,1087,-1,1087,924,1086,-1,1087,1086,1088,-1,1088,1086,1085,-1,1088,1085,1089,-1,1089,1085,1084,-1,1089,1084,1090,-1,1090,1084,1083,-1,1090,1083,1091,-1,1091,1083,1082,-1,1091,1082,1092,-1,1092,1082,1081,-1,1092,1081,953,-1,953,1081,1080,-1,953,1080,441,-1,441,1080,443,-1,331,335,1093,-1,1093,335,923,-1,1093,923,1094,-1,1094,923,1087,-1,1094,1087,1095,-1,1095,1087,1088,-1,1095,1088,1096,-1,1096,1088,1089,-1,1096,1089,1097,-1,1097,1089,1090,-1,1097,1090,1098,-1,1098,1090,1091,-1,1098,1091,1099,-1,1099,1091,1092,-1,1099,1092,1100,-1,1100,1092,953,-1,1100,953,438,-1,438,953,439,-1,438,436,1100,-1,1100,436,952,-1,1100,952,1099,-1,1099,952,1101,-1,1099,1101,1098,-1,1098,1101,1102,-1,1098,1102,1097,-1,1097,1102,1103,-1,1097,1103,1096,-1,1096,1103,1104,-1,1096,1104,1095,-1,1095,1104,1105,-1,1095,1105,1094,-1,1094,1105,1106,-1,1094,1106,1093,-1,1093,1106,922,-1,1093,922,331,-1,331,922,330,-1,328,329,921,-1,921,329,922,-1,921,922,1107,-1,1107,922,1106,-1,1107,1106,1108,-1,1108,1106,1105,-1,1108,1105,1109,-1,1109,1105,1104,-1,1109,1104,1110,-1,1110,1104,1103,-1,1110,1103,1111,-1,1111,1103,1102,-1,1111,1102,1112,-1,1112,1102,1101,-1,1112,1101,951,-1,951,1101,952,-1,951,952,432,-1,432,952,434,-1,326,327,920,-1,920,327,921,-1,920,921,1113,-1,1113,921,1107,-1,1113,1107,1114,-1,1114,1107,1108,-1,1114,1108,1115,-1,1115,1108,1109,-1,1115,1109,1116,-1,1116,1109,1110,-1,1116,1110,1117,-1,1117,1110,1111,-1,1117,1111,1118,-1,1118,1111,1112,-1,1118,1112,1119,-1,1119,1112,951,-1,1119,951,428,-1,428,951,430,-1,322,325,1120,-1,1120,325,920,-1,1120,920,1121,-1,1121,920,1113,-1,1121,1113,1122,-1,1122,1113,1114,-1,1122,1114,1123,-1,1123,1114,1115,-1,1123,1115,1124,-1,1124,1115,1116,-1,1124,1116,1125,-1,1125,1116,1117,-1,1125,1117,1126,-1,1126,1117,1118,-1,1126,1118,950,-1,950,1118,1119,-1,950,1119,427,-1,427,1119,428,-1,415,413,950,-1,950,413,957,-1,950,957,1126,-1,1126,957,958,-1,1126,958,1125,-1,1125,958,960,-1,1125,960,1124,-1,1124,960,962,-1,1124,962,1123,-1,1123,962,964,-1,1123,964,1122,-1,1122,964,966,-1,1122,966,1121,-1,1121,966,968,-1,1121,968,1120,-1,1120,968,970,-1,1120,970,322,-1,322,970,323,-1,919,320,970,-1,970,320,324,-1,970,324,323,-1,319,321,1127,-1,1127,321,919,-1,1127,919,1128,-1,1128,919,969,-1,1128,969,1129,-1,1129,969,967,-1,1129,967,1130,-1,1130,967,965,-1,1130,965,1131,-1,1131,965,963,-1,1131,963,1132,-1,1132,963,961,-1,1132,961,1133,-1,1133,961,959,-1,1133,959,1134,-1,1134,959,949,-1,1134,949,422,-1,422,949,424,-1,422,420,1134,-1,1134,420,948,-1,1134,948,1133,-1,1133,948,1135,-1,1133,1135,1132,-1,1132,1135,1136,-1,1132,1136,1131,-1,1131,1136,1137,-1,1131,1137,1130,-1,1130,1137,1138,-1,1130,1138,1129,-1,1129,1138,1139,-1,1129,1139,1128,-1,1128,1139,1140,-1,1128,1140,1127,-1,1127,1140,918,-1,1127,918,319,-1,319,918,318,-1,316,317,917,-1,917,317,918,-1,917,918,1141,-1,1141,918,1140,-1,1141,1140,1142,-1,1142,1140,1139,-1,1142,1139,1143,-1,1143,1139,1138,-1,1143,1138,1144,-1,1144,1138,1137,-1,1144,1137,1145,-1,1145,1137,1136,-1,1145,1136,1146,-1,1146,1136,1135,-1,1146,1135,1147,-1,1147,1135,948,-1,1147,948,417,-1,417,948,418,-1,314,315,916,-1,916,315,917,-1,916,917,1148,-1,1148,917,1141,-1,1148,1141,1149,-1,1149,1141,1142,-1,1149,1142,1150,-1,1150,1142,1143,-1,1150,1143,1151,-1,1151,1143,1144,-1,1151,1144,1152,-1,1152,1144,1145,-1,1152,1145,1153,-1,1153,1145,1146,-1,1153,1146,947,-1,947,1146,1147,-1,947,1147,410,-1,410,1147,417,-1,310,313,1154,-1,1154,313,916,-1,1154,916,1155,-1,1155,916,1148,-1,1155,1148,1156,-1,1156,1148,1149,-1,1156,1149,1157,-1,1157,1149,1150,-1,1157,1150,1158,-1,1158,1150,1151,-1,1158,1151,1159,-1,1159,1151,1152,-1,1159,1152,1160,-1,1160,1152,1153,-1,1160,1153,946,-1,946,1153,947,-1,946,947,406,-1,406,947,408,-1,404,402,946,-1,946,402,971,-1,946,971,1160,-1,1160,971,972,-1,1160,972,1159,-1,1159,972,974,-1,1159,974,1158,-1,1158,974,976,-1,1158,976,1157,-1,1157,976,978,-1,1157,978,1156,-1,1156,978,980,-1,1156,980,1155,-1,1155,980,982,-1,1155,982,1154,-1,1154,982,984,-1,1154,984,310,-1,310,984,311,-1,915,308,984,-1,984,308,312,-1,984,312,311,-1,307,309,1161,-1,1161,309,915,-1,1161,915,1162,-1,1162,915,983,-1,1162,983,1163,-1,1163,983,981,-1,1163,981,1164,-1,1164,981,979,-1,1164,979,1165,-1,1165,979,977,-1,1165,977,1166,-1,1166,977,975,-1,1166,975,1167,-1,1167,975,973,-1,1167,973,1168,-1,1168,973,945,-1,1168,945,397,-1,397,945,398,-1,397,395,1168,-1,1168,395,944,-1,1168,944,1167,-1,1167,944,1169,-1,1167,1169,1166,-1,1166,1169,1170,-1,1166,1170,1165,-1,1165,1170,1171,-1,1165,1171,1164,-1,1164,1171,1172,-1,1164,1172,1163,-1,1163,1172,1173,-1,1163,1173,1162,-1,1162,1173,1174,-1,1162,1174,1161,-1,1161,1174,914,-1,1161,914,307,-1,307,914,306,-1,304,305,913,-1,913,305,914,-1,913,914,1175,-1,1175,914,1174,-1,1175,1174,1176,-1,1176,1174,1173,-1,1176,1173,1177,-1,1177,1173,1172,-1,1177,1172,1178,-1,1178,1172,1171,-1,1178,1171,1179,-1,1179,1171,1170,-1,1179,1170,1180,-1,1180,1170,1169,-1,1180,1169,1181,-1,1181,1169,944,-1,1181,944,391,-1,391,944,393,-1,303,302,1182,-1,1182,302,913,-1,1182,913,1183,-1,1183,913,1175,-1,1183,1175,1184,-1,1184,1175,1176,-1,1184,1176,1185,-1,1185,1176,1177,-1,1185,1177,1186,-1,1186,1177,1178,-1,1186,1178,1187,-1,1187,1178,1179,-1,1187,1179,1188,-1,1188,1179,1180,-1,1188,1180,943,-1,943,1180,1181,-1,943,1181,537,-1,537,1181,391,-1,536,534,943,-1,943,534,1189,-1,943,1189,1188,-1,1188,1189,1190,-1,1188,1190,1187,-1,1187,1190,1191,-1,1187,1191,1186,-1,1186,1191,1192,-1,1186,1192,1185,-1,1185,1192,1193,-1,1185,1193,1184,-1,1184,1193,1194,-1,1184,1194,1183,-1,1183,1194,1195,-1,1183,1195,1182,-1,1182,1195,1196,-1,1182,1196,303,-1,303,1196,387,-1,534,532,1189,-1,1189,532,985,-1,1189,985,1190,-1,1190,985,986,-1,1190,986,1191,-1,1191,986,988,-1,1191,988,1192,-1,1192,988,990,-1,1192,990,1193,-1,1193,990,992,-1,1193,992,1194,-1,1194,992,994,-1,1194,994,1195,-1,1195,994,996,-1,1195,996,1196,-1,1196,996,998,-1,1196,998,387,-1,387,998,388,-1,912,385,998,-1,998,385,389,-1,998,389,388,-1,384,386,1197,-1,1197,386,912,-1,1197,912,1198,-1,1198,912,997,-1,1198,997,1199,-1,1199,997,995,-1,1199,995,1200,-1,1200,995,993,-1,1200,993,1201,-1,1201,993,991,-1,1201,991,1202,-1,1202,991,989,-1,1202,989,1203,-1,1203,989,987,-1,1203,987,1204,-1,1204,987,942,-1,1204,942,527,-1,527,942,528,-1,527,525,1204,-1,1204,525,941,-1,1204,941,1203,-1,1203,941,1205,-1,1203,1205,1202,-1,1202,1205,1206,-1,1202,1206,1201,-1,1201,1206,1207,-1,1201,1207,1200,-1,1200,1207,1208,-1,1200,1208,1199,-1,1199,1208,1209,-1,1199,1209,1198,-1,1198,1209,1210,-1,1198,1210,1197,-1,1197,1210,911,-1,1197,911,384,-1,384,911,383,-1,381,382,910,-1,910,382,911,-1,910,911,1211,-1,1211,911,1210,-1,1211,1210,1212,-1,1212,1210,1209,-1,1212,1209,1213,-1,1213,1209,1208,-1,1213,1208,1214,-1,1214,1208,1207,-1,1214,1207,1215,-1,1215,1207,1206,-1,1215,1206,1216,-1,1216,1206,1205,-1,1216,1205,1217,-1,1217,1205,941,-1,1217,941,521,-1,521,941,523,-1,378,377,1218,-1,1218,377,910,-1,1218,910,1219,-1,1219,910,1211,-1,1219,1211,1220,-1,1220,1211,1212,-1,1220,1212,1221,-1,1221,1212,1213,-1,1221,1213,1222,-1,1222,1213,1214,-1,1222,1214,1223,-1,1223,1214,1215,-1,1223,1215,1224,-1,1224,1215,1216,-1,1224,1216,940,-1,940,1216,1217,-1,940,1217,519,-1,519,1217,521,-1,517,516,940,-1,940,516,1225,-1,940,1225,1224,-1,1224,1225,1226,-1,1224,1226,1223,-1,1223,1226,1227,-1,1223,1227,1222,-1,1222,1227,1228,-1,1222,1228,1221,-1,1221,1228,1229,-1,1221,1229,1220,-1,1220,1229,1230,-1,1220,1230,1219,-1,1219,1230,1231,-1,1219,1231,1218,-1,1218,1231,909,-1,1218,909,378,-1,378,909,379,-1,375,380,1011,-1,1011,380,909,-1,1011,909,1009,-1,1009,909,1231,-1,1009,1231,1007,-1,1007,1231,1230,-1,1007,1230,1005,-1,1005,1230,1229,-1,1005,1229,1003,-1,1003,1229,1228,-1,1003,1228,1001,-1,1001,1228,1227,-1,1001,1227,999,-1,999,1227,1226,-1,999,1226,939,-1,939,1226,1225,-1,939,1225,514,-1,514,1225,516,-1,908,373,1011,-1,1011,373,376,-1,1011,376,375,-1,372,374,1232,-1,1232,374,908,-1,1232,908,1233,-1,1233,908,1010,-1,1233,1010,1234,-1,1234,1010,1008,-1,1234,1008,1235,-1,1235,1008,1006,-1,1235,1006,1236,-1,1236,1006,1004,-1,1236,1004,1237,-1,1237,1004,1002,-1,1237,1002,1238,-1,1238,1002,1000,-1,1238,1000,1239,-1,1239,1000,938,-1,1239,938,506,-1,506,938,508,-1,506,504,1239,-1,1239,504,937,-1,1239,937,1238,-1,1238,937,1240,-1,1238,1240,1237,-1,1237,1240,1241,-1,1237,1241,1236,-1,1236,1241,1242,-1,1236,1242,1235,-1,1235,1242,1243,-1,1235,1243,1234,-1,1234,1243,1244,-1,1234,1244,1233,-1,1233,1244,1245,-1,1233,1245,1232,-1,1232,1245,907,-1,1232,907,372,-1,372,907,371,-1,369,370,906,-1,906,370,907,-1,906,907,1246,-1,1246,907,1245,-1,1246,1245,1247,-1,1247,1245,1244,-1,1247,1244,1248,-1,1248,1244,1243,-1,1248,1243,1249,-1,1249,1243,1242,-1,1249,1242,1250,-1,1250,1242,1241,-1,1250,1241,1251,-1,1251,1241,1240,-1,1251,1240,1252,-1,1252,1240,937,-1,1252,937,501,-1,501,937,502,-1,366,365,1253,-1,1253,365,906,-1,1253,906,1254,-1,1254,906,1246,-1,1254,1246,1255,-1,1255,1246,1247,-1,1255,1247,1256,-1,1256,1247,1248,-1,1256,1248,1257,-1,1257,1248,1249,-1,1257,1249,1258,-1,1258,1249,1250,-1,1258,1250,1259,-1,1259,1250,1251,-1,1259,1251,936,-1,936,1251,1252,-1,936,1252,499,-1,499,1252,501,-1,497,495,936,-1,936,495,1260,-1,936,1260,1259,-1,1259,1260,1261,-1,1259,1261,1258,-1,1258,1261,1262,-1,1258,1262,1257,-1,1257,1262,1263,-1,1257,1263,1256,-1,1256,1263,1264,-1,1256,1264,1255,-1,1255,1264,1265,-1,1255,1265,1254,-1,1254,1265,1266,-1,1254,1266,1253,-1,1253,1266,905,-1,1253,905,366,-1,366,905,367,-1,363,368,1025,-1,1025,368,905,-1,1025,905,1023,-1,1023,905,1266,-1,1023,1266,1021,-1,1021,1266,1265,-1,1021,1265,1019,-1,1019,1265,1264,-1,1019,1264,1017,-1,1017,1264,1263,-1,1017,1263,1015,-1,1015,1263,1262,-1,1015,1262,1013,-1,1013,1262,1261,-1,1013,1261,935,-1,935,1261,1260,-1,935,1260,493,-1,493,1260,495,-1,904,361,1025,-1,1025,361,364,-1,1025,364,363,-1,360,362,1267,-1,1267,362,904,-1,1267,904,1268,-1,1268,904,1024,-1,1268,1024,1269,-1,1269,1024,1022,-1,1269,1022,1270,-1,1270,1022,1020,-1,1270,1020,1271,-1,1271,1020,1018,-1,1271,1018,1272,-1,1272,1018,1016,-1,1272,1016,1273,-1,1273,1016,1014,-1,1273,1014,934,-1,934,1014,1012,-1,934,1012,488,-1,488,1012,490,-1,486,484,934,-1,934,484,933,-1,934,933,1273,-1,1273,933,1274,-1,1273,1274,1272,-1,1272,1274,1275,-1,1272,1275,1271,-1,1271,1275,1276,-1,1271,1276,1270,-1,1270,1276,1277,-1,1270,1277,1269,-1,1269,1277,1278,-1,1269,1278,1268,-1,1268,1278,1279,-1,1268,1279,1267,-1,1267,1279,903,-1,1267,903,360,-1,360,903,359,-1,357,358,902,-1,902,358,903,-1,902,903,1280,-1,1280,903,1279,-1,1280,1279,1281,-1,1281,1279,1278,-1,1281,1278,1282,-1,1282,1278,1277,-1,1282,1277,1283,-1,1283,1277,1276,-1,1283,1276,1284,-1,1284,1276,1275,-1,1284,1275,1285,-1,1285,1275,1274,-1,1285,1274,1286,-1,1286,1274,933,-1,1286,933,480,-1,480,933,482,-1,354,353,1287,-1,1287,353,902,-1,1287,902,1288,-1,1288,902,1280,-1,1288,1280,1289,-1,1289,1280,1281,-1,1289,1281,1290,-1,1290,1281,1282,-1,1290,1282,1291,-1,1291,1282,1283,-1,1291,1283,1292,-1,1292,1283,1284,-1,1292,1284,1293,-1,1293,1284,1285,-1,1293,1285,932,-1,932,1285,1286,-1,932,1286,478,-1,478,1286,480,-1,476,475,932,-1,932,475,1294,-1,932,1294,1293,-1,1293,1294,1295,-1,1293,1295,1292,-1,1292,1295,1296,-1,1292,1296,1291,-1,1291,1296,1297,-1,1291,1297,1290,-1,1290,1297,1298,-1,1290,1298,1289,-1,1289,1298,1299,-1,1289,1299,1288,-1,1288,1299,1300,-1,1288,1300,1287,-1,1287,1300,901,-1,1287,901,354,-1,354,901,355,-1,351,356,1039,-1,1039,356,901,-1,1039,901,1037,-1,1037,901,1300,-1,1037,1300,1035,-1,1035,1300,1299,-1,1035,1299,1033,-1,1033,1299,1298,-1,1033,1298,1031,-1,1031,1298,1297,-1,1031,1297,1029,-1,1029,1297,1296,-1,1029,1296,1027,-1,1027,1296,1295,-1,1027,1295,931,-1,931,1295,1294,-1,931,1294,473,-1,473,1294,475,-1,900,349,1039,-1,1039,349,352,-1,1039,352,351,-1,348,350,1301,-1,1301,350,900,-1,1301,900,1302,-1,1302,900,1038,-1,1302,1038,1303,-1,1303,1038,1036,-1,1303,1036,1304,-1,1304,1036,1034,-1,1304,1034,1305,-1,1305,1034,1032,-1,1305,1032,1306,-1,1306,1032,1030,-1,1306,1030,1307,-1,1307,1030,1028,-1,1307,1028,930,-1,930,1028,1026,-1,930,1026,467,-1,467,1026,469,-1,465,464,930,-1,930,464,1308,-1,930,1308,1307,-1,1307,1308,1309,-1,1307,1309,1306,-1,1306,1309,1310,-1,1306,1310,1305,-1,1305,1310,1311,-1,1305,1311,1304,-1,1304,1311,1312,-1,1304,1312,1303,-1,1303,1312,1313,-1,1303,1313,1302,-1,1302,1313,1314,-1,1302,1314,1301,-1,1301,1314,899,-1,1301,899,348,-1,348,899,347,-1,345,346,928,-1,928,346,899,-1,928,899,1042,-1,1042,899,1314,-1,1042,1314,1044,-1,1044,1314,1313,-1,1044,1313,1046,-1,1046,1313,1312,-1,1046,1312,1048,-1,1048,1312,1311,-1,1048,1311,1050,-1,1050,1311,1310,-1,1050,1310,1052,-1,1052,1310,1309,-1,1052,1309,929,-1,929,1309,1308,-1,929,1308,462,-1,462,1308,464,-1,126,125,194,-1,194,192,126,-1,126,192,191,-1,126,191,127,-1,191,189,127,-1,127,189,188,-1,127,188,128,-1,188,186,128,-1,128,186,185,-1,128,185,129,-1,185,183,129,-1,129,183,182,-1,129,182,130,-1,182,180,130,-1,130,180,179,-1,130,179,131,-1,179,177,131,-1,131,177,176,-1,131,176,133,-1,176,174,133,-1,133,174,173,-1,133,173,122,-1,173,171,122,-1,122,171,170,-1,122,170,120,-1,170,168,120,-1,120,168,167,-1,120,167,119,-1,119,167,165,-1,119,165,106,-1,106,165,164,-1,106,164,107,-1,164,162,107,-1,107,162,161,-1,107,161,108,-1,161,159,108,-1,108,159,158,-1,108,158,109,-1,158,156,109,-1,109,156,155,-1,109,155,110,-1,155,153,110,-1,110,153,152,-1,110,152,111,-1,152,150,111,-1,111,150,149,-1,111,149,112,-1,149,147,112,-1,112,147,146,-1,112,146,113,-1,146,144,113,-1,113,144,143,-1,113,143,114,-1,143,141,114,-1,114,141,140,-1,114,140,115,-1,115,140,138,-1,115,138,116,-1,116,138,137,-1,116,137,117,-1,137,136,117,-1,117,136,263,-1,117,263,118,-1,263,262,118,-1,118,262,261,-1,118,261,96,-1,261,259,96,-1,96,259,258,-1,96,258,97,-1,258,256,97,-1,97,256,255,-1,97,255,104,-1,255,253,104,-1,104,253,252,-1,104,252,105,-1,252,250,105,-1,105,250,249,-1,105,249,78,-1,249,247,78,-1,78,247,246,-1,78,246,92,-1,246,244,92,-1,92,244,243,-1,92,243,93,-1,243,241,93,-1,93,241,240,-1,93,240,94,-1,240,238,94,-1,94,238,237,-1,94,237,95,-1,95,237,235,-1,95,235,0,-1,0,235,234,-1,0,234,41,-1,234,232,41,-1,41,232,231,-1,41,231,39,-1,231,229,39,-1,39,229,228,-1,39,228,42,-1,228,226,42,-1,42,226,225,-1,42,225,43,-1,225,223,43,-1,43,223,222,-1,43,222,44,-1,222,220,44,-1,44,220,219,-1,44,219,47,-1,219,217,47,-1,47,217,216,-1,47,216,48,-1,216,214,48,-1,48,214,213,-1,48,213,50,-1,213,211,50,-1,50,211,210,-1,50,210,51,-1,210,208,51,-1,51,208,207,-1,51,207,37,-1,207,205,37,-1,37,205,204,-1,37,204,38,-1,204,202,38,-1,38,202,201,-1,38,201,123,-1,123,201,199,-1,123,199,124,-1,124,199,197,-1,124,197,125,-1,125,197,195,-1,125,195,194,-1,
        ]
    }
}
Shape{
    appearance Appearance {
        material  Material 	{
            diffuseColor 1.0 1.0 1.0
            specularColor 0.8784313725490196 0.8784313725490196 0.8784313725490196
            ambientIntensity 1.0
            transparency 0.0
            shininess 0.5
        }
    }
    geometry IndexedFaceSet {
        ccw TRUE
        solid FALSE
        coord DEF co Coordinate {
            point [
                -0.1335 0.0488 0.0394, -0.1642 -0.03 0.0394, -0.1335 0.0488 0.0, -0.1642 -0.03 0.0, -0.1527 -0.03 0.0394, -0.1527 -0.03 0.0, -0.1447 -0.0079 0.0394, -0.1447 -0.0079 0.0, -0.1122 -0.0079 0.0394, -0.1122 -0.0079 0.0, -0.1047 -0.03 0.0394, -0.1047 -0.03 0.0, -0.0931 -0.03 0.0394, -0.0931 -0.03 0.0, -0.1229 0.0488 0.0394, -0.1229 0.0488 0.0, -0.1148 0.0007 0.0394, -0.1412 0.0007 0.0394, -0.1266 0.0336 0.0394, -0.1273 0.0364 0.0394, -0.1278 0.0392 0.0394, -0.1281 0.0392 0.0394, -0.1286 0.0364 0.0394, -0.1293 0.0336 0.0394, -0.1148 0.0007 0.0, -0.1412 0.0007 0.0, -0.1266 0.0336 0.0, -0.1273 0.0364 0.0, -0.1278 0.0392 0.0, -0.1281 0.0392 0.0, -0.1286 0.0364 0.0, -0.1293 0.0336 0.0, -0.0454 -0.03 0.0394, -0.024 -0.03 0.0394, -0.0454 -0.03 0.0, -0.024 -0.03 0.0, -0.024 0.0488 0.0394, -0.024 0.0488 0.0, -0.0462 0.0488 0.0394, -0.0462 0.0488 0.0, -0.0874 0.0104 0.0394, -0.0874 0.0104 0.0, -0.0868 0.0178 0.0, -0.0868 0.0178 0.0394, -0.0847 0.0255 0.0, -0.0847 0.0255 0.0394, -0.081 0.0323 0.0, -0.081 0.0323 0.0394, -0.0755 0.0385 0.0, -0.0755 0.0385 0.0394, -0.0754 0.0386 0.0, -0.0754 0.0386 0.0394, -0.0668 0.0443 0.0, -0.0668 0.0443 0.0394, -0.0576 0.0475 0.0, -0.0576 0.0475 0.0394, -0.0552 -0.0291 0.0, -0.0552 -0.0291 0.0394, -0.0642 -0.0264 0.0, -0.0642 -0.0264 0.0394, -0.0725 -0.0217 0.0, -0.0725 -0.0217 0.0394, -0.0789 -0.0154 0.0, -0.0789 -0.0154 0.0394, -0.0835 -0.0084 0.0, -0.0835 -0.0084 0.0394, -0.0863 -0.0002 0.0, -0.0863 -0.0002 0.0394, -0.0716 0.0291 0.0394, -0.0678 0.0331 0.0394, -0.062 0.0368 0.0394, -0.0555 0.0391 0.0394, -0.0462 0.0401 0.0394, -0.0346 0.0401 0.0394, -0.0346 -0.0213 0.0394, -0.0457 -0.0213 0.0394, -0.0541 -0.0206 0.0394, -0.0607 -0.0185 0.0394, -0.066 -0.0153 0.0394, -0.0705 -0.011 0.0394, -0.0738 -0.0055 0.0394, -0.0761 0.0019 0.0394, -0.0768 0.0101 0.0394, -0.0762 0.018 0.0394, -0.0743 0.0242 0.0394, -0.0462 0.0401 0.0, -0.0346 0.0401 0.0, -0.0555 0.0391 0.0, -0.062 0.0368 0.0, -0.0678 0.0331 0.0, -0.0716 0.0291 0.0, -0.0743 0.0242 0.0, -0.0762 0.018 0.0, -0.0768 0.0101 0.0, -0.0761 0.0019 0.0, -0.0738 -0.0055 0.0, -0.0705 -0.011 0.0, -0.066 -0.0153 0.0, -0.0607 -0.0185 0.0, -0.0541 -0.0206 0.0, -0.0457 -0.0213 0.0, -0.0346 -0.0213 0.0, -0.0086 -0.0213 0.0394, -0.0086 -0.03 0.0394, -0.0086 -0.0213 0.0, -0.0086 -0.03 0.0, 0.0336 -0.03 0.0394, 0.0336 -0.03 0.0, 0.0336 0.0488 0.0394, 0.0336 0.0488 0.0, -0.0067 0.0488 0.0394, -0.0067 0.0488 0.0, -0.0067 0.0401 0.0394, -0.0067 0.0401 0.0, 0.023 0.0401 0.0394, 0.023 0.0401 0.0, 0.023 0.0142 0.0394, 0.023 0.0142 0.0, -0.0048 0.0142 0.0394, -0.0048 0.0142 0.0, -0.0048 0.0055 0.0394, -0.0048 0.0055 0.0, 0.023 0.0055 0.0394, 0.023 0.0055 0.0, 0.023 -0.0213 0.0394, 0.023 -0.0213 0.0, 0.049 -0.0173 0.0394, 0.049 -0.0259 0.0394, 0.049 -0.0173 0.0, 0.049 -0.0259 0.0, 0.0574 -0.0294 0.0394, 0.0706 -0.0309 0.0394, 0.0706 -0.0309 0.0, 0.0685 -0.0309 0.0, 0.0685 -0.0309 0.0394, 0.0653 -0.0305 0.0, 0.0574 -0.0294 0.0, 0.0753 -0.0305 0.0, 0.0803 -0.0299 0.0394, 0.0803 -0.0299 0.0, 0.088 -0.0273 0.0394, 0.088 -0.0273 0.0, 0.0943 -0.0233 0.0394, 0.0943 -0.0233 0.0, 0.1002 -0.017 0.0394, 0.1002 -0.017 0.0, 0.1044 -0.0096 0.0394, 0.1044 -0.0096 0.0, 0.1068 -0.0012 0.0394, 0.1068 -0.0012 0.0, 0.1075 0.0079 0.0394, 0.1075 0.0079 0.0, 0.0675 0.0497 0.0394, 0.0675 0.0497 0.0, 0.0754 0.0491 0.0, 0.0754 0.0491 0.0394, 0.0842 0.0465 0.0, 0.0842 0.0465 0.0394, 0.0917 0.0422 0.0, 0.0917 0.0422 0.0394, 0.0988 0.0354 0.0, 0.0988 0.0354 0.0394, 0.1034 0.028 0.0, 0.1034 0.028 0.0394, 0.1064 0.0191 0.0, 0.1064 0.0191 0.0394, 0.049 0.0466 0.0394, 0.049 0.0466 0.0, 0.0581 0.0491 0.0, 0.0581 0.0491 0.0394, 0.049 0.036 0.0394, 0.049 0.036 0.0, 0.0674 0.0411 0.0394, 0.0674 0.0411 0.0, 0.0578 0.0398 0.0, 0.0578 0.0398 0.0394, 0.097 0.0085 0.0394, 0.097 0.0085 0.0, 0.0966 0.0147 0.0, 0.0966 0.0147 0.0394, 0.0945 0.0231 0.0, 0.0945 0.0231 0.0394, 0.0913 0.0292 0.0, 0.0913 0.0292 0.0394, 0.0865 0.0344 0.0, 0.0865 0.0344 0.0394, 0.0811 0.0381 0.0, 0.0811 0.0381 0.0394, 0.0752 0.0402 0.0, 0.0752 0.0402 0.0394, 0.0692 -0.0223 0.0394, 0.0692 -0.0223 0.0, 0.0765 -0.0215 0.0, 0.0765 -0.0215 0.0394, 0.0823 -0.0194 0.0, 0.0823 -0.0194 0.0394, 0.0871 -0.0161 0.0, 0.0871 -0.0161 0.0394, 0.0908 -0.0122 0.0, 0.0908 -0.0122 0.0394, 0.094 -0.0068 0.0, 0.094 -0.0068 0.0394, 0.0962 0.0 0.0, 0.0962 0.0 0.0394, 0.0504 -0.018 0.0, 0.0504 -0.018 0.0394, 0.0587 -0.0211 0.0, 0.0587 -0.0211 0.0394, 0.1143 -0.0213 0.0394, 0.1143 -0.03 0.0394, 0.1143 -0.0213 0.0, 0.1143 -0.03 0.0, 0.1546 -0.03 0.0394, 0.1546 -0.03 0.0, 0.1546 0.0488 0.0394, 0.1546 0.0488 0.0, 0.144 0.0488 0.0394, 0.144 0.0488 0.0, 0.144 -0.0213 0.0394, 0.144 -0.0213 0.0
            ]
        }
        coordIndex [
            0,1,2,-1,2,1,3,-1,1,4,3,-1,3,4,5,-1,4,6,5,-1,5,6,7,-1,6,8,7,-1,7,8,9,-1,8,10,9,-1,9,10,11,-1,10,12,11,-1,11,12,13,-1,12,14,13,-1,13,14,15,-1,14,0,15,-1,15,0,2,-1,16,8,17,-1,17,8,6,-1,18,14,16,-1,16,14,12,-1,16,12,8,-1,8,12,10,-1,18,19,14,-1,14,19,20,-1,14,20,0,-1,0,20,21,-1,0,21,22,-1,22,23,0,-1,0,23,17,-1,0,17,1,-1,1,17,6,-1,1,6,4,-1,16,17,24,-1,24,17,25,-1,18,16,26,-1,26,16,24,-1,18,26,27,-1,18,27,19,-1,19,27,28,-1,19,28,20,-1,21,20,29,-1,29,20,28,-1,21,29,30,-1,21,30,22,-1,22,30,31,-1,22,31,23,-1,17,23,25,-1,25,23,31,-1,32,33,34,-1,34,33,35,-1,33,36,35,-1,35,36,37,-1,36,38,37,-1,37,38,39,-1,40,41,42,-1,40,42,43,-1,43,42,44,-1,43,44,45,-1,45,44,46,-1,45,46,47,-1,47,46,48,-1,47,48,49,-1,49,48,50,-1,49,50,51,-1,51,50,52,-1,51,52,53,-1,53,52,54,-1,53,54,55,-1,55,54,39,-1,55,39,38,-1,32,34,56,-1,32,56,57,-1,57,56,58,-1,57,58,59,-1,59,58,60,-1,59,60,61,-1,61,60,62,-1,61,62,63,-1,63,62,64,-1,63,64,65,-1,65,64,66,-1,65,66,67,-1,67,66,41,-1,67,41,40,-1,45,47,68,-1,68,47,49,-1,68,49,69,-1,69,49,51,-1,69,51,70,-1,70,51,53,-1,70,53,71,-1,71,53,55,-1,71,55,72,-1,72,55,38,-1,72,38,73,-1,73,38,36,-1,73,36,74,-1,74,36,33,-1,74,33,75,-1,75,33,32,-1,75,32,76,-1,76,32,57,-1,76,57,77,-1,77,57,59,-1,77,59,78,-1,78,59,61,-1,78,61,79,-1,79,61,63,-1,79,63,80,-1,80,63,65,-1,80,65,81,-1,81,65,67,-1,81,67,82,-1,82,67,40,-1,82,40,83,-1,83,40,43,-1,83,43,84,-1,84,43,45,-1,84,45,68,-1,72,73,85,-1,85,73,86,-1,72,85,87,-1,72,87,71,-1,71,87,88,-1,71,88,70,-1,70,88,89,-1,70,89,69,-1,69,89,90,-1,69,90,68,-1,68,90,91,-1,68,91,84,-1,84,91,92,-1,84,92,83,-1,83,92,93,-1,83,93,82,-1,82,93,94,-1,82,94,81,-1,81,94,95,-1,81,95,80,-1,80,95,96,-1,80,96,79,-1,79,96,97,-1,79,97,78,-1,78,97,98,-1,78,98,77,-1,77,98,99,-1,77,99,76,-1,76,99,100,-1,76,100,75,-1,74,75,101,-1,101,75,100,-1,73,74,86,-1,86,74,101,-1,102,103,104,-1,104,103,105,-1,103,106,105,-1,105,106,107,-1,106,108,107,-1,107,108,109,-1,108,110,109,-1,109,110,111,-1,110,112,111,-1,111,112,113,-1,112,114,113,-1,113,114,115,-1,114,116,115,-1,115,116,117,-1,116,118,117,-1,117,118,119,-1,118,120,119,-1,119,120,121,-1,120,122,121,-1,121,122,123,-1,122,124,123,-1,123,124,125,-1,124,102,125,-1,125,102,104,-1,106,103,102,-1,102,124,106,-1,106,124,122,-1,106,122,108,-1,112,110,114,-1,114,110,108,-1,114,108,116,-1,116,108,122,-1,116,122,118,-1,118,122,120,-1,126,127,128,-1,128,127,129,-1,129,127,130,-1,131,132,133,-1,131,133,134,-1,134,133,135,-1,134,135,130,-1,130,135,136,-1,130,136,129,-1,132,131,137,-1,137,131,138,-1,137,138,139,-1,139,138,140,-1,139,140,141,-1,141,140,142,-1,141,142,143,-1,143,142,144,-1,143,144,145,-1,145,144,146,-1,145,146,147,-1,147,146,148,-1,147,148,149,-1,149,148,150,-1,149,150,151,-1,152,153,154,-1,152,154,155,-1,155,154,156,-1,155,156,157,-1,157,156,158,-1,157,158,159,-1,159,158,160,-1,159,160,161,-1,161,160,162,-1,161,162,163,-1,163,162,164,-1,163,164,165,-1,165,164,151,-1,165,151,150,-1,166,167,168,-1,166,168,169,-1,169,168,153,-1,169,153,152,-1,166,170,167,-1,167,170,171,-1,172,173,174,-1,172,174,175,-1,175,174,171,-1,175,171,170,-1,176,177,178,-1,176,178,179,-1,179,178,180,-1,179,180,181,-1,181,180,182,-1,181,182,183,-1,183,182,184,-1,183,184,185,-1,185,184,186,-1,185,186,187,-1,187,186,188,-1,187,188,189,-1,189,188,173,-1,189,173,172,-1,190,191,192,-1,190,192,193,-1,193,192,194,-1,193,194,195,-1,195,194,196,-1,195,196,197,-1,197,196,198,-1,197,198,199,-1,199,198,200,-1,199,200,201,-1,201,200,202,-1,201,202,203,-1,203,202,177,-1,203,177,176,-1,126,128,204,-1,126,204,205,-1,205,204,206,-1,205,206,207,-1,207,206,191,-1,207,191,190,-1,193,131,190,-1,190,131,134,-1,190,134,207,-1,207,134,130,-1,207,130,205,-1,205,130,127,-1,205,127,126,-1,170,166,175,-1,175,166,169,-1,175,169,172,-1,172,169,152,-1,172,152,189,-1,189,152,155,-1,189,155,187,-1,187,155,157,-1,187,157,185,-1,185,157,159,-1,185,159,183,-1,183,159,161,-1,183,161,181,-1,181,161,163,-1,181,163,179,-1,179,163,165,-1,179,165,176,-1,176,165,150,-1,176,150,203,-1,203,150,148,-1,203,148,201,-1,201,148,146,-1,201,146,199,-1,199,146,144,-1,199,144,197,-1,197,144,142,-1,197,142,195,-1,195,142,140,-1,195,140,193,-1,193,140,138,-1,193,138,131,-1,208,209,210,-1,210,209,211,-1,209,212,211,-1,211,212,213,-1,212,214,213,-1,213,214,215,-1,214,216,215,-1,215,216,217,-1,216,218,217,-1,217,218,219,-1,218,208,219,-1,219,208,210,-1,216,214,218,-1,218,214,212,-1,218,212,208,-1,208,212,209,-1,
        ]
    }
}
Shape{
    appearance Appearance {
        material  Material 	{
            diffuseColor 0.8274509803921568 0.6666666666666666 0.12941176470588237
            specularColor 0.8274509803921568 0.6666666666666666 0.12941176470588237
            ambientIntensity 0.6535
            transparency 0.0
            shininess 0.5
        }
    }
    geometry IndexedFaceSet {
        ccw TRUE
        solid FALSE
        coord DEF co Coordinate {
            point [
                -0.1148 0.0007 0.0, -0.1412 0.0007 0.0, -0.1266 0.0336 0.0, -0.1293 0.0336 0.0, -0.1273 0.0364 0.0, -0.1286 0.0364 0.0, -0.1278 0.0392 0.0, -0.1281 0.0392 0.0, -0.0346 0.0401 0.0, -0.0346 -0.0213 0.0, -0.0462 0.0401 0.0, -0.0457 -0.0213 0.0, -0.0541 -0.0206 0.0, -0.0768 0.0101 0.0, -0.0762 0.018 0.0, -0.0743 0.0242 0.0, -0.0555 0.0391 0.0, -0.0607 -0.0185 0.0, -0.066 -0.0153 0.0, -0.0705 -0.011 0.0, -0.0738 -0.0055 0.0, -0.0761 0.0019 0.0, -0.0716 0.0291 0.0, -0.0678 0.0331 0.0, -0.062 0.0368 0.0
            ]
        }
        coordIndex [
            0,1,2,-1,2,1,3,-1,2,3,4,-1,4,3,5,-1,4,5,6,-1,6,5,7,-1,8,9,10,-1,10,9,11,-1,10,11,12,-1,13,14,10,-1,10,14,15,-1,10,15,16,-1,12,17,10,-1,10,17,18,-1,10,18,19,-1,19,20,10,-1,10,20,21,-1,10,21,13,-1,22,23,15,-1,15,23,24,-1,15,24,16,-1,
        ]
    }
}