#VRML V2.0 utf8
# 3D model generated by easyeda2kicad.py (https://github.com/uPesy/easyeda2kicad.py)

Shape{
    appearance Appearance {
        material  Material 	{
            diffuseColor 1.0 1.0 0.0
            specularColor 0.5019607843137255 0.5019607843137255 0.0
            ambientIntensity 0.886
            transparency 0.0
            shininess 0.5
        }
    }
    geometry IndexedFaceSet {
        ccw TRUE
        solid FALSE
        coord DEF co Coordinate {
            point [
                4.0944 -2.1643 0.1339, 4.0944 -1.8887 0.1339, 3.6749 -2.1643 0.1339, 3.6749 -1.8887 0.1339, 4.0944 -2.1643 0.0158, 4.0944 -1.8887 0.0158, 3.6259 -2.1643 0.0158, 3.6259 -1.8887 0.0158, 3.307 -1.8297 0.3346, 3.4347 -1.8297 0.207, 3.307 -2.2234 0.3346, 3.4347 -1.8887 0.207, 3.4347 -2.2234 0.207, 3.4347 -2.1643 0.207, 2.9133 -2.2234 0.3346, 2.9133 -1.8297 0.3346, 2.9133 -2.2234 0.4528, 2.9133 -1.8297 0.4528, 3.356 -2.2234 0.4528, 3.356 -1.8297 0.4528, 3.4347 -2.2234 0.374, 3.4347 -2.1643 0.374, 3.4347 -1.8297 0.374, 3.4347 -1.8887 0.374, 4.0944 -3.936 0.1339, 4.0944 -3.6604 0.1339, 3.6749 -3.936 0.1339, 3.6749 -3.6604 0.1339, 4.0944 -3.6604 0.0158, 4.0944 -3.936 0.0158, 3.6259 -3.6604 0.0158, 3.6259 -3.936 0.0158, 3.307 -3.6013 0.3346, 3.4347 -3.6013 0.207, 3.307 -3.995 0.3346, 3.4347 -3.6604 0.207, 3.4347 -3.995 0.207, 3.4347 -3.936 0.207, 2.9133 -3.6013 0.3346, 2.9133 -3.995 0.3346, 2.9133 -3.6013 0.4528, 2.9133 -3.995 0.4528, 3.356 -3.6013 0.4528, 3.356 -3.995 0.4528, 3.4347 -3.995 0.374, 3.4347 -3.936 0.374, 3.4347 -3.6013 0.374, 3.4347 -3.6604 0.374
            ]
        }
        coordIndex [
            0,1,2,-1,2,1,3,-1,0,4,1,-1,1,4,5,-1,4,6,5,-1,5,6,7,-1,8,9,10,-1,10,9,11,-1,12,10,13,-1,13,10,11,-1,13,11,6,-1,6,11,7,-1,10,14,8,-1,8,14,15,-1,14,16,15,-1,15,16,17,-1,16,18,17,-1,17,18,19,-1,18,20,19,-1,19,20,21,-1,22,19,23,-1,23,19,21,-1,23,21,3,-1,3,21,2,-1,12,20,10,-1,10,20,18,-1,10,18,14,-1,14,18,16,-1,15,17,8,-1,8,17,19,-1,8,19,9,-1,9,19,22,-1,1,5,3,-1,3,5,7,-1,3,7,23,-1,23,7,11,-1,22,23,9,-1,9,23,11,-1,21,13,2,-1,2,13,6,-1,2,6,0,-1,0,6,4,-1,21,20,13,-1,13,20,12,-1,24,25,26,-1,26,25,27,-1,28,25,29,-1,29,25,24,-1,30,28,31,-1,31,28,29,-1,32,33,34,-1,34,33,35,-1,36,34,37,-1,37,34,35,-1,37,35,31,-1,31,35,30,-1,38,32,39,-1,39,32,34,-1,40,38,41,-1,41,38,39,-1,42,40,43,-1,43,40,41,-1,43,44,42,-1,42,44,45,-1,46,42,47,-1,47,42,45,-1,47,45,27,-1,27,45,26,-1,38,40,32,-1,32,40,42,-1,32,42,33,-1,33,42,46,-1,36,44,34,-1,34,44,43,-1,34,43,39,-1,39,43,41,-1,45,37,26,-1,26,37,31,-1,26,31,24,-1,24,31,29,-1,45,44,37,-1,37,44,36,-1,25,28,27,-1,27,28,30,-1,27,30,47,-1,47,30,35,-1,46,47,33,-1,33,47,35,-1,
        ]
    }
}
Shape{
    appearance Appearance {
        material  Material 	{
            diffuseColor 0.5019607843137255 0.5019607843137255 0.5019607843137255
            specularColor 0.25098039215686274 0.25098039215686274 0.25098039215686274
            ambientIntensity 0.502
            transparency 0.0
            shininess 0.5
        }
    }
    geometry IndexedFaceSet {
        ccw TRUE
        solid FALSE
        coord DEF co Coordinate {
            point [
                1.6929 -5.6486 0.0197, 1.6929 -5.058 0.0197, 2.024 -5.058 0.0197, 2.4225 -3.5396 0.0197, 2.09 -3.578 0.0197, 2.024 -3.5396 0.0197, 2.0468 -3.578 0.0197, 2.0296 -3.62 0.0197, 2.4225 -3.6359 0.0197, 2.4217 -3.6235 0.0197, 2.3817 -3.6702 0.0197, 2.0861 -3.5851 0.0197, 2.3755 -3.6224 0.0197, 2.3565 -3.578 0.0197, 2.4093 -3.578 0.0197, 2.3774 -3.709 0.0197, 2.3668 -3.7383 0.0197, 2.3481 -3.7662 0.0197, 2.3217 -3.7899 0.0197, 2.2912 -3.8059 0.0197, 2.2486 -3.8163 0.0197, 2.2191 -3.8181 0.0197, 2.1765 -3.8141 0.0197, 2.1426 -3.8034 0.0197, 2.0648 -3.6791 0.0197, 2.0959 -3.7687 0.0197, 2.0689 -3.7156 0.0197, 2.0795 -3.7446 0.0197, 2.1153 -3.787 0.0197, 2.0706 -3.6268 0.0197, 2.3165 -3.8501 0.0197, 2.3533 -3.827 0.0197, 2.4225 -3.8877 0.0197, 2.3865 -3.7928 0.0197, 2.0398 -3.7732 0.0197, 2.024 -3.8877 0.0197, 2.0266 -3.7349 0.0197, 2.024 -3.7095 0.0197, 2.0605 -3.8053 0.0197, 2.0918 -3.8348 0.0197, 2.1294 -3.8556 0.0197, 2.4081 -3.756 0.0197, 2.4212 -3.7129 0.0197, 2.4225 -3.698 0.0197, 2.1711 -3.8672 0.0197, 2.2158 -3.8709 0.0197, 2.2717 -3.8652 0.0197, 2.024 -3.6598 0.0197, 2.0218 -3.6756 0.0197, 1.6929 -3.5396 0.0197, 2.1368 -2.7722 0.0197, 2.1092 -2.7816 0.0197, 2.1368 -2.6096 0.0197, 2.0264 -2.5698 0.0197, 2.024 -2.7816 0.0197, 2.0264 -2.5121 0.0197, 2.024 -1.1604 0.0197, 2.4201 -2.6658 0.0197, 2.4225 -1.1604 0.0197, 2.4225 -2.7816 0.0197, 2.0264 -2.8098 0.0197, 2.024 -2.8818 0.0197, 2.0264 -2.8674 0.0197, 2.4225 -2.8818 0.0197, 2.2534 -2.7816 0.0197, 2.4201 -2.7186 0.0197, 2.7028 -2.5645 0.0197, 2.7205 -2.6072 0.0197, 2.5609 -2.7816 0.0197, 2.7487 -2.6439 0.0197, 2.7854 -2.6721 0.0197, 2.8281 -2.6898 0.0197, 3.307 -1.1604 0.0197, 3.0274 -2.4301 0.0197, 2.9992 -2.3934 0.0197, 2.7854 -2.3652 0.0197, 2.7487 -2.3934 0.0197, 2.5609 -1.1604 0.0197, 3.0274 -2.6072 0.0197, 3.0451 -2.5645 0.0197, 3.307 -2.7816 0.0197, 3.0511 -2.5187 0.0197, 3.0451 -2.4728 0.0197, 2.8281 -2.3475 0.0197, 2.874 -2.6958 0.0197, 2.9198 -2.6898 0.0197, 2.7205 -2.4301 0.0197, 2.7028 -2.4728 0.0197, 2.6968 -2.5187 0.0197, 2.9625 -2.6721 0.0197, 2.9992 -2.6439 0.0197, 2.9625 -2.3652 0.0197, 2.9198 -2.3475 0.0197, 2.874 -2.3415 0.0197, 2.3269 -2.9208 0.0197, 2.2885 -2.9044 0.0197, 2.4225 -3.2515 0.0197, 2.4201 -3.102 0.0197, 2.414 -3.0451 0.0197, 2.3979 -2.9991 0.0197, 2.3725 -2.9601 0.0197, 2.3583 -2.9447 0.0197, 2.1343 -2.9159 0.0197, 2.0991 -2.9385 0.0197, 2.0681 -2.9709 0.0197, 2.0442 -3.012 0.0197, 2.0307 -3.0574 0.0197, 2.0264 -3.1061 0.0197, 2.024 -3.2515 0.0197, 2.0264 -3.2131 0.0197, 2.4201 -3.2131 0.0197, 2.2475 -2.897 0.0197, 2.2282 -2.8962 0.0197, 2.1755 -2.9018 0.0197, 1.6929 -1.1604 0.0197, 1.6929 -2.7816 0.0197, 1.6929 -2.8818 0.0197, 1.6929 -3.2515 0.0197, 2.4201 -3.2995 0.0197, 2.3769 -3.2995 0.0197, 2.0696 -3.2899 0.0197, 2.0264 -3.2899 0.0197, 2.0264 -3.5012 0.0197, 2.4201 -3.5012 0.0197, 2.2041 -3.4484 0.0197, 2.0696 -3.4484 0.0197, 2.2041 -3.3091 0.0197, 2.2473 -3.3091 0.0197, 2.2473 -3.4484 0.0197, 2.3769 -3.4484 0.0197, 2.5609 -2.8818 0.0197, 2.5609 -3.2515 0.0197, 2.5609 -3.5396 0.0197, 2.4249 -3.6707 0.0197, 2.0216 -3.6863 0.0197, 1.6929 -3.8877 0.0197, 1.6929 -4.1096 0.0197, 2.024 -4.1096 0.0197, 2.4201 -4.0533 0.0197, 2.0696 -4.0533 0.0197, 2.0696 -3.9045 0.0197, 2.0264 -4.1062 0.0197, 2.4201 -4.1062 0.0197, 2.4225 -4.1096 0.0197, 2.0264 -3.9045 0.0197, 2.5609 -4.1096 0.0197, 2.5609 -3.8877 0.0197, 3.307 -2.8818 0.0197, 3.307 -3.2515 0.0197, 3.307 -3.5396 0.0197, 3.307 -3.8877 0.0197, 3.307 -4.1096 0.0197, 2.9625 -4.4437 0.0197, 2.9992 -4.4156 0.0197, 3.307 -5.058 0.0197, 2.4225 -5.058 0.0197, 2.5609 -5.058 0.0197, 2.6968 -4.2903 0.0197, 2.7028 -4.3362 0.0197, 2.7854 -4.1369 0.0197, 2.7487 -4.165 0.0197, 2.7205 -4.3789 0.0197, 2.7487 -4.4156 0.0197, 2.7854 -4.4437 0.0197, 3.0274 -4.3789 0.0197, 3.0451 -4.3362 0.0197, 3.0511 -4.2903 0.0197, 3.0451 -4.2445 0.0197, 3.0274 -4.2017 0.0197, 2.9992 -4.165 0.0197, 2.9625 -4.1369 0.0197, 2.8281 -4.4614 0.0197, 2.874 -4.4675 0.0197, 2.9198 -4.4614 0.0197, 2.7205 -4.2017 0.0197, 2.7028 -4.2445 0.0197, 2.9198 -4.1192 0.0197, 2.874 -4.1131 0.0197, 2.8281 -4.1192 0.0197, 2.024 -5.6486 0.0197, 2.4225 -5.6486 0.0197, 2.5609 -5.6486 0.0197, 3.307 -5.6486 0.0197, -0.0788 -1.1998 0.2756, -0.0788 -1.1604 1.1024, -0.0788 -1.1604 -0.2756, -0.0788 -5.6459 1.1227, -0.0788 -5.638 1.1417, -0.0788 -5.6255 1.158, -0.0788 -5.6092 0.2756, -0.0788 -5.5698 1.1811, -0.0788 -1.2391 1.1811, -0.0788 -1.1631 1.1227, -0.0788 -1.1998 1.1706, -0.0788 -1.1834 1.158, -0.0788 -1.1709 1.1417, -0.0788 -5.6486 1.1024, -0.0788 -5.6092 1.1706, -0.0788 -5.5902 1.1784, -0.0788 -1.2187 1.1784, -0.0788 -5.6486 -0.2756, -0.0788 -5.6092 -0.2756, -0.0788 -5.6459 -0.296, -0.0788 -5.6079 -0.2858, -0.0788 -5.638 -0.315, -0.0788 -5.6039 -0.2953, -0.0788 -5.6255 -0.3313, -0.0788 -5.5977 -0.3034, -0.0788 -5.6092 -0.3438, -0.0788 -5.5895 -0.3097, -0.0788 -5.5902 -0.3516, -0.0788 -5.58 -0.3136, -0.0788 -5.5698 -0.3543, -0.0788 -5.5698 -0.315, -0.0788 -1.2391 -0.3543, -0.0788 -1.2391 -0.315, -0.0788 -1.2187 -0.3516, -0.0788 -1.2289 -0.3136, -0.0788 -1.1998 -0.3438, -0.0788 -1.2194 -0.3097, -0.0788 -1.1834 -0.3313, -0.0788 -1.2113 -0.3034, -0.0788 -1.1709 -0.315, -0.0788 -1.205 -0.2953, -0.0788 -1.1631 -0.296, -0.0788 -1.2011 -0.2858, -0.0788 -1.1998 -0.2756, 3.307 -4.5856 0.1378, 3.307 -4.9793 0.1378, 3.307 -1.8297 0.1378, 3.307 -3.2076 0.7283, 3.307 -2.8139 0.7283, 3.307 -1.2391 1.1811, 3.307 -1.8297 0.7283, 3.307 -1.1604 1.1024, 3.307 -1.1631 1.1227, 3.307 -1.1709 1.1417, 3.307 -1.1834 1.158, 3.307 -1.1998 1.1706, 3.307 -1.2187 1.1784, 3.307 -2.2234 0.7283, 3.307 -2.8139 0.1378, 3.307 -2.2234 0.1378, 3.307 -5.5902 1.1784, 3.307 -4.9793 0.7283, 3.307 -5.5698 1.1811, 3.307 -4.5856 0.7283, 3.307 -3.2076 0.1378, 3.307 -5.6092 1.1706, 3.307 -5.6255 1.158, 3.307 -5.638 1.1417, 3.307 -5.6459 1.1227, 3.307 -5.6486 1.1024, 3.307 -3.6013 0.1378, 3.307 -3.6013 0.7283, 3.307 -3.995 0.1378, 3.307 -3.995 0.7283, 1.6929 -5.6486 -0.2756, 1.6929 -1.1604 -0.2756, 1.6929 -1.1631 -0.296, 1.6929 -1.1709 -0.315, 1.6929 -1.1834 -0.3313, 1.6929 -1.1998 -0.3438, 1.6929 -1.2187 -0.3516, 1.6929 -1.2391 -0.3543, 1.6929 -5.5698 -0.3543, 1.6929 -5.5902 -0.3516, 1.6929 -5.6092 -0.3438, 1.6929 -5.6255 -0.3313, 1.6929 -5.638 -0.315, 1.6929 -5.6459 -0.296, -3.8977 -5.6092 0.2756, -3.8977 -1.1998 0.2756, -4.0945 -5.6092 0.0787, -4.0945 -5.6092 -0.2756, -4.0945 -5.5698 -0.315, -4.0945 -5.58 -0.3136, -4.0945 -5.5895 -0.3097, -4.0945 -5.5977 -0.3034, -4.0945 -5.6039 -0.2953, -4.0945 -5.6079 -0.2858, -4.0945 -1.2391 -0.315, -4.0945 -1.1998 -0.2756, -4.0945 -1.2011 -0.2858, -4.0945 -1.205 -0.2953, -4.0945 -1.2113 -0.3034, -4.0945 -1.2194 -0.3097, -4.0945 -1.2289 -0.3136, -4.0945 -1.1998 0.0787, 3.0451 -4.2445 -0.1378, 3.0274 -4.2017 -0.1378, 2.9992 -4.165 -0.1378, 2.9625 -4.1369 -0.1378, 2.9198 -4.1192 -0.1378, 2.874 -4.1131 -0.1378, 2.8281 -4.1192 -0.1378, 2.7854 -4.1369 -0.1378, 2.7487 -4.165 -0.1378, 2.7205 -4.2017 -0.1378, 2.7028 -4.2445 -0.1378, 2.6968 -4.2903 -0.1378, 2.7028 -4.3362 -0.1378, 2.7205 -4.3789 -0.1378, 2.7487 -4.4156 -0.1378, 2.7854 -4.4437 -0.1378, 2.8281 -4.4614 -0.1378, 2.874 -4.4675 -0.1378, 2.9198 -4.4614 -0.1378, 2.9625 -4.4437 -0.1378, 2.9992 -4.4156 -0.1378, 3.0274 -4.3789 -0.1378, 3.0451 -4.3362 -0.1378, 3.0511 -4.2903 -0.1378, 2.7546 -4.3592 -0.1772, 2.7409 -4.326 -0.1772, 2.874 -4.2903 -0.1772, 2.7362 -4.2903 -0.1772, 2.7409 -4.2546 -0.1772, 2.8383 -4.4234 -0.1772, 2.8051 -4.4096 -0.1772, 2.7765 -4.3877 -0.1772, 2.9429 -4.4096 -0.1772, 2.9096 -4.4234 -0.1772, 2.874 -4.4281 -0.1772, 3.0071 -4.326 -0.1772, 2.9933 -4.3592 -0.1772, 2.9714 -4.3877 -0.1772, 2.9933 -4.2214 -0.1772, 3.0071 -4.2546 -0.1772, 3.0118 -4.2903 -0.1772, 2.9096 -4.1572 -0.1772, 2.9429 -4.171 -0.1772, 2.9714 -4.1929 -0.1772, 2.8051 -4.171 -0.1772, 2.8383 -4.1572 -0.1772, 2.874 -4.1525 -0.1772, 2.7546 -4.2214 -0.1772, 2.7765 -4.1929 -0.1772, 3.0451 -2.4728 -0.1378, 3.0274 -2.4301 -0.1378, 2.9992 -2.3934 -0.1378, 2.9625 -2.3652 -0.1378, 2.9198 -2.3475 -0.1378, 2.874 -2.3415 -0.1378, 2.8281 -2.3475 -0.1378, 2.7854 -2.3652 -0.1378, 2.7487 -2.3934 -0.1378, 2.7205 -2.4301 -0.1378, 2.7028 -2.4728 -0.1378, 2.6968 -2.5187 -0.1378, 2.7028 -2.5645 -0.1378, 2.7205 -2.6072 -0.1378, 2.7487 -2.6439 -0.1378, 2.7854 -2.6721 -0.1378, 2.8281 -2.6898 -0.1378, 2.874 -2.6958 -0.1378, 2.9198 -2.6898 -0.1378, 2.9625 -2.6721 -0.1378, 2.9992 -2.6439 -0.1378, 3.0274 -2.6072 -0.1378, 3.0451 -2.5645 -0.1378, 3.0511 -2.5187 -0.1378, 2.9933 -2.4498 -0.1772, 3.0071 -2.483 -0.1772, 2.874 -2.5187 -0.1772, 3.0118 -2.5187 -0.1772, 3.0071 -2.5543 -0.1772, 2.9096 -2.3856 -0.1772, 2.9429 -2.3993 -0.1772, 2.9714 -2.4212 -0.1772, 2.8051 -2.3993 -0.1772, 2.8383 -2.3856 -0.1772, 2.874 -2.3809 -0.1772, 2.7409 -2.483 -0.1772, 2.7546 -2.4498 -0.1772, 2.7765 -2.4212 -0.1772, 2.7546 -2.5876 -0.1772, 2.7409 -2.5543 -0.1772, 2.7362 -2.5187 -0.1772, 2.8383 -2.6518 -0.1772, 2.8051 -2.638 -0.1772, 2.7765 -2.6161 -0.1772, 2.9429 -2.638 -0.1772, 2.9096 -2.6518 -0.1772, 2.874 -2.6564 -0.1772, 2.9933 -2.5876 -0.1772, 2.9714 -2.6161 -0.1772, 3.0441 -2.4731 -0.1466, 3.0265 -2.4306 -0.1466, 2.9985 -2.3941 -0.1466, 2.9621 -2.3661 -0.1466, 2.9196 -2.3485 -0.1466, 2.874 -2.3425 -0.1466, 2.8284 -2.3485 -0.1466, 2.7859 -2.3661 -0.1466, 2.7494 -2.3941 -0.1466, 2.7214 -2.4306 -0.1466, 2.7038 -2.4731 -0.1466, 2.6978 -2.5187 -0.1466, 2.7038 -2.5643 -0.1466, 2.7214 -2.6067 -0.1466, 2.7494 -2.6432 -0.1466, 2.7859 -2.6712 -0.1466, 2.8284 -2.6888 -0.1466, 2.874 -2.6948 -0.1466, 2.9196 -2.6888 -0.1466, 2.9621 -2.6712 -0.1466, 2.9985 -2.6432 -0.1466, 3.0265 -2.6067 -0.1466, 3.0441 -2.5643 -0.1466, 3.0501 -2.5187 -0.1466, 3.0413 -2.4738 -0.1549, 3.024 -2.432 -0.1549, 2.9965 -2.3961 -0.1549, 2.9606 -2.3686 -0.1549, 2.9188 -2.3513 -0.1549, 2.874 -2.3454 -0.1549, 2.8291 -2.3513 -0.1549, 2.7873 -2.3686 -0.1549, 2.7514 -2.3961 -0.1549, 2.7239 -2.432 -0.1549, 2.7066 -2.4738 -0.1549, 2.7007 -2.5187 -0.1549, 2.7066 -2.5635 -0.1549, 2.7239 -2.6053 -0.1549, 2.7514 -2.6412 -0.1549, 2.7873 -2.6687 -0.1549, 2.8291 -2.686 -0.1549, 2.874 -2.6919 -0.1549, 2.9188 -2.686 -0.1549, 2.9606 -2.6687 -0.1549, 2.9965 -2.6412 -0.1549, 3.024 -2.6053 -0.1549, 3.0413 -2.5635 -0.1549, 3.0472 -2.5187 -0.1549, 3.0368 -2.475 -0.1623, 3.02 -2.4344 -0.1623, 2.9932 -2.3995 -0.1623, 2.9583 -2.3727 -0.1623, 2.9176 -2.3558 -0.1623, 2.874 -2.3501 -0.1623, 2.8303 -2.3558 -0.1623, 2.7897 -2.3727 -0.1623, 2.7548 -2.3995 -0.1623, 2.728 -2.4344 -0.1623, 2.7111 -2.475 -0.1623, 2.7054 -2.5187 -0.1623, 2.7111 -2.5623 -0.1623, 2.728 -2.6029 -0.1623, 2.7548 -2.6379 -0.1623, 2.7897 -2.6646 -0.1623, 2.8303 -2.6815 -0.1623, 2.874 -2.6872 -0.1623, 2.9176 -2.6815 -0.1623, 2.9583 -2.6646 -0.1623, 2.9932 -2.6379 -0.1623, 3.02 -2.6029 -0.1623, 3.0368 -2.5623 -0.1623, 3.0425 -2.5187 -0.1623, 3.0308 -2.4766 -0.1686, 3.0146 -2.4375 -0.1686, 2.9888 -2.4039 -0.1686, 2.9551 -2.3781 -0.1686, 2.916 -2.3618 -0.1686, 2.874 -2.3563 -0.1686, 2.8319 -2.3618 -0.1686, 2.7928 -2.3781 -0.1686, 2.7592 -2.4039 -0.1686, 2.7334 -2.4375 -0.1686, 2.7172 -2.4766 -0.1686, 2.7116 -2.5187 -0.1686, 2.7172 -2.5607 -0.1686, 2.7334 -2.5998 -0.1686, 2.7592 -2.6334 -0.1686, 2.7928 -2.6592 -0.1686, 2.8319 -2.6755 -0.1686, 2.874 -2.681 -0.1686, 2.916 -2.6755 -0.1686, 2.9551 -2.6592 -0.1686, 2.9888 -2.6334 -0.1686, 3.0146 -2.5998 -0.1686, 3.0308 -2.5607 -0.1686, 3.0363 -2.5187 -0.1686, 3.0236 -2.4786 -0.1733, 3.0081 -2.4412 -0.1733, 2.9835 -2.4091 -0.1733, 2.9514 -2.3845 -0.1733, 2.9141 -2.3691 -0.1733, 2.874 -2.3638 -0.1733, 2.8339 -2.3691 -0.1733, 2.7965 -2.3845 -0.1733, 2.7645 -2.4091 -0.1733, 2.7398 -2.4412 -0.1733, 2.7244 -2.4786 -0.1733, 2.7191 -2.5187 -0.1733, 2.7244 -2.5587 -0.1733, 2.7398 -2.5961 -0.1733, 2.7645 -2.6282 -0.1733, 2.7965 -2.6528 -0.1733, 2.8339 -2.6683 -0.1733, 2.874 -2.6735 -0.1733, 2.9141 -2.6683 -0.1733, 2.9514 -2.6528 -0.1733, 2.9835 -2.6282 -0.1733, 3.0081 -2.5961 -0.1733, 3.0236 -2.5587 -0.1733, 3.0288 -2.5187 -0.1733, 3.0155 -2.4807 -0.1762, 3.0009 -2.4454 -0.1762, 2.9776 -2.415 -0.1762, 2.9472 -2.3917 -0.1762, 2.9119 -2.3771 -0.1762, 2.874 -2.3721 -0.1762, 2.836 -2.3771 -0.1762, 2.8007 -2.3917 -0.1762, 2.7703 -2.415 -0.1762, 2.747 -2.4454 -0.1762, 2.7324 -2.4807 -0.1762, 2.7274 -2.5187 -0.1762, 2.7324 -2.5566 -0.1762, 2.747 -2.5919 -0.1762, 2.7703 -2.6223 -0.1762, 2.8007 -2.6456 -0.1762, 2.836 -2.6602 -0.1762, 2.874 -2.6652 -0.1762, 2.9119 -2.6602 -0.1762, 2.9472 -2.6456 -0.1762, 2.9776 -2.6223 -0.1762, 3.0009 -2.5919 -0.1762, 3.0155 -2.5566 -0.1762, 3.0205 -2.5187 -0.1762, 2.7324 -4.2524 -0.1762, 2.747 -4.217 -0.1762, 2.7703 -4.1867 -0.1762, 2.8007 -4.1634 -0.1762, 2.836 -4.1487 -0.1762, 2.874 -4.1438 -0.1762, 2.9119 -4.1487 -0.1762, 2.9472 -4.1634 -0.1762, 2.9776 -4.1867 -0.1762, 3.0009 -4.217 -0.1762, 3.0155 -4.2524 -0.1762, 3.0205 -4.2903 -0.1762, 3.0155 -4.3282 -0.1762, 3.0009 -4.3636 -0.1762, 2.9776 -4.3939 -0.1762, 2.9472 -4.4172 -0.1762, 2.9119 -4.4319 -0.1762, 2.874 -4.4369 -0.1762, 2.836 -4.4319 -0.1762, 2.8007 -4.4172 -0.1762, 2.7703 -4.3939 -0.1762, 2.747 -4.3636 -0.1762, 2.7324 -4.3282 -0.1762, 2.7274 -4.2903 -0.1762, 2.7244 -4.2502 -0.1733, 2.7398 -4.2129 -0.1733, 2.7645 -4.1808 -0.1733, 2.7965 -4.1562 -0.1733, 2.8339 -4.1407 -0.1733, 2.874 -4.1354 -0.1733, 2.9141 -4.1407 -0.1733, 2.9514 -4.1562 -0.1733, 2.9835 -4.1808 -0.1733, 3.0081 -4.2129 -0.1733, 3.0236 -4.2502 -0.1733, 3.0288 -4.2903 -0.1733, 3.0236 -4.3304 -0.1733, 3.0081 -4.3677 -0.1733, 2.9835 -4.3998 -0.1733, 2.9514 -4.4244 -0.1733, 2.9141 -4.4399 -0.1733, 2.874 -4.4452 -0.1733, 2.8339 -4.4399 -0.1733, 2.7965 -4.4244 -0.1733, 2.7645 -4.3998 -0.1733, 2.7398 -4.3677 -0.1733, 2.7244 -4.3304 -0.1733, 2.7191 -4.2903 -0.1733, 2.7172 -4.2483 -0.1686, 2.7334 -4.2091 -0.1686, 2.7592 -4.1755 -0.1686, 2.7928 -4.1497 -0.1686, 2.8319 -4.1335 -0.1686, 2.874 -4.128 -0.1686, 2.916 -4.1335 -0.1686, 2.9551 -4.1497 -0.1686, 2.9888 -4.1755 -0.1686, 3.0146 -4.2091 -0.1686, 3.0308 -4.2483 -0.1686, 3.0363 -4.2903 -0.1686, 3.0308 -4.3323 -0.1686, 3.0146 -4.3715 -0.1686, 2.9888 -4.4051 -0.1686, 2.9551 -4.4309 -0.1686, 2.916 -4.4471 -0.1686, 2.874 -4.4526 -0.1686, 2.8319 -4.4471 -0.1686, 2.7928 -4.4309 -0.1686, 2.7592 -4.4051 -0.1686, 2.7334 -4.3715 -0.1686, 2.7172 -4.3323 -0.1686, 2.7116 -4.2903 -0.1686, 2.7111 -4.2467 -0.1623, 2.728 -4.206 -0.1623, 2.7548 -4.1711 -0.1623, 2.7897 -4.1443 -0.1623, 2.8303 -4.1275 -0.1623, 2.874 -4.1217 -0.1623, 2.9176 -4.1275 -0.1623, 2.9583 -4.1443 -0.1623, 2.9932 -4.1711 -0.1623, 3.02 -4.206 -0.1623, 3.0368 -4.2467 -0.1623, 3.0425 -4.2903 -0.1623, 3.0368 -4.3339 -0.1623, 3.02 -4.3746 -0.1623, 2.9932 -4.4095 -0.1623, 2.9583 -4.4363 -0.1623, 2.9176 -4.4531 -0.1623, 2.874 -4.4589 -0.1623, 2.8303 -4.4531 -0.1623, 2.7897 -4.4363 -0.1623, 2.7548 -4.4095 -0.1623, 2.728 -4.3746 -0.1623, 2.7111 -4.3339 -0.1623, 2.7054 -4.2903 -0.1623, 2.7066 -4.2455 -0.1549, 2.7239 -4.2037 -0.1549, 2.7514 -4.1678 -0.1549, 2.7873 -4.1403 -0.1549, 2.8291 -4.1229 -0.1549, 2.874 -4.117 -0.1549, 2.9188 -4.1229 -0.1549, 2.9606 -4.1403 -0.1549, 2.9965 -4.1678 -0.1549, 3.024 -4.2037 -0.1549, 3.0413 -4.2455 -0.1549, 3.0472 -4.2903 -0.1549, 3.0413 -4.3352 -0.1549, 3.024 -4.3769 -0.1549, 2.9965 -4.4128 -0.1549, 2.9606 -4.4404 -0.1549, 2.9188 -4.4577 -0.1549, 2.874 -4.4636 -0.1549, 2.8291 -4.4577 -0.1549, 2.7873 -4.4404 -0.1549, 2.7514 -4.4128 -0.1549, 2.7239 -4.3769 -0.1549, 2.7066 -4.3352 -0.1549, 2.7007 -4.2903 -0.1549, 2.7038 -4.2447 -0.1466, 2.7214 -4.2022 -0.1466, 2.7494 -4.1657 -0.1466, 2.7859 -4.1377 -0.1466, 2.8284 -4.1201 -0.1466, 2.874 -4.1141 -0.1466, 2.9196 -4.1201 -0.1466, 2.9621 -4.1377 -0.1466, 2.9985 -4.1657 -0.1466, 3.0265 -4.2022 -0.1466, 3.0441 -4.2447 -0.1466, 3.0501 -4.2903 -0.1466, 3.0441 -4.3359 -0.1466, 3.0265 -4.3784 -0.1466, 2.9985 -4.4149 -0.1466, 2.9621 -4.4429 -0.1466, 2.9196 -4.4605 -0.1466, 2.874 -4.4665 -0.1466, 2.8284 -4.4605 -0.1466, 2.7859 -4.4429 -0.1466, 2.7494 -4.4149 -0.1466, 2.7214 -4.3784 -0.1466, 2.7038 -4.3359 -0.1466, 2.6978 -4.2903 -0.1466, 2.9133 -3.995 0.7283, 2.9133 -3.6013 0.7283, 2.9133 -3.6013 0.1378, 2.9133 -3.995 0.1378, 2.9133 -3.2076 0.7283, 2.9133 -2.8139 0.7283, 2.9133 -2.8139 0.1378, 2.9133 -3.2076 0.1378, 2.9133 -2.2234 0.7283, 2.9133 -1.8297 0.7283, 2.9133 -1.8297 0.1378, 2.9133 -2.2234 0.1378, 2.9133 -4.9793 0.1378, 2.9133 -4.9793 0.7283, 2.9133 -4.5856 0.7283, 2.9133 -4.5856 0.1378
            ]
        }
        coordIndex [
            0,1,2,-1,3,4,5,-1,5,4,6,-1,5,6,7,-1,3,8,9,-1,10,11,12,-1,12,11,4,-1,12,4,13,-1,13,4,3,-1,13,3,14,-1,14,3,9,-1,10,15,11,-1,11,15,16,-1,11,16,17,-1,17,18,11,-1,11,18,19,-1,11,19,20,-1,20,21,11,-1,11,21,22,-1,11,22,23,-1,24,25,26,-1,26,25,27,-1,23,28,11,-1,11,28,25,-1,11,25,29,-1,29,25,24,-1,30,31,32,-1,32,31,33,-1,34,35,36,-1,36,35,37,-1,34,38,35,-1,35,38,39,-1,35,39,40,-1,33,41,32,-1,32,41,42,-1,32,42,43,-1,40,44,35,-1,35,44,45,-1,35,45,32,-1,32,45,46,-1,32,46,30,-1,47,48,49,-1,50,51,52,-1,52,51,53,-1,53,54,55,-1,55,54,56,-1,55,56,57,-1,57,56,58,-1,57,58,59,-1,53,51,54,-1,54,51,60,-1,54,60,61,-1,61,60,62,-1,61,62,63,-1,63,62,64,-1,63,64,59,-1,59,64,65,-1,59,65,57,-1,66,67,68,-1,67,69,68,-1,68,69,70,-1,68,70,71,-1,72,73,74,-1,75,76,77,-1,78,79,80,-1,80,79,81,-1,80,81,72,-1,72,81,82,-1,72,82,73,-1,75,77,83,-1,84,85,80,-1,76,86,77,-1,77,86,87,-1,77,87,68,-1,68,87,88,-1,68,88,66,-1,85,89,80,-1,80,89,90,-1,80,90,78,-1,74,91,72,-1,72,91,92,-1,72,92,77,-1,77,92,93,-1,77,93,83,-1,63,94,95,-1,96,97,63,-1,63,97,98,-1,63,98,99,-1,99,100,63,-1,63,100,101,-1,63,101,94,-1,102,103,61,-1,61,103,104,-1,61,104,105,-1,105,106,61,-1,61,106,107,-1,61,107,108,-1,108,107,109,-1,108,109,96,-1,96,109,110,-1,96,110,97,-1,95,111,63,-1,63,111,112,-1,63,112,61,-1,61,112,113,-1,61,113,102,-1,114,56,115,-1,115,56,54,-1,115,54,116,-1,116,54,61,-1,116,61,117,-1,117,61,108,-1,117,108,49,-1,49,108,5,-1,49,5,47,-1,47,5,7,-1,118,96,3,-1,118,119,96,-1,96,119,120,-1,96,120,108,-1,108,120,121,-1,108,121,5,-1,5,121,122,-1,5,122,3,-1,3,122,123,-1,3,123,118,-1,124,125,126,-1,126,125,120,-1,126,120,127,-1,127,120,119,-1,127,119,128,-1,128,119,129,-1,58,77,59,-1,59,77,68,-1,59,68,63,-1,63,68,130,-1,63,130,96,-1,96,130,131,-1,96,131,3,-1,3,131,132,-1,3,132,8,-1,8,132,133,-1,48,134,49,-1,49,134,37,-1,49,37,135,-1,135,37,35,-1,135,35,136,-1,136,35,137,-1,136,137,1,-1,138,139,140,-1,141,142,143,-1,143,142,138,-1,143,138,32,-1,32,138,140,-1,32,140,35,-1,35,140,144,-1,35,144,137,-1,137,144,141,-1,137,141,143,-1,145,143,146,-1,146,143,32,-1,146,32,132,-1,132,32,43,-1,132,43,133,-1,71,84,68,-1,68,84,80,-1,68,80,130,-1,130,80,147,-1,130,147,131,-1,131,147,148,-1,131,148,132,-1,132,148,149,-1,132,149,146,-1,146,149,150,-1,146,150,145,-1,145,150,151,-1,152,153,154,-1,1,137,2,-1,2,137,143,-1,2,143,155,-1,155,143,145,-1,155,145,156,-1,156,145,157,-1,156,157,158,-1,145,159,160,-1,158,161,156,-1,156,161,162,-1,156,162,163,-1,153,164,154,-1,154,164,165,-1,154,165,151,-1,151,165,166,-1,151,166,167,-1,167,168,151,-1,151,168,169,-1,151,169,170,-1,163,171,156,-1,156,171,172,-1,156,172,154,-1,154,172,173,-1,154,173,152,-1,160,174,145,-1,145,174,175,-1,145,175,157,-1,170,176,151,-1,151,176,177,-1,151,177,145,-1,145,177,178,-1,145,178,159,-1,0,2,179,-1,179,2,155,-1,179,155,180,-1,180,155,156,-1,180,156,181,-1,181,156,154,-1,181,154,182,-1,183,184,185,-1,186,187,188,-1,189,190,183,-1,183,190,191,-1,183,191,184,-1,184,191,192,-1,193,194,195,-1,186,188,196,-1,196,188,197,-1,196,197,198,-1,192,191,195,-1,195,191,199,-1,195,199,193,-1,198,190,196,-1,196,190,189,-1,196,189,200,-1,200,189,201,-1,200,201,202,-1,202,201,203,-1,202,203,204,-1,204,203,205,-1,204,205,206,-1,206,205,207,-1,206,207,208,-1,208,207,209,-1,208,209,210,-1,210,209,211,-1,210,211,212,-1,212,211,213,-1,212,213,214,-1,214,213,215,-1,214,215,216,-1,216,215,217,-1,216,217,218,-1,218,217,219,-1,218,219,220,-1,220,219,221,-1,220,221,222,-1,222,221,223,-1,222,223,224,-1,224,223,225,-1,224,225,185,-1,185,225,226,-1,185,226,183,-1,227,228,154,-1,80,72,229,-1,230,231,232,-1,229,72,233,-1,233,72,234,-1,233,234,235,-1,235,236,233,-1,233,236,237,-1,233,237,238,-1,238,239,233,-1,233,239,232,-1,233,232,240,-1,232,231,240,-1,240,231,241,-1,240,241,242,-1,243,244,245,-1,245,244,246,-1,245,246,232,-1,229,242,80,-1,80,242,241,-1,80,241,147,-1,147,241,247,-1,147,247,148,-1,243,248,244,-1,244,248,249,-1,244,249,250,-1,250,251,244,-1,244,251,252,-1,244,252,228,-1,228,252,182,-1,228,182,154,-1,149,148,253,-1,253,148,247,-1,253,247,254,-1,149,253,150,-1,150,253,255,-1,150,255,151,-1,247,230,254,-1,254,230,232,-1,254,232,256,-1,256,232,246,-1,256,246,255,-1,255,246,227,-1,255,227,151,-1,151,227,154,-1,190,245,191,-1,191,245,232,-1,196,252,251,-1,196,251,186,-1,186,251,250,-1,186,250,187,-1,187,250,249,-1,187,249,188,-1,188,249,248,-1,188,248,197,-1,197,248,243,-1,197,243,198,-1,198,243,245,-1,198,245,190,-1,200,257,196,-1,196,257,0,-1,196,0,252,-1,252,0,179,-1,179,180,252,-1,252,180,181,-1,252,181,182,-1,234,72,77,-1,258,185,114,-1,114,185,184,-1,114,184,56,-1,56,184,234,-1,56,234,58,-1,58,234,77,-1,191,232,239,-1,191,239,199,-1,199,239,238,-1,199,238,193,-1,193,238,237,-1,193,237,194,-1,194,237,236,-1,194,236,195,-1,195,236,235,-1,195,235,192,-1,192,235,234,-1,192,234,184,-1,185,258,259,-1,185,259,224,-1,224,259,260,-1,224,260,222,-1,222,260,261,-1,222,261,220,-1,220,261,262,-1,220,262,218,-1,218,262,263,-1,218,263,216,-1,216,263,264,-1,216,264,214,-1,212,214,265,-1,265,214,264,-1,212,265,266,-1,212,266,210,-1,210,266,267,-1,210,267,208,-1,208,267,268,-1,208,268,206,-1,206,268,269,-1,206,269,204,-1,204,269,270,-1,204,270,202,-1,202,270,257,-1,202,257,200,-1,258,114,115,-1,258,115,259,-1,116,264,115,-1,115,264,263,-1,115,263,262,-1,116,117,264,-1,264,117,49,-1,264,49,265,-1,265,49,135,-1,262,261,115,-1,115,261,260,-1,115,260,259,-1,0,257,1,-1,1,257,270,-1,270,269,1,-1,1,269,268,-1,1,268,267,-1,135,136,265,-1,265,136,1,-1,265,1,266,-1,266,1,267,-1,271,189,272,-1,272,189,183,-1,189,271,201,-1,201,271,273,-1,201,273,274,-1,275,213,211,-1,275,211,276,-1,276,211,209,-1,276,209,277,-1,277,209,207,-1,277,207,278,-1,278,207,205,-1,278,205,279,-1,279,205,203,-1,279,203,280,-1,280,203,201,-1,280,201,274,-1,281,215,275,-1,275,215,213,-1,282,226,225,-1,282,225,283,-1,283,225,223,-1,283,223,284,-1,284,223,221,-1,284,221,285,-1,285,221,219,-1,285,219,286,-1,286,219,217,-1,286,217,287,-1,287,217,215,-1,287,215,281,-1,272,183,288,-1,288,183,226,-1,288,226,282,-1,274,273,282,-1,282,273,288,-1,278,279,280,-1,278,280,277,-1,285,286,284,-1,284,286,287,-1,284,287,283,-1,283,287,282,-1,282,287,281,-1,282,281,274,-1,274,281,275,-1,274,275,280,-1,280,275,276,-1,280,276,277,-1,273,271,288,-1,288,271,272,-1,166,289,167,-1,167,289,290,-1,167,290,168,-1,168,290,291,-1,168,291,169,-1,169,291,292,-1,169,292,170,-1,170,292,293,-1,170,293,176,-1,176,293,294,-1,176,294,177,-1,177,294,295,-1,177,295,178,-1,178,295,296,-1,178,296,159,-1,159,296,297,-1,159,297,160,-1,160,297,298,-1,160,298,174,-1,174,298,299,-1,174,299,175,-1,175,299,300,-1,175,300,157,-1,157,300,301,-1,157,301,158,-1,158,301,302,-1,158,302,161,-1,161,302,303,-1,161,303,162,-1,162,303,304,-1,162,304,163,-1,163,304,305,-1,163,305,171,-1,171,305,306,-1,171,306,172,-1,172,306,307,-1,172,307,173,-1,173,307,308,-1,173,308,152,-1,152,308,309,-1,152,309,153,-1,153,309,310,-1,153,310,164,-1,164,310,311,-1,164,311,165,-1,165,311,312,-1,165,312,166,-1,166,312,289,-1,313,314,315,-1,315,314,316,-1,315,316,317,-1,318,319,315,-1,315,319,320,-1,315,320,313,-1,321,322,315,-1,315,322,323,-1,315,323,318,-1,324,325,315,-1,315,325,326,-1,315,326,321,-1,327,328,315,-1,315,328,329,-1,315,329,324,-1,330,331,315,-1,315,331,332,-1,315,332,327,-1,333,334,315,-1,315,334,335,-1,315,335,330,-1,317,336,315,-1,315,336,337,-1,315,337,333,-1,81,338,82,-1,82,338,339,-1,82,339,73,-1,73,339,340,-1,73,340,74,-1,74,340,341,-1,74,341,91,-1,91,341,342,-1,91,342,92,-1,92,342,343,-1,92,343,93,-1,93,343,344,-1,93,344,83,-1,83,344,345,-1,83,345,75,-1,75,345,346,-1,75,346,76,-1,76,346,347,-1,76,347,86,-1,86,347,348,-1,86,348,87,-1,87,348,349,-1,87,349,88,-1,88,349,350,-1,88,350,66,-1,66,350,351,-1,66,351,67,-1,67,351,352,-1,67,352,69,-1,69,352,353,-1,69,353,70,-1,70,353,354,-1,70,354,71,-1,71,354,355,-1,71,355,84,-1,84,355,356,-1,84,356,85,-1,85,356,357,-1,85,357,89,-1,89,357,358,-1,89,358,90,-1,90,358,359,-1,90,359,78,-1,78,359,360,-1,78,360,79,-1,79,360,361,-1,79,361,81,-1,81,361,338,-1,362,363,364,-1,364,363,365,-1,364,365,366,-1,367,368,364,-1,364,368,369,-1,364,369,362,-1,370,371,364,-1,364,371,372,-1,364,372,367,-1,373,374,364,-1,364,374,375,-1,364,375,370,-1,376,377,364,-1,364,377,378,-1,364,378,373,-1,379,380,364,-1,364,380,381,-1,364,381,376,-1,382,383,364,-1,364,383,384,-1,364,384,379,-1,366,385,364,-1,364,385,386,-1,364,386,382,-1,361,387,338,-1,338,387,388,-1,338,388,339,-1,339,388,389,-1,339,389,340,-1,340,389,390,-1,340,390,341,-1,341,390,391,-1,341,391,342,-1,342,391,392,-1,342,392,343,-1,343,392,393,-1,343,393,344,-1,344,393,394,-1,344,394,345,-1,345,394,395,-1,345,395,346,-1,346,395,396,-1,346,396,347,-1,347,396,397,-1,347,397,348,-1,348,397,398,-1,348,398,349,-1,349,398,399,-1,349,399,350,-1,350,399,400,-1,350,400,351,-1,351,400,401,-1,351,401,352,-1,352,401,402,-1,352,402,353,-1,353,402,403,-1,353,403,354,-1,354,403,404,-1,354,404,355,-1,355,404,405,-1,355,405,356,-1,356,405,406,-1,356,406,357,-1,357,406,407,-1,357,407,358,-1,358,407,408,-1,358,408,359,-1,359,408,409,-1,359,409,360,-1,360,409,410,-1,360,410,361,-1,361,410,387,-1,410,411,387,-1,387,411,412,-1,387,412,388,-1,388,412,413,-1,388,413,389,-1,389,413,414,-1,389,414,390,-1,390,414,415,-1,390,415,391,-1,391,415,416,-1,391,416,392,-1,392,416,417,-1,392,417,393,-1,393,417,418,-1,393,418,394,-1,394,418,419,-1,394,419,395,-1,395,419,420,-1,395,420,396,-1,396,420,421,-1,396,421,397,-1,397,421,422,-1,397,422,398,-1,398,422,423,-1,398,423,399,-1,399,423,424,-1,399,424,400,-1,400,424,425,-1,400,425,401,-1,401,425,426,-1,401,426,402,-1,402,426,427,-1,402,427,403,-1,403,427,428,-1,403,428,404,-1,404,428,429,-1,404,429,405,-1,405,429,430,-1,405,430,406,-1,406,430,431,-1,406,431,407,-1,407,431,432,-1,407,432,408,-1,408,432,433,-1,408,433,409,-1,409,433,434,-1,409,434,410,-1,410,434,411,-1,434,435,411,-1,411,435,436,-1,411,436,412,-1,412,436,437,-1,412,437,413,-1,413,437,438,-1,413,438,414,-1,414,438,439,-1,414,439,415,-1,415,439,440,-1,415,440,416,-1,416,440,441,-1,416,441,417,-1,417,441,442,-1,417,442,418,-1,418,442,443,-1,418,443,419,-1,419,443,444,-1,419,444,420,-1,420,444,445,-1,420,445,421,-1,421,445,446,-1,421,446,422,-1,422,446,447,-1,422,447,423,-1,423,447,448,-1,423,448,424,-1,424,448,449,-1,424,449,425,-1,425,449,450,-1,425,450,426,-1,426,450,451,-1,426,451,427,-1,427,451,452,-1,427,452,428,-1,428,452,453,-1,428,453,429,-1,429,453,454,-1,429,454,430,-1,430,454,455,-1,430,455,431,-1,431,455,456,-1,431,456,432,-1,432,456,457,-1,432,457,433,-1,433,457,458,-1,433,458,434,-1,434,458,435,-1,458,459,435,-1,435,459,460,-1,435,460,436,-1,436,460,461,-1,436,461,437,-1,437,461,462,-1,437,462,438,-1,438,462,463,-1,438,463,439,-1,439,463,464,-1,439,464,440,-1,440,464,465,-1,440,465,441,-1,441,465,466,-1,441,466,442,-1,442,466,467,-1,442,467,443,-1,443,467,468,-1,443,468,444,-1,444,468,469,-1,444,469,445,-1,445,469,470,-1,445,470,446,-1,446,470,471,-1,446,471,447,-1,447,471,472,-1,447,472,448,-1,448,472,473,-1,448,473,449,-1,449,473,474,-1,449,474,450,-1,450,474,475,-1,450,475,451,-1,451,475,476,-1,451,476,452,-1,452,476,477,-1,452,477,453,-1,453,477,478,-1,453,478,454,-1,454,478,479,-1,454,479,455,-1,455,479,480,-1,455,480,456,-1,456,480,481,-1,456,481,457,-1,457,481,482,-1,457,482,458,-1,458,482,459,-1,482,483,459,-1,459,483,484,-1,459,484,460,-1,460,484,485,-1,460,485,461,-1,461,485,486,-1,461,486,462,-1,462,486,487,-1,462,487,463,-1,463,487,488,-1,463,488,464,-1,464,488,489,-1,464,489,465,-1,465,489,490,-1,465,490,466,-1,466,490,491,-1,466,491,467,-1,467,491,492,-1,467,492,468,-1,468,492,493,-1,468,493,469,-1,469,493,494,-1,469,494,470,-1,470,494,495,-1,470,495,471,-1,471,495,496,-1,471,496,472,-1,472,496,497,-1,472,497,473,-1,473,497,498,-1,473,498,474,-1,474,498,499,-1,474,499,475,-1,475,499,500,-1,475,500,476,-1,476,500,501,-1,476,501,477,-1,477,501,502,-1,477,502,478,-1,478,502,503,-1,478,503,479,-1,479,503,504,-1,479,504,480,-1,480,504,505,-1,480,505,481,-1,481,505,506,-1,481,506,482,-1,482,506,483,-1,506,507,483,-1,483,507,508,-1,483,508,484,-1,484,508,509,-1,484,509,485,-1,485,509,510,-1,485,510,486,-1,486,510,511,-1,486,511,487,-1,487,511,512,-1,487,512,488,-1,488,512,513,-1,488,513,489,-1,489,513,514,-1,489,514,490,-1,490,514,515,-1,490,515,491,-1,491,515,516,-1,491,516,492,-1,492,516,517,-1,492,517,493,-1,493,517,518,-1,493,518,494,-1,494,518,519,-1,494,519,495,-1,495,519,520,-1,495,520,496,-1,496,520,521,-1,496,521,497,-1,497,521,522,-1,497,522,498,-1,498,522,523,-1,498,523,499,-1,499,523,524,-1,499,524,500,-1,500,524,525,-1,500,525,501,-1,501,525,526,-1,501,526,502,-1,502,526,527,-1,502,527,503,-1,503,527,528,-1,503,528,504,-1,504,528,529,-1,504,529,505,-1,505,529,530,-1,505,530,506,-1,506,530,507,-1,530,363,507,-1,507,363,362,-1,507,362,508,-1,508,362,369,-1,508,369,509,-1,509,369,368,-1,509,368,510,-1,510,368,367,-1,510,367,511,-1,511,367,372,-1,511,372,512,-1,512,372,371,-1,512,371,513,-1,513,371,370,-1,513,370,514,-1,514,370,375,-1,514,375,515,-1,515,375,374,-1,515,374,516,-1,516,374,373,-1,516,373,517,-1,517,373,378,-1,517,378,518,-1,518,378,377,-1,518,377,519,-1,519,377,376,-1,519,376,520,-1,520,376,381,-1,520,381,521,-1,521,381,380,-1,521,380,522,-1,522,380,379,-1,522,379,523,-1,523,379,384,-1,523,384,524,-1,524,384,383,-1,524,383,525,-1,525,383,382,-1,525,382,526,-1,526,382,386,-1,526,386,527,-1,527,386,385,-1,527,385,528,-1,528,385,366,-1,528,366,529,-1,529,366,365,-1,529,365,530,-1,530,365,363,-1,316,531,317,-1,317,531,532,-1,317,532,336,-1,336,532,533,-1,336,533,337,-1,337,533,534,-1,337,534,333,-1,333,534,535,-1,333,535,334,-1,334,535,536,-1,334,536,335,-1,335,536,537,-1,335,537,330,-1,330,537,538,-1,330,538,331,-1,331,538,539,-1,331,539,332,-1,332,539,540,-1,332,540,327,-1,327,540,541,-1,327,541,328,-1,328,541,542,-1,328,542,329,-1,329,542,543,-1,329,543,324,-1,324,543,544,-1,324,544,325,-1,325,544,545,-1,325,545,326,-1,326,545,546,-1,326,546,321,-1,321,546,547,-1,321,547,322,-1,322,547,548,-1,322,548,323,-1,323,548,549,-1,323,549,318,-1,318,549,550,-1,318,550,319,-1,319,550,551,-1,319,551,320,-1,320,551,552,-1,320,552,313,-1,313,552,553,-1,313,553,314,-1,314,553,554,-1,314,554,316,-1,316,554,531,-1,554,555,531,-1,531,555,556,-1,531,556,532,-1,532,556,557,-1,532,557,533,-1,533,557,558,-1,533,558,534,-1,534,558,559,-1,534,559,535,-1,535,559,560,-1,535,560,536,-1,536,560,561,-1,536,561,537,-1,537,561,562,-1,537,562,538,-1,538,562,563,-1,538,563,539,-1,539,563,564,-1,539,564,540,-1,540,564,565,-1,540,565,541,-1,541,565,566,-1,541,566,542,-1,542,566,567,-1,542,567,543,-1,543,567,568,-1,543,568,544,-1,544,568,569,-1,544,569,545,-1,545,569,570,-1,545,570,546,-1,546,570,571,-1,546,571,547,-1,547,571,572,-1,547,572,548,-1,548,572,573,-1,548,573,549,-1,549,573,574,-1,549,574,550,-1,550,574,575,-1,550,575,551,-1,551,575,576,-1,551,576,552,-1,552,576,577,-1,552,577,553,-1,553,577,578,-1,553,578,554,-1,554,578,555,-1,578,579,555,-1,555,579,580,-1,555,580,556,-1,556,580,581,-1,556,581,557,-1,557,581,582,-1,557,582,558,-1,558,582,583,-1,558,583,559,-1,559,583,584,-1,559,584,560,-1,560,584,585,-1,560,585,561,-1,561,585,586,-1,561,586,562,-1,562,586,587,-1,562,587,563,-1,563,587,588,-1,563,588,564,-1,564,588,589,-1,564,589,565,-1,565,589,590,-1,565,590,566,-1,566,590,591,-1,566,591,567,-1,567,591,592,-1,567,592,568,-1,568,592,593,-1,568,593,569,-1,569,593,594,-1,569,594,570,-1,570,594,595,-1,570,595,571,-1,571,595,596,-1,571,596,572,-1,572,596,597,-1,572,597,573,-1,573,597,598,-1,573,598,574,-1,574,598,599,-1,574,599,575,-1,575,599,600,-1,575,600,576,-1,576,600,601,-1,576,601,577,-1,577,601,602,-1,577,602,578,-1,578,602,579,-1,602,603,579,-1,579,603,604,-1,579,604,580,-1,580,604,605,-1,580,605,581,-1,581,605,606,-1,581,606,582,-1,582,606,607,-1,582,607,583,-1,583,607,608,-1,583,608,584,-1,584,608,609,-1,584,609,585,-1,585,609,610,-1,585,610,586,-1,586,610,611,-1,586,611,587,-1,587,611,612,-1,587,612,588,-1,588,612,613,-1,588,613,589,-1,589,613,614,-1,589,614,590,-1,590,614,615,-1,590,615,591,-1,591,615,616,-1,591,616,592,-1,592,616,617,-1,592,617,593,-1,593,617,618,-1,593,618,594,-1,594,618,619,-1,594,619,595,-1,595,619,620,-1,595,620,596,-1,596,620,621,-1,596,621,597,-1,597,621,622,-1,597,622,598,-1,598,622,623,-1,598,623,599,-1,599,623,624,-1,599,624,600,-1,600,624,625,-1,600,625,601,-1,601,625,626,-1,601,626,602,-1,602,626,603,-1,626,627,603,-1,603,627,628,-1,603,628,604,-1,604,628,629,-1,604,629,605,-1,605,629,630,-1,605,630,606,-1,606,630,631,-1,606,631,607,-1,607,631,632,-1,607,632,608,-1,608,632,633,-1,608,633,609,-1,609,633,634,-1,609,634,610,-1,610,634,635,-1,610,635,611,-1,611,635,636,-1,611,636,612,-1,612,636,637,-1,612,637,613,-1,613,637,638,-1,613,638,614,-1,614,638,639,-1,614,639,615,-1,615,639,640,-1,615,640,616,-1,616,640,641,-1,616,641,617,-1,617,641,642,-1,617,642,618,-1,618,642,643,-1,618,643,619,-1,619,643,644,-1,619,644,620,-1,620,644,645,-1,620,645,621,-1,621,645,646,-1,621,646,622,-1,622,646,647,-1,622,647,623,-1,623,647,648,-1,623,648,624,-1,624,648,649,-1,624,649,625,-1,625,649,650,-1,625,650,626,-1,626,650,627,-1,650,651,627,-1,627,651,652,-1,627,652,628,-1,628,652,653,-1,628,653,629,-1,629,653,654,-1,629,654,630,-1,630,654,655,-1,630,655,631,-1,631,655,656,-1,631,656,632,-1,632,656,657,-1,632,657,633,-1,633,657,658,-1,633,658,634,-1,634,658,659,-1,634,659,635,-1,635,659,660,-1,635,660,636,-1,636,660,661,-1,636,661,637,-1,637,661,662,-1,637,662,638,-1,638,662,663,-1,638,663,639,-1,639,663,664,-1,639,664,640,-1,640,664,665,-1,640,665,641,-1,641,665,666,-1,641,666,642,-1,642,666,667,-1,642,667,643,-1,643,667,668,-1,643,668,644,-1,644,668,669,-1,644,669,645,-1,645,669,670,-1,645,670,646,-1,646,670,671,-1,646,671,647,-1,647,671,672,-1,647,672,648,-1,648,672,673,-1,648,673,649,-1,649,673,674,-1,649,674,650,-1,650,674,651,-1,674,299,651,-1,651,299,298,-1,651,298,652,-1,652,298,297,-1,652,297,653,-1,653,297,296,-1,653,296,654,-1,654,296,295,-1,654,295,655,-1,655,295,294,-1,655,294,656,-1,656,294,293,-1,656,293,657,-1,657,293,292,-1,657,292,658,-1,658,292,291,-1,658,291,659,-1,659,291,290,-1,659,290,660,-1,660,290,289,-1,660,289,661,-1,661,289,312,-1,661,312,662,-1,662,312,311,-1,662,311,663,-1,663,311,310,-1,663,310,664,-1,664,310,309,-1,664,309,665,-1,665,309,308,-1,665,308,666,-1,666,308,307,-1,666,307,667,-1,667,307,306,-1,667,306,668,-1,668,306,305,-1,668,305,669,-1,669,305,304,-1,669,304,670,-1,670,304,303,-1,670,303,671,-1,671,303,302,-1,671,302,672,-1,672,302,301,-1,672,301,673,-1,673,301,300,-1,673,300,674,-1,674,300,299,-1,675,676,256,-1,256,676,254,-1,676,677,254,-1,254,677,253,-1,677,678,253,-1,253,678,255,-1,678,675,255,-1,255,675,256,-1,678,677,675,-1,675,677,676,-1,679,680,230,-1,230,680,231,-1,680,681,231,-1,231,681,241,-1,681,682,241,-1,241,682,247,-1,682,679,247,-1,247,679,230,-1,682,681,679,-1,679,681,680,-1,683,684,240,-1,240,684,233,-1,684,685,233,-1,233,685,229,-1,685,686,229,-1,229,686,242,-1,686,683,242,-1,242,683,240,-1,686,685,683,-1,683,685,684,-1,687,688,228,-1,228,688,244,-1,688,689,244,-1,244,689,246,-1,689,690,246,-1,246,690,227,-1,690,687,227,-1,227,687,228,-1,690,689,687,-1,687,689,688,-1,
        ]
    }
}
Shape{
    appearance Appearance {
        material  Material 	{
            diffuseColor 0.0 0.0 0.0
            specularColor 0.0 0.0 0.0
            ambientIntensity 0.0
            transparency 0.0
            shininess 0.5
        }
    }
    geometry IndexedFaceSet {
        ccw TRUE
        solid FALSE
        coord DEF co Coordinate {
            point [
                2.4201 -2.6658 0.0201, 2.0264 -2.5121 0.0201, 2.4201 -2.6658 0.0197, 2.0264 -2.5121 0.0197, 2.0264 -2.5698 0.0201, 2.0264 -2.5698 0.0197, 2.1368 -2.6096 0.0201, 2.1368 -2.6096 0.0197, 2.1368 -2.7722 0.0201, 2.1368 -2.7722 0.0197, 2.1092 -2.7816 0.0197, 2.0264 -2.8098 0.0201, 2.0264 -2.8098 0.0197, 2.0264 -2.8674 0.0201, 2.0264 -2.8674 0.0197, 2.2534 -2.7816 0.0197, 2.4201 -2.7186 0.0201, 2.4201 -2.7186 0.0197, 2.18 -2.759 0.0201, 2.3445 -2.7002 0.0201, 2.3581 -2.6964 0.0201, 2.3721 -2.6939 0.0201, 2.3721 -2.6926 0.0201, 2.3582 -2.6901 0.0201, 2.18 -2.6273 0.0201, 2.3445 -2.6866 0.0201, 2.18 -2.759 0.0197, 2.18 -2.6273 0.0197, 2.3445 -2.7002 0.0197, 2.3581 -2.6964 0.0197, 2.3721 -2.6939 0.0197, 2.3721 -2.6926 0.0197, 2.3582 -2.6901 0.0197, 2.3445 -2.6866 0.0197, 2.0264 -3.1061 0.0201, 2.0264 -3.2131 0.0201, 2.0264 -3.1061 0.0197, 2.0264 -3.2131 0.0197, 2.4201 -3.2131 0.0201, 2.4201 -3.2131 0.0197, 2.4201 -3.102 0.0201, 2.4201 -3.102 0.0197, 2.2282 -2.8962 0.0201, 2.2282 -2.8962 0.0197, 2.2475 -2.897 0.0197, 2.2475 -2.897 0.0201, 2.2885 -2.9044 0.0197, 2.2885 -2.9044 0.0201, 2.3269 -2.9208 0.0197, 2.3269 -2.9208 0.0201, 2.3583 -2.9447 0.0197, 2.3583 -2.9447 0.0201, 2.3725 -2.9601 0.0197, 2.3725 -2.9601 0.0201, 2.3979 -2.9991 0.0197, 2.3979 -2.9991 0.0201, 2.414 -3.0451 0.0197, 2.414 -3.0451 0.0201, 2.0307 -3.0574 0.0197, 2.0307 -3.0574 0.0201, 2.0442 -3.012 0.0197, 2.0442 -3.012 0.0201, 2.0681 -2.9709 0.0197, 2.0681 -2.9709 0.0201, 2.0991 -2.9385 0.0197, 2.0991 -2.9385 0.0201, 2.1343 -2.9159 0.0197, 2.1343 -2.9159 0.0201, 2.1755 -2.9018 0.0197, 2.1755 -2.9018 0.0201, 2.2271 -2.9491 0.0201, 2.2663 -2.9524 0.0201, 2.2974 -2.9616 0.0201, 2.3215 -2.9751 0.0201, 2.3419 -2.9942 0.0201, 2.3605 -3.023 0.0201, 2.3719 -3.0554 0.0201, 2.3769 -3.1022 0.0201, 2.3769 -3.1603 0.0201, 2.0696 -3.1603 0.0201, 2.0696 -3.1044 0.0201, 2.0735 -3.0629 0.0201, 2.0838 -3.0298 0.0201, 2.0995 -3.0032 0.0201, 2.1212 -2.9812 0.0201, 2.1484 -2.9644 0.0201, 2.1793 -2.954 0.0201, 2.3769 -3.1022 0.0197, 2.3769 -3.1603 0.0197, 2.3719 -3.0554 0.0197, 2.3605 -3.023 0.0197, 2.3419 -2.9942 0.0197, 2.3215 -2.9751 0.0197, 2.2974 -2.9616 0.0197, 2.2663 -2.9524 0.0197, 2.2271 -2.9491 0.0197, 2.1793 -2.954 0.0197, 2.1484 -2.9644 0.0197, 2.1212 -2.9812 0.0197, 2.0995 -3.0032 0.0197, 2.0838 -3.0298 0.0197, 2.0735 -3.0629 0.0197, 2.0696 -3.1044 0.0197, 2.0696 -3.1603 0.0197, 2.0696 -3.2899 0.0201, 2.0264 -3.2899 0.0201, 2.0696 -3.2899 0.0197, 2.0264 -3.2899 0.0197, 2.0264 -3.5012 0.0201, 2.0264 -3.5012 0.0197, 2.4201 -3.5012 0.0201, 2.4201 -3.5012 0.0197, 2.4201 -3.2995 0.0201, 2.4201 -3.2995 0.0197, 2.3769 -3.2995 0.0201, 2.3769 -3.2995 0.0197, 2.3769 -3.4484 0.0201, 2.3769 -3.4484 0.0197, 2.2473 -3.4484 0.0201, 2.2473 -3.4484 0.0197, 2.2473 -3.3091 0.0201, 2.2473 -3.3091 0.0197, 2.2041 -3.3091 0.0201, 2.2041 -3.3091 0.0197, 2.2041 -3.4484 0.0201, 2.2041 -3.4484 0.0197, 2.0696 -3.4484 0.0201, 2.0696 -3.4484 0.0197, 2.09 -3.578 0.0201, 2.0468 -3.578 0.0201, 2.09 -3.578 0.0197, 2.0468 -3.578 0.0197, 2.0296 -3.62 0.0201, 2.0216 -3.6863 0.0201, 2.0216 -3.6863 0.0197, 2.0218 -3.6756 0.0197, 2.0218 -3.6756 0.0201, 2.024 -3.6598 0.0197, 2.0296 -3.62 0.0197, 2.024 -3.7095 0.0197, 2.0266 -3.7349 0.0201, 2.0266 -3.7349 0.0197, 2.0398 -3.7732 0.0201, 2.0398 -3.7732 0.0197, 2.0605 -3.8053 0.0201, 2.0605 -3.8053 0.0197, 2.0918 -3.8348 0.0201, 2.0918 -3.8348 0.0197, 2.1294 -3.8556 0.0201, 2.1294 -3.8556 0.0197, 2.1711 -3.8672 0.0201, 2.1711 -3.8672 0.0197, 2.2158 -3.8709 0.0201, 2.2158 -3.8709 0.0197, 2.4212 -3.7129 0.0201, 2.4249 -3.6707 0.0201, 2.4225 -3.698 0.0197, 2.4249 -3.6707 0.0197, 2.4212 -3.7129 0.0197, 2.4081 -3.756 0.0197, 2.4081 -3.756 0.0201, 2.3865 -3.7928 0.0197, 2.3865 -3.7928 0.0201, 2.3533 -3.827 0.0197, 2.3533 -3.827 0.0201, 2.3165 -3.8501 0.0197, 2.3165 -3.8501 0.0201, 2.2717 -3.8652 0.0197, 2.2717 -3.8652 0.0201, 2.4225 -3.6359 0.0197, 2.4217 -3.6235 0.0201, 2.4217 -3.6235 0.0197, 2.4093 -3.578 0.0201, 2.4093 -3.578 0.0197, 2.3565 -3.578 0.0201, 2.3565 -3.578 0.0197, 2.3817 -3.6702 0.0201, 2.3817 -3.6702 0.0197, 2.3755 -3.6224 0.0197, 2.3755 -3.6224 0.0201, 2.2191 -3.8181 0.0201, 2.2191 -3.8181 0.0197, 2.2486 -3.8163 0.0197, 2.2486 -3.8163 0.0201, 2.2912 -3.8059 0.0197, 2.2912 -3.8059 0.0201, 2.3217 -3.7899 0.0197, 2.3217 -3.7899 0.0201, 2.3481 -3.7662 0.0197, 2.3481 -3.7662 0.0201, 2.3668 -3.7383 0.0197, 2.3668 -3.7383 0.0201, 2.3774 -3.709 0.0197, 2.3774 -3.709 0.0201, 2.0648 -3.6791 0.0201, 2.0648 -3.6791 0.0197, 2.0689 -3.7156 0.0197, 2.0689 -3.7156 0.0201, 2.0795 -3.7446 0.0197, 2.0795 -3.7446 0.0201, 2.0959 -3.7687 0.0197, 2.0959 -3.7687 0.0201, 2.1153 -3.787 0.0197, 2.1153 -3.787 0.0201, 2.1426 -3.8034 0.0197, 2.1426 -3.8034 0.0201, 2.1765 -3.8141 0.0197, 2.1765 -3.8141 0.0201, 2.0861 -3.5851 0.0197, 2.0861 -3.5851 0.0201, 2.0706 -3.6268 0.0197, 2.0706 -3.6268 0.0201, 2.0696 -3.9045 0.0201, 2.0264 -3.9045 0.0201, 2.0696 -3.9045 0.0197, 2.0264 -3.9045 0.0197, 2.0264 -4.1062 0.0201, 2.0264 -4.1062 0.0197, 2.4201 -4.1062 0.0201, 2.4201 -4.1062 0.0197, 2.4201 -4.0533 0.0201, 2.4201 -4.0533 0.0197, 2.0696 -4.0533 0.0201, 2.0696 -4.0533 0.0197
            ]
        }
        coordIndex [
            0,1,2,-1,2,1,3,-1,1,4,3,-1,3,4,5,-1,4,6,5,-1,5,6,7,-1,6,8,7,-1,7,8,9,-1,9,8,10,-1,10,8,11,-1,10,11,12,-1,11,13,12,-1,12,13,14,-1,14,13,15,-1,15,13,16,-1,15,16,17,-1,16,0,17,-1,17,0,2,-1,18,19,16,-1,13,11,8,-1,19,20,16,-1,16,20,21,-1,16,21,0,-1,0,21,22,-1,0,22,23,-1,16,13,18,-1,18,13,8,-1,18,8,24,-1,24,8,6,-1,23,25,0,-1,0,25,24,-1,0,24,1,-1,1,24,6,-1,1,6,4,-1,18,24,26,-1,26,24,27,-1,19,18,28,-1,28,18,26,-1,19,28,29,-1,19,29,20,-1,20,29,30,-1,20,30,21,-1,22,21,31,-1,31,21,30,-1,22,31,32,-1,22,32,23,-1,23,32,33,-1,23,33,25,-1,24,25,27,-1,27,25,33,-1,34,35,36,-1,36,35,37,-1,35,38,37,-1,37,38,39,-1,38,40,39,-1,39,40,41,-1,42,43,44,-1,42,44,45,-1,45,44,46,-1,45,46,47,-1,47,46,48,-1,47,48,49,-1,49,48,50,-1,49,50,51,-1,51,50,52,-1,51,52,53,-1,53,52,54,-1,53,54,55,-1,55,54,56,-1,55,56,57,-1,57,56,41,-1,57,41,40,-1,34,36,58,-1,34,58,59,-1,59,58,60,-1,59,60,61,-1,61,60,62,-1,61,62,63,-1,63,62,64,-1,63,64,65,-1,65,64,66,-1,65,66,67,-1,67,66,68,-1,67,68,69,-1,69,68,43,-1,69,43,42,-1,69,42,70,-1,70,42,45,-1,70,45,71,-1,71,45,47,-1,71,47,72,-1,72,47,49,-1,72,49,73,-1,73,49,51,-1,73,51,74,-1,74,51,53,-1,74,53,75,-1,75,53,55,-1,75,55,76,-1,76,55,57,-1,76,57,77,-1,77,57,40,-1,77,40,78,-1,78,40,38,-1,78,38,79,-1,79,38,35,-1,79,35,80,-1,80,35,34,-1,80,34,81,-1,81,34,59,-1,81,59,82,-1,82,59,61,-1,82,61,83,-1,83,61,63,-1,83,63,84,-1,84,63,65,-1,84,65,85,-1,85,65,67,-1,85,67,86,-1,86,67,69,-1,86,69,70,-1,77,78,87,-1,87,78,88,-1,77,87,89,-1,77,89,76,-1,76,89,90,-1,76,90,75,-1,75,90,91,-1,75,91,74,-1,74,91,92,-1,74,92,73,-1,73,92,93,-1,73,93,72,-1,72,93,94,-1,72,94,71,-1,71,94,95,-1,71,95,70,-1,70,95,96,-1,70,96,86,-1,86,96,97,-1,86,97,85,-1,85,97,98,-1,85,98,84,-1,84,98,99,-1,84,99,83,-1,83,99,100,-1,83,100,82,-1,82,100,101,-1,82,101,81,-1,81,101,102,-1,81,102,80,-1,79,80,103,-1,103,80,102,-1,78,79,88,-1,88,79,103,-1,104,105,106,-1,106,105,107,-1,105,108,107,-1,107,108,109,-1,108,110,109,-1,109,110,111,-1,110,112,111,-1,111,112,113,-1,112,114,113,-1,113,114,115,-1,114,116,115,-1,115,116,117,-1,116,118,117,-1,117,118,119,-1,118,120,119,-1,119,120,121,-1,120,122,121,-1,121,122,123,-1,122,124,123,-1,123,124,125,-1,124,126,125,-1,125,126,127,-1,126,104,127,-1,127,104,106,-1,108,105,104,-1,104,126,108,-1,108,126,124,-1,108,124,110,-1,114,112,116,-1,116,112,110,-1,116,110,118,-1,118,110,124,-1,118,124,120,-1,120,124,122,-1,128,129,130,-1,130,129,131,-1,131,129,132,-1,133,134,135,-1,133,135,136,-1,136,135,137,-1,136,137,132,-1,132,137,138,-1,132,138,131,-1,134,133,139,-1,139,133,140,-1,139,140,141,-1,141,140,142,-1,141,142,143,-1,143,142,144,-1,143,144,145,-1,145,144,146,-1,145,146,147,-1,147,146,148,-1,147,148,149,-1,149,148,150,-1,149,150,151,-1,151,150,152,-1,151,152,153,-1,154,155,156,-1,156,155,157,-1,156,158,154,-1,154,158,159,-1,154,159,160,-1,160,159,161,-1,160,161,162,-1,162,161,163,-1,162,163,164,-1,164,163,165,-1,164,165,166,-1,166,165,167,-1,166,167,168,-1,168,167,153,-1,168,153,152,-1,157,155,169,-1,169,155,170,-1,169,170,171,-1,171,170,172,-1,171,172,173,-1,172,174,173,-1,173,174,175,-1,176,177,178,-1,176,178,179,-1,179,178,175,-1,179,175,174,-1,180,181,182,-1,180,182,183,-1,183,182,184,-1,183,184,185,-1,185,184,186,-1,185,186,187,-1,187,186,188,-1,187,188,189,-1,189,188,190,-1,189,190,191,-1,191,190,192,-1,191,192,193,-1,193,192,177,-1,193,177,176,-1,194,195,196,-1,194,196,197,-1,197,196,198,-1,197,198,199,-1,199,198,200,-1,199,200,201,-1,201,200,202,-1,201,202,203,-1,203,202,204,-1,203,204,205,-1,205,204,206,-1,205,206,207,-1,207,206,181,-1,207,181,180,-1,128,130,208,-1,128,208,209,-1,209,208,210,-1,209,210,211,-1,211,210,195,-1,211,195,194,-1,197,133,194,-1,194,133,136,-1,194,136,211,-1,211,136,132,-1,211,132,209,-1,209,132,129,-1,209,129,128,-1,174,172,179,-1,179,172,170,-1,179,170,176,-1,176,170,155,-1,176,155,193,-1,193,155,154,-1,193,154,191,-1,191,154,160,-1,191,160,189,-1,189,160,162,-1,189,162,187,-1,187,162,164,-1,187,164,185,-1,185,164,166,-1,185,166,183,-1,183,166,168,-1,183,168,180,-1,180,168,152,-1,180,152,207,-1,207,152,150,-1,207,150,205,-1,205,150,148,-1,205,148,203,-1,203,148,146,-1,203,146,201,-1,201,146,144,-1,201,144,199,-1,199,144,142,-1,199,142,197,-1,197,142,140,-1,197,140,133,-1,212,213,214,-1,214,213,215,-1,213,216,215,-1,215,216,217,-1,216,218,217,-1,217,218,219,-1,218,220,219,-1,219,220,221,-1,220,222,221,-1,221,222,223,-1,222,212,223,-1,223,212,214,-1,220,218,222,-1,222,218,216,-1,222,216,212,-1,212,216,213,-1,
        ]
    }
}
Shape{
    appearance Appearance {
        material  Material 	{
            diffuseColor 0.5019607843137255 0.5019607843137255 0.5019607843137255
            specularColor 0.25098039215686274 0.25098039215686274 0.25098039215686274
            ambientIntensity 0.502
            transparency 0.0
            shininess 0.5
        }
    }
    geometry IndexedFaceSet {
        ccw TRUE
        solid FALSE
        coord DEF co Coordinate {
            point [
                2.18 -2.759 0.0197, 2.18 -2.6273 0.0197, 2.3445 -2.7002 0.0197, 2.3445 -2.6866 0.0197, 2.3581 -2.6964 0.0197, 2.3582 -2.6901 0.0197, 2.3721 -2.6939 0.0197, 2.3721 -2.6926 0.0197, 2.3769 -3.1022 0.0197, 2.3769 -3.1603 0.0197, 2.0696 -3.1603 0.0197, 2.1793 -2.954 0.0197, 2.2271 -2.9491 0.0197, 2.1484 -2.9644 0.0197, 2.2663 -2.9524 0.0197, 2.2974 -2.9616 0.0197, 2.3719 -3.0554 0.0197, 2.0696 -3.1044 0.0197, 2.0735 -3.0629 0.0197, 2.0838 -3.0298 0.0197, 2.3215 -2.9751 0.0197, 2.3419 -2.9942 0.0197, 2.3605 -3.023 0.0197, 2.0995 -3.0032 0.0197, 2.1212 -2.9812 0.0197
            ]
        }
        coordIndex [
            0,1,2,-1,2,1,3,-1,2,3,4,-1,4,3,5,-1,4,5,6,-1,6,5,7,-1,8,9,10,-1,11,12,8,-1,11,8,13,-1,12,14,8,-1,8,14,15,-1,8,15,16,-1,10,17,8,-1,8,17,18,-1,8,18,19,-1,20,21,15,-1,15,21,22,-1,15,22,16,-1,19,23,8,-1,8,23,24,-1,8,24,13,-1,
        ]
    }
}
Shape{
    appearance Appearance {
        material  Material 	{
            diffuseColor 1.0 1.0 1.0
            specularColor 0.5019607843137255 0.5019607843137255 0.5019607843137255
            ambientIntensity 1.0
            transparency 0.0
            shininess 0.5
        }
    }
    geometry IndexedFaceSet {
        ccw TRUE
        solid FALSE
        coord DEF co Coordinate {
            point [
                -1.9292 -4.9005 1.2992, -2.5197 -4.9005 1.2992, -4.0945 -5.5698 1.2992, -2.5197 -3.9163 1.2992, -1.9292 -2.8927 1.2992, -2.5197 -2.8927 1.2992, -1.9292 -1.9084 1.2992, 3.307 -1.2391 1.2992, -4.0945 -1.2391 1.2992, -2.5197 -1.9084 1.2992, 2.5322 -3.3218 1.2992, 2.5349 -3.3421 1.2992, 1.9984 -3.5062 1.2992, 1.9905 -3.4872 1.2992, 2.0109 -3.5225 1.2992, 1.9905 -3.3218 1.2992, 1.9984 -3.3028 1.2992, 2.5118 -3.5225 1.2992, 3.307 -5.5698 1.2992, 2.5243 -3.5062 1.2992, 2.5322 -3.4872 1.2992, 2.0272 -3.535 1.2992, 2.0462 -3.5429 1.2992, -1.9292 -3.9163 1.2992, 2.5349 -3.4668 1.2992, 2.4955 -3.535 1.2992, 2.4765 -3.5429 1.2992, 2.4561 -3.5456 1.2992, 1.9878 -3.4668 1.2992, 1.9878 -3.3421 1.2992, 2.0666 -3.5456 1.2992, 2.4955 -3.274 1.2992, 2.5118 -3.2865 1.2992, 2.5243 -3.3028 1.2992, 2.0109 -3.2865 1.2992, 2.0272 -3.274 1.2992, 2.0462 -3.2661 1.2992, 2.0666 -3.2634 1.2992, 2.4561 -3.2634 1.2992, 2.4765 -3.2661 1.2992, 1.6929 -1.1604 0.8465, 1.6929 -1.0423 0.8465, 2.4999 -1.1604 0.8465, 2.4999 -1.0423 0.8465, 1.6929 -5.7667 0.8465, 1.6929 -5.6486 0.8465, 2.4999 -5.7667 0.8465, 2.4999 -5.6486 0.8465, 3.307 -1.1604 -0.8268, 3.307 -1.0423 -0.8268, 3.307 -1.1604 -0.5074, 3.307 -1.0423 -0.52, 3.307 -1.073 -0.1015, 3.307 -0.9575 -0.1263, 3.307 -1.0582 0.0261, 3.307 -0.9401 0.0238, 3.307 -1.0679 0.1542, 3.307 -0.9516 0.1744, 3.307 -1.102 0.278, 3.307 -0.9917 0.3201, 3.307 -1.1604 0.431, 3.307 -1.0423 0.4528, 3.307 -1.1604 1.1024, 3.307 -1.0423 1.1024, 3.307 -1.1631 1.1227, 3.307 -1.049 1.1533, 3.307 -1.1709 1.1417, 3.307 -1.0686 1.2008, 3.307 -1.1834 1.158, 3.307 -1.0999 1.2416, 3.307 -1.1998 1.1706, 3.307 -1.1407 1.2728, 3.307 -1.2187 1.1784, 3.307 -1.1882 1.2925, 3.307 -1.2391 1.1811, 3.307 -5.5698 1.1811, 3.307 -5.5902 1.1784, 3.307 -5.6208 1.2925, 3.307 -5.6092 1.1706, 3.307 -5.6683 1.2728, 3.307 -5.6255 1.158, 3.307 -5.709 1.2416, 3.307 -5.638 1.1417, 3.307 -5.7403 1.2008, 3.307 -5.6459 1.1227, 3.307 -5.76 1.1533, 3.307 -5.6486 1.1024, 3.307 -5.7667 1.1024, 3.307 -5.6486 0.431, 3.307 -5.7667 0.4528, 3.307 -5.707 0.278, 3.307 -5.8173 0.3201, 3.307 -5.741 0.1542, 3.307 -5.8574 0.1744, 3.307 -5.7508 0.0261, 3.307 -5.8689 0.0238, 3.307 -5.736 -0.1015, 3.307 -5.8514 -0.1263, 3.307 -5.6486 -0.5074, 3.307 -5.7667 -0.52, 3.307 -5.6486 -0.8268, 3.307 -5.7667 -0.8268, 1.6929 -1.0423 -0.2756, -4.0945 -1.0423 -0.2756, 2.4999 -1.0423 0.4528, -4.0945 -1.0423 1.1024, -4.0945 -1.2391 1.1811, -4.0945 -1.2187 1.1784, -4.0945 -1.1882 1.2925, -4.0945 -1.1998 1.1706, -4.0945 -1.1407 1.2728, -4.0945 -1.1834 1.158, -4.0945 -1.0999 1.2416, -4.0945 -1.1709 1.1417, -4.0945 -1.0686 1.2008, -4.0945 -1.1631 1.1227, -4.0945 -1.049 1.1533, -4.0945 -1.1604 1.1024, -4.0945 -1.1604 -0.2756, -4.0945 -1.1631 -0.296, -4.0945 -1.049 -0.3265, -4.0945 -1.1709 -0.315, -4.0945 -1.0686 -0.374, -4.0945 -1.1834 -0.3313, -4.0945 -1.0999 -0.4148, -4.0945 -1.1998 -0.3438, -4.0945 -1.1407 -0.4461, -4.0945 -1.2187 -0.3516, -4.0945 -1.1882 -0.4657, -4.0945 -1.2391 -0.3543, -4.0945 -1.2391 -0.4724, -4.0945 -5.5698 -0.3543, -4.0945 -5.5698 -0.4724, -4.0945 -5.5902 -0.3516, -4.0945 -5.6208 -0.4657, -4.0945 -5.6092 -0.3438, -4.0945 -5.6683 -0.4461, -4.0945 -5.6255 -0.3313, -4.0945 -5.709 -0.4148, -4.0945 -5.638 -0.315, -4.0945 -5.7403 -0.374, -4.0945 -5.6459 -0.296, -4.0945 -5.76 -0.3265, -4.0945 -5.6486 -0.2756, -4.0945 -5.7667 -0.2756, -4.0945 -5.6486 1.1024, -4.0945 -5.7667 1.1024, -4.0945 -5.6459 1.1227, -4.0945 -5.76 1.1533, -4.0945 -5.638 1.1417, -4.0945 -5.7403 1.2008, -4.0945 -5.6255 1.158, -4.0945 -5.709 1.2416, -4.0945 -5.6092 1.1706, -4.0945 -5.6683 1.2728, -4.0945 -5.5902 1.1784, -4.0945 -5.6208 1.2925, -4.0945 -5.5698 1.1811, 2.4999 -5.7667 0.4528, 1.6929 -5.7667 -0.2756, -2.5197 -3.9163 -0.4724, -2.5197 -4.9005 -0.4724, -1.9292 -4.9005 -0.4724, -1.9292 -3.9163 -0.4724, 1.6929 -1.2391 -0.4724, 1.6929 -5.5698 -0.4724, -2.5197 -2.8927 -0.4724, -1.9292 -2.8927 -0.4724, -1.9292 -1.9084 -0.4724, -2.5197 -1.9084 -0.4724, 1.6929 -1.1882 -0.4657, 1.6929 -1.1407 -0.4461, 1.6929 -1.0999 -0.4148, 1.6929 -1.0686 -0.374, 1.6929 -1.049 -0.3265, 1.6929 -5.6208 -0.4657, 1.6929 -5.6683 -0.4461, 1.6929 -5.709 -0.4148, 1.6929 -5.7403 -0.374, 1.6929 -5.76 -0.3265, -2.5197 -3.9163 1.1811, -2.5197 -4.9005 1.1811, -1.9292 -4.9005 1.1811, -1.9292 -3.9163 1.1811, -2.5197 -2.8927 1.1811, -1.9292 -2.8927 1.1811, -1.9292 -1.9084 1.1811, -2.5197 -1.9084 1.1811, 1.6929 -5.6486 -0.2756, 2.4999 -5.6486 0.431, 1.6929 -5.5698 -0.3543, 1.6929 -5.5902 -0.3516, 1.6929 -5.6092 -0.3438, 1.6929 -5.6255 -0.3313, 1.6929 -5.638 -0.315, 1.6929 -5.6459 -0.296, -1.9292 -3.9163 -0.3543, -1.9292 -2.8927 -0.3543, -2.5197 -3.9163 -0.3543, -2.5197 -2.8927 -0.3543, -1.9292 -1.9084 -0.3543, 1.6929 -1.2391 -0.3543, -2.5197 -1.9084 -0.3543, -1.9292 -4.9005 -0.3543, -2.5197 -4.9005 -0.3543, 1.6929 -1.1604 -0.2756, 1.6929 -1.1631 -0.296, 1.6929 -1.1709 -0.315, 1.6929 -1.1834 -0.3313, 1.6929 -1.1998 -0.3438, 1.6929 -1.2187 -0.3516, 2.4999 -1.1604 0.431, 3.1102 -5.7667 -1.0236, 2.6968 -5.7667 -1.0236, 2.4999 -5.7667 -0.52, 3.1611 -5.7667 -1.0169, 3.3003 -5.7667 -0.8777, 3.2086 -5.7667 -0.9972, 3.2494 -5.7667 -0.966, 3.2807 -5.7667 -0.9252, 2.4999 -5.7667 -0.8268, 2.5067 -5.7667 -0.8777, 2.5263 -5.7667 -0.9252, 2.5576 -5.7667 -0.966, 2.5984 -5.7667 -0.9972, 2.6459 -5.7667 -1.0169, 2.4999 -5.8514 -0.1263, 2.4999 -5.8689 0.0238, 2.4999 -5.8574 0.1744, 2.4999 -5.8173 0.3201, 2.4999 -5.707 0.278, 2.4999 -5.741 0.1542, 2.4999 -5.7508 0.0261, 2.4999 -5.736 -0.1015, 2.4999 -5.6486 -0.5074, 3.1102 -5.6486 -1.0236, 2.6968 -5.6486 -1.0236, 2.4999 -5.6486 -0.8268, 3.2086 -5.6486 -0.9972, 3.3003 -5.6486 -0.8777, 3.2494 -5.6486 -0.966, 3.2807 -5.6486 -0.9252, 3.1611 -5.6486 -1.0169, 2.5576 -5.6486 -0.966, 2.5984 -5.6486 -0.9972, 2.6459 -5.6486 -1.0169, 2.5263 -5.6486 -0.9252, 2.5067 -5.6486 -0.8777, 2.4999 -1.0423 -0.52, 2.4999 -1.0423 -0.8268, 2.6459 -1.0423 -1.0169, 2.5067 -1.0423 -0.8777, 2.6968 -1.0423 -1.0236, 3.1102 -1.0423 -1.0236, 3.3003 -1.0423 -0.8777, 3.2807 -1.0423 -0.9252, 3.2494 -1.0423 -0.966, 2.5984 -1.0423 -0.9972, 2.5576 -1.0423 -0.966, 2.5263 -1.0423 -0.9252, 3.2086 -1.0423 -0.9972, 3.1611 -1.0423 -1.0169, 3.1102 -1.1604 -1.0236, 2.6968 -1.1604 -1.0236, 3.1611 -1.1604 -1.0169, 3.3003 -1.1604 -0.8777, 3.2086 -1.1604 -0.9972, 3.2494 -1.1604 -0.966, 3.2807 -1.1604 -0.9252, 2.5984 -1.1604 -0.9972, 2.5067 -1.1604 -0.8777, 2.5576 -1.1604 -0.966, 2.5263 -1.1604 -0.9252, 2.4999 -1.1604 -0.5074, 2.4999 -1.1604 -0.8268, 2.6459 -1.1604 -1.0169, 2.4999 -1.073 -0.1015, 2.4999 -1.0582 0.0261, 2.4999 -1.0679 0.1542, 2.4999 -1.102 0.278, 2.4999 -0.9917 0.3201, 2.4999 -0.9516 0.1744, 2.4999 -0.9401 0.0238, 2.4999 -0.9575 -0.1263, 2.4561 -3.4668 1.2205, 2.4561 -3.3421 1.2205, 2.0666 -3.4668 1.2205, 2.0666 -3.3421 1.2205, 2.0666 -3.5062 1.2598, 2.4561 -3.5062 1.2598, 2.0666 -3.5048 1.2497, 2.4561 -3.5048 1.2497, 2.0666 -3.5009 1.2402, 2.4561 -3.5009 1.2402, 2.0666 -3.4947 1.232, 2.4561 -3.4947 1.232, 2.0666 -3.4865 1.2257, 2.4561 -3.4865 1.2257, 2.0666 -3.477 1.2218, 2.4561 -3.477 1.2218, 2.4633 -3.474 1.2218, 2.4612 -3.4756 1.2218, 2.466 -3.4839 1.2257, 2.466 -3.4695 1.2218, 2.4663 -3.4668 1.2218, 2.4649 -3.4719 1.2218, 2.4758 -3.4668 1.2257, 2.4751 -3.4719 1.2257, 2.4732 -3.4767 1.2257, 2.47 -3.4807 1.2257, 2.4633 -3.4937 1.232, 2.4612 -3.4858 1.2257, 2.4588 -3.4767 1.2218, 2.484 -3.4668 1.232, 2.483 -3.474 1.232, 2.4802 -3.4807 1.232, 2.4758 -3.4865 1.232, 2.47 -3.4909 1.232, 2.4902 -3.4668 1.2402, 2.489 -3.4756 1.2402, 2.4856 -3.4839 1.2402, 2.4802 -3.4909 1.2402, 2.4732 -3.4963 1.2402, 2.4649 -3.4997 1.2402, 2.466 -3.5035 1.2497, 2.4751 -3.4997 1.2497, 2.483 -3.4937 1.2497, 2.489 -3.4858 1.2497, 2.4928 -3.4767 1.2497, 2.4941 -3.4668 1.2497, 2.4663 -3.5048 1.2598, 2.4758 -3.5009 1.2598, 2.484 -3.4947 1.2598, 2.4902 -3.4865 1.2598, 2.4941 -3.477 1.2598, 2.4955 -3.4668 1.2598, 2.0594 -3.474 1.2218, 2.0578 -3.4719 1.2218, 2.0495 -3.4767 1.2257, 2.0639 -3.4767 1.2218, 2.0615 -3.4756 1.2218, 2.0615 -3.4858 1.2257, 2.0567 -3.4839 1.2257, 2.0527 -3.4807 1.2257, 2.0397 -3.474 1.232, 2.0476 -3.4719 1.2257, 2.0567 -3.4695 1.2218, 2.0594 -3.4937 1.232, 2.0527 -3.4909 1.232, 2.0469 -3.4865 1.232, 2.0425 -3.4807 1.232, 2.0325 -3.4668 1.2402, 2.0387 -3.4668 1.232, 2.0469 -3.4668 1.2257, 2.0564 -3.4668 1.2218, 2.0578 -3.4997 1.2402, 2.0495 -3.4963 1.2402, 2.0425 -3.4909 1.2402, 2.0371 -3.4839 1.2402, 2.0337 -3.4756 1.2402, 2.0286 -3.4668 1.2497, 2.0299 -3.4767 1.2497, 2.0337 -3.4858 1.2497, 2.0397 -3.4937 1.2497, 2.0476 -3.4997 1.2497, 2.0567 -3.5035 1.2497, 2.0272 -3.4668 1.2598, 2.0286 -3.477 1.2598, 2.0325 -3.4865 1.2598, 2.0387 -3.4947 1.2598, 2.0469 -3.5009 1.2598, 2.0564 -3.5048 1.2598, 2.0666 -3.5075 1.27, 2.4561 -3.5075 1.27, 2.0666 -3.5115 1.2795, 2.4561 -3.5115 1.2795, 2.0666 -3.5177 1.2877, 2.4561 -3.5177 1.2877, 2.0666 -3.5259 1.2939, 2.4561 -3.5259 1.2939, 2.0666 -3.5354 1.2979, 2.4561 -3.5354 1.2979, 2.4968 -3.4668 1.27, 2.4954 -3.4774 1.27, 2.5008 -3.4668 1.2795, 2.4992 -3.4784 1.2795, 2.507 -3.4668 1.2877, 2.5053 -3.48 1.2877, 2.5152 -3.4668 1.2939, 2.5132 -3.4821 1.2939, 2.5247 -3.4668 1.2979, 2.5223 -3.4846 1.2979, 2.4914 -3.4872 1.27, 2.4948 -3.4891 1.2795, 2.5002 -3.4923 1.2877, 2.5073 -3.4963 1.2939, 2.5155 -3.5011 1.2979, 2.4849 -3.4956 1.27, 2.4877 -3.4984 1.2795, 2.4921 -3.5028 1.2877, 2.4979 -3.5086 1.2939, 2.5046 -3.5153 1.2979, 2.4765 -3.5021 1.27, 2.4784 -3.5055 1.2795, 2.4816 -3.5109 1.2877, 2.4856 -3.518 1.2939, 2.4904 -3.5262 1.2979, 2.4667 -3.5061 1.27, 2.4677 -3.5099 1.2795, 2.4693 -3.516 1.2877, 2.4714 -3.5239 1.2939, 2.4739 -3.533 1.2979, 2.4955 -3.3421 1.2598, 2.4941 -3.3421 1.2497, 2.4902 -3.3421 1.2402, 2.484 -3.3421 1.232, 2.4758 -3.3421 1.2257, 2.4663 -3.3421 1.2218, 2.0272 -3.3421 1.2598, 2.0286 -3.3421 1.2497, 2.0325 -3.3421 1.2402, 2.0387 -3.3421 1.232, 2.0469 -3.3421 1.2257, 2.0564 -3.3421 1.2218, 2.0561 -3.5061 1.27, 2.055 -3.5099 1.2795, 2.0534 -3.516 1.2877, 2.0513 -3.5239 1.2939, 2.0488 -3.533 1.2979, 2.0462 -3.5021 1.27, 2.0443 -3.5055 1.2795, 2.0411 -3.5109 1.2877, 2.0371 -3.518 1.2939, 2.0323 -3.5262 1.2979, 2.0378 -3.4956 1.27, 2.035 -3.4984 1.2795, 2.0306 -3.5028 1.2877, 2.0248 -3.5086 1.2939, 2.0181 -3.5153 1.2979, 2.0313 -3.4872 1.27, 2.0279 -3.4891 1.2795, 2.0225 -3.4923 1.2877, 2.0154 -3.4963 1.2939, 2.0072 -3.5011 1.2979, 2.0273 -3.4774 1.27, 2.0235 -3.4784 1.2795, 2.0174 -3.48 1.2877, 2.0095 -3.4821 1.2939, 2.0004 -3.4846 1.2979, 2.0259 -3.4668 1.27, 2.0219 -3.4668 1.2795, 2.0157 -3.4668 1.2877, 2.0075 -3.4668 1.2939, 1.998 -3.4668 1.2979, 2.4965 -3.3421 1.2686, 2.497 -3.3421 1.27, 2.4994 -3.3421 1.2769, 2.5009 -3.3421 1.2794, 2.5041 -3.3421 1.2844, 2.5072 -3.3421 1.2875, 2.5103 -3.3421 1.2906, 2.5153 -3.3421 1.2938, 2.5178 -3.3421 1.2953, 2.5247 -3.3421 1.2977, 2.5261 -3.3421 1.2982, 2.4633 -3.3349 1.2218, 2.4649 -3.3371 1.2218, 2.4732 -3.3323 1.2257, 2.4588 -3.3323 1.2218, 2.4561 -3.332 1.2218, 2.4612 -3.3333 1.2218, 2.4561 -3.3225 1.2257, 2.4612 -3.3231 1.2257, 2.466 -3.3251 1.2257, 2.47 -3.3282 1.2257, 2.483 -3.3349 1.232, 2.4751 -3.3371 1.2257, 2.466 -3.3395 1.2218, 2.4561 -3.3143 1.232, 2.4633 -3.3153 1.232, 2.47 -3.318 1.232, 2.4758 -3.3225 1.232, 2.4802 -3.3282 1.232, 2.4561 -3.3081 1.2402, 2.4649 -3.3092 1.2402, 2.4732 -3.3126 1.2402, 2.4802 -3.318 1.2402, 2.4856 -3.3251 1.2402, 2.489 -3.3333 1.2402, 2.4928 -3.3323 1.2497, 2.489 -3.3231 1.2497, 2.483 -3.3153 1.2497, 2.4751 -3.3092 1.2497, 2.466 -3.3054 1.2497, 2.4561 -3.3041 1.2497, 2.4941 -3.332 1.2598, 2.4902 -3.3225 1.2598, 2.484 -3.3143 1.2598, 2.4758 -3.3081 1.2598, 2.4663 -3.3041 1.2598, 2.4561 -3.3028 1.2598, 2.0594 -3.3349 1.2218, 2.0615 -3.3333 1.2218, 2.0567 -3.3251 1.2257, 2.0567 -3.3395 1.2218, 2.0578 -3.3371 1.2218, 2.0476 -3.3371 1.2257, 2.0495 -3.3323 1.2257, 2.0527 -3.3282 1.2257, 2.0594 -3.3153 1.232, 2.0615 -3.3231 1.2257, 2.0639 -3.3323 1.2218, 2.0397 -3.3349 1.232, 2.0425 -3.3282 1.232, 2.0469 -3.3225 1.232, 2.0527 -3.318 1.232, 2.0666 -3.3081 1.2402, 2.0666 -3.3143 1.232, 2.0666 -3.3225 1.2257, 2.0666 -3.332 1.2218, 2.0337 -3.3333 1.2402, 2.0371 -3.3251 1.2402, 2.0425 -3.318 1.2402, 2.0495 -3.3126 1.2402, 2.0578 -3.3092 1.2402, 2.0666 -3.3041 1.2497, 2.0567 -3.3054 1.2497, 2.0476 -3.3092 1.2497, 2.0397 -3.3153 1.2497, 2.0337 -3.3231 1.2497, 2.0299 -3.3323 1.2497, 2.0666 -3.3028 1.2598, 2.0564 -3.3041 1.2598, 2.0469 -3.3081 1.2598, 2.0387 -3.3143 1.2598, 2.0325 -3.3225 1.2598, 2.0286 -3.332 1.2598, 2.0259 -3.3421 1.27, 2.0219 -3.3421 1.2795, 2.0157 -3.3421 1.2877, 2.0075 -3.3421 1.2939, 1.998 -3.3421 1.2979, 2.4951 -3.3317 1.2686, 2.4561 -3.3018 1.2686, 2.4666 -3.3032 1.2686, 2.4561 -3.3013 1.27, 2.4673 -3.3004 1.2769, 2.4979 -3.3309 1.2769, 2.4685 -3.2958 1.2844, 2.4561 -3.2973 1.2794, 2.4561 -3.2989 1.2769, 2.5024 -3.3297 1.2844, 2.4701 -3.2898 1.2906, 2.4561 -3.2911 1.2875, 2.4561 -3.2942 1.2844, 2.5085 -3.3281 1.2906, 2.4561 -3.2736 1.2977, 2.4561 -3.2805 1.2953, 2.4721 -3.2826 1.2953, 2.4561 -3.283 1.2938, 2.4561 -3.288 1.2906, 2.4763 -3.3072 1.2686, 2.4778 -3.3047 1.2769, 2.4801 -3.3006 1.2844, 2.4832 -3.2952 1.2906, 2.4869 -3.2887 1.2953, 2.4847 -3.3136 1.2686, 2.4867 -3.3116 1.2769, 2.49 -3.3082 1.2844, 2.4944 -3.3038 1.2906, 2.4997 -3.2985 1.2953, 2.4911 -3.322 1.2686, 2.4936 -3.3205 1.2769, 2.4976 -3.3182 1.2844, 2.503 -3.315 1.2906, 2.5095 -3.3113 1.2953, 2.5157 -3.3262 1.2953, 2.4561 -3.2722 1.2982, 2.4742 -3.2746 1.2982, 2.4911 -3.2815 1.2982, 2.5056 -3.2927 1.2982, 2.5167 -3.3072 1.2982, 2.5237 -3.324 1.2982, 2.0273 -3.3316 1.27, 2.0235 -3.3306 1.2795, 2.0174 -3.329 1.2877, 2.0095 -3.3269 1.2939, 2.0004 -3.3244 1.2979, 2.0313 -3.3218 1.27, 2.0279 -3.3198 1.2795, 2.0225 -3.3167 1.2877, 2.0154 -3.3126 1.2939, 2.0072 -3.3079 1.2979, 2.0378 -3.3134 1.27, 2.035 -3.3106 1.2795, 2.0306 -3.3062 1.2877, 2.0248 -3.3004 1.2939, 2.0181 -3.2937 1.2979, 2.0462 -3.3069 1.27, 2.0443 -3.3035 1.2795, 2.0411 -3.2981 1.2877, 2.0371 -3.291 1.2939, 2.0323 -3.2828 1.2979, 2.0561 -3.3028 1.27, 2.055 -3.299 1.2795, 2.0534 -3.293 1.2877, 2.0513 -3.2851 1.2939, 2.0488 -3.2759 1.2979, 2.0666 -3.3014 1.27, 2.0666 -3.2975 1.2795, 2.0666 -3.2912 1.2877, 2.0666 -3.2831 1.2939, 2.0666 -3.2736 1.2979
            ]
        }
        coordIndex [
            0,1,2,-1,3,4,5,-1,6,7,8,-1,1,3,2,-1,2,3,5,-1,2,5,8,-1,8,5,9,-1,8,9,6,-1,10,11,7,-1,12,13,6,-1,12,6,14,-1,15,16,6,-1,17,18,19,-1,19,18,20,-1,14,6,21,-1,21,6,4,-1,21,4,22,-1,22,4,3,-1,22,3,23,-1,7,11,18,-1,18,11,24,-1,18,24,20,-1,17,25,18,-1,18,25,26,-1,18,26,27,-1,13,28,6,-1,6,28,29,-1,6,29,15,-1,2,18,0,-1,0,18,27,-1,0,27,23,-1,23,27,30,-1,23,30,22,-1,31,32,7,-1,7,32,33,-1,7,33,10,-1,16,34,6,-1,6,34,35,-1,6,35,7,-1,7,35,36,-1,7,36,37,-1,37,38,7,-1,7,38,39,-1,7,39,31,-1,40,41,42,-1,42,41,43,-1,44,45,46,-1,46,45,47,-1,48,49,50,-1,50,49,51,-1,50,51,52,-1,52,51,53,-1,52,53,54,-1,54,53,55,-1,54,55,56,-1,56,55,57,-1,56,57,58,-1,58,57,59,-1,58,59,60,-1,60,59,61,-1,60,61,62,-1,62,61,63,-1,62,63,64,-1,64,63,65,-1,64,65,66,-1,66,65,67,-1,66,67,68,-1,68,67,69,-1,68,69,70,-1,70,69,71,-1,70,71,72,-1,72,71,73,-1,72,73,74,-1,74,73,7,-1,74,7,75,-1,75,7,18,-1,75,18,76,-1,76,18,77,-1,76,77,78,-1,78,77,79,-1,78,79,80,-1,80,79,81,-1,80,81,82,-1,82,81,83,-1,82,83,84,-1,84,83,85,-1,84,85,86,-1,86,85,87,-1,86,87,88,-1,88,87,89,-1,88,89,90,-1,90,89,91,-1,90,91,92,-1,92,91,93,-1,92,93,94,-1,94,93,95,-1,94,95,96,-1,96,95,97,-1,96,97,98,-1,98,97,99,-1,98,99,100,-1,100,99,101,-1,41,102,103,-1,63,61,104,-1,104,43,63,-1,63,43,41,-1,63,41,105,-1,105,41,103,-1,106,8,107,-1,107,8,108,-1,107,108,109,-1,109,108,110,-1,109,110,111,-1,111,110,112,-1,111,112,113,-1,113,112,114,-1,113,114,115,-1,115,114,116,-1,115,116,117,-1,117,116,105,-1,117,105,118,-1,118,105,103,-1,118,103,119,-1,119,103,120,-1,119,120,121,-1,121,120,122,-1,121,122,123,-1,123,122,124,-1,123,124,125,-1,125,124,126,-1,125,126,127,-1,127,126,128,-1,127,128,129,-1,129,128,130,-1,129,130,131,-1,131,130,132,-1,131,132,133,-1,133,132,134,-1,133,134,135,-1,135,134,136,-1,135,136,137,-1,137,136,138,-1,137,138,139,-1,139,138,140,-1,139,140,141,-1,141,140,142,-1,141,142,143,-1,143,142,144,-1,143,144,145,-1,145,144,146,-1,145,146,147,-1,147,146,148,-1,147,148,149,-1,149,148,150,-1,149,150,151,-1,151,150,152,-1,151,152,153,-1,153,152,154,-1,153,154,155,-1,155,154,156,-1,155,156,157,-1,157,156,2,-1,157,2,106,-1,106,2,8,-1,158,89,46,-1,46,89,87,-1,46,87,44,-1,44,87,146,-1,44,146,159,-1,159,146,144,-1,160,161,132,-1,132,161,162,-1,163,164,162,-1,162,164,165,-1,162,165,132,-1,132,130,160,-1,160,130,166,-1,160,166,163,-1,163,166,167,-1,163,167,164,-1,164,167,168,-1,164,168,130,-1,130,168,169,-1,130,169,166,-1,164,130,128,-1,164,128,170,-1,170,128,126,-1,170,126,171,-1,171,126,124,-1,171,124,172,-1,172,124,122,-1,172,122,173,-1,173,122,120,-1,173,120,174,-1,174,120,103,-1,174,103,102,-1,132,165,175,-1,132,175,134,-1,134,175,176,-1,134,176,136,-1,136,176,177,-1,136,177,138,-1,138,177,178,-1,138,178,140,-1,140,178,179,-1,140,179,142,-1,142,179,159,-1,142,159,144,-1,18,2,156,-1,18,156,77,-1,77,156,154,-1,77,154,79,-1,79,154,152,-1,79,152,81,-1,81,152,150,-1,81,150,83,-1,83,150,148,-1,83,148,85,-1,85,148,146,-1,85,146,87,-1,8,7,73,-1,8,73,108,-1,108,73,71,-1,108,71,110,-1,110,71,69,-1,110,69,112,-1,112,69,67,-1,112,67,114,-1,114,67,65,-1,114,65,116,-1,116,65,63,-1,116,63,105,-1,74,106,72,-1,72,106,107,-1,72,107,70,-1,70,107,109,-1,70,109,68,-1,68,109,111,-1,68,111,66,-1,66,111,113,-1,66,113,64,-1,64,113,115,-1,64,115,62,-1,62,115,117,-1,180,181,157,-1,157,181,182,-1,183,74,182,-1,182,74,75,-1,182,75,157,-1,157,106,180,-1,180,106,184,-1,180,184,183,-1,183,184,185,-1,183,185,74,-1,74,185,186,-1,74,186,106,-1,106,186,187,-1,106,187,184,-1,86,145,84,-1,84,145,147,-1,84,147,82,-1,82,147,149,-1,82,149,80,-1,80,149,151,-1,80,151,78,-1,78,151,153,-1,78,153,76,-1,76,153,155,-1,76,155,75,-1,75,155,157,-1,45,188,143,-1,86,88,189,-1,189,47,86,-1,86,47,45,-1,86,45,145,-1,145,45,143,-1,190,131,191,-1,191,131,133,-1,191,133,192,-1,192,133,135,-1,192,135,193,-1,193,135,137,-1,193,137,194,-1,194,137,139,-1,194,139,195,-1,195,139,141,-1,195,141,188,-1,188,141,143,-1,196,197,198,-1,198,197,199,-1,198,199,131,-1,200,201,129,-1,131,199,129,-1,129,199,202,-1,129,202,200,-1,200,197,201,-1,201,197,196,-1,201,196,190,-1,190,196,203,-1,190,203,131,-1,131,203,204,-1,131,204,198,-1,205,118,206,-1,206,118,119,-1,206,119,207,-1,207,119,121,-1,207,121,208,-1,208,121,123,-1,208,123,209,-1,209,123,125,-1,209,125,210,-1,210,125,127,-1,210,127,201,-1,201,127,129,-1,211,60,42,-1,42,60,62,-1,42,62,40,-1,40,62,117,-1,40,117,205,-1,205,117,118,-1,45,44,188,-1,188,44,159,-1,188,159,195,-1,195,159,179,-1,195,179,194,-1,194,179,178,-1,194,178,193,-1,193,178,177,-1,193,177,192,-1,192,177,176,-1,192,176,191,-1,191,176,175,-1,191,175,190,-1,190,175,165,-1,190,165,201,-1,201,165,164,-1,201,164,210,-1,210,164,170,-1,210,170,209,-1,209,170,171,-1,209,171,208,-1,208,171,172,-1,208,172,207,-1,207,172,173,-1,207,173,206,-1,206,173,174,-1,206,174,205,-1,205,174,102,-1,205,102,40,-1,40,102,41,-1,166,199,167,-1,167,199,197,-1,169,202,166,-1,166,202,199,-1,168,200,169,-1,169,200,202,-1,167,197,168,-1,168,197,200,-1,161,204,162,-1,162,204,203,-1,160,198,161,-1,161,198,204,-1,163,196,160,-1,160,196,198,-1,162,203,163,-1,163,203,196,-1,6,186,4,-1,4,186,185,-1,9,187,6,-1,6,187,186,-1,5,184,9,-1,9,184,187,-1,4,185,5,-1,5,185,184,-1,23,183,0,-1,0,183,182,-1,3,180,23,-1,23,180,183,-1,1,181,3,-1,3,181,180,-1,0,182,1,-1,1,182,181,-1,212,99,213,-1,213,99,214,-1,215,216,212,-1,212,216,101,-1,212,101,99,-1,215,217,216,-1,216,217,218,-1,216,218,219,-1,214,220,213,-1,213,220,221,-1,213,221,222,-1,222,223,213,-1,213,223,224,-1,213,224,225,-1,226,214,97,-1,97,214,99,-1,226,97,95,-1,226,95,227,-1,227,95,93,-1,227,93,228,-1,228,93,91,-1,228,91,229,-1,158,229,89,-1,89,229,91,-1,230,189,90,-1,90,189,88,-1,230,90,231,-1,231,90,92,-1,231,92,232,-1,232,92,94,-1,232,94,233,-1,233,94,96,-1,234,233,98,-1,98,233,96,-1,98,235,234,-1,234,235,236,-1,234,236,237,-1,238,239,240,-1,240,239,241,-1,98,100,235,-1,235,100,239,-1,235,239,242,-1,242,239,238,-1,243,236,244,-1,244,236,245,-1,243,246,236,-1,236,246,247,-1,236,247,237,-1,236,235,213,-1,213,235,212,-1,237,220,234,-1,234,220,214,-1,234,214,233,-1,233,214,226,-1,233,226,232,-1,232,226,227,-1,232,227,231,-1,231,227,228,-1,231,228,230,-1,230,228,229,-1,230,229,189,-1,189,229,158,-1,189,158,47,-1,47,158,46,-1,248,51,249,-1,249,51,49,-1,250,251,252,-1,252,251,249,-1,252,249,253,-1,253,249,49,-1,253,49,254,-1,254,255,256,-1,250,257,251,-1,251,257,258,-1,251,258,259,-1,256,260,254,-1,254,260,261,-1,254,261,253,-1,262,263,253,-1,253,263,252,-1,264,265,262,-1,262,265,48,-1,262,48,263,-1,264,266,265,-1,265,266,267,-1,265,267,268,-1,269,270,271,-1,271,270,272,-1,50,273,48,-1,48,273,274,-1,48,274,263,-1,263,274,270,-1,263,270,275,-1,275,270,269,-1,276,273,52,-1,52,273,50,-1,276,52,277,-1,277,52,54,-1,277,54,278,-1,278,54,56,-1,278,56,279,-1,279,56,58,-1,211,279,60,-1,60,279,58,-1,280,104,59,-1,59,104,61,-1,280,59,57,-1,280,57,281,-1,281,57,55,-1,281,55,282,-1,282,55,53,-1,282,53,283,-1,248,283,51,-1,51,283,53,-1,42,43,211,-1,211,43,104,-1,211,104,279,-1,279,104,280,-1,279,280,278,-1,278,280,281,-1,278,281,277,-1,277,281,282,-1,277,282,276,-1,276,282,283,-1,276,283,273,-1,273,283,248,-1,273,248,274,-1,274,248,249,-1,49,48,265,-1,49,265,254,-1,254,265,268,-1,254,268,255,-1,255,268,267,-1,255,267,256,-1,256,267,266,-1,256,266,260,-1,260,266,264,-1,260,264,261,-1,261,264,262,-1,261,262,253,-1,252,263,275,-1,252,275,250,-1,250,275,269,-1,250,269,257,-1,257,269,271,-1,257,271,258,-1,258,271,272,-1,258,272,259,-1,259,272,270,-1,259,270,251,-1,251,270,274,-1,251,274,249,-1,236,213,225,-1,236,225,245,-1,245,225,224,-1,245,224,244,-1,244,224,223,-1,244,223,243,-1,243,223,222,-1,243,222,246,-1,246,222,221,-1,246,221,247,-1,247,221,220,-1,247,220,237,-1,100,101,216,-1,100,216,239,-1,239,216,219,-1,239,219,241,-1,241,219,218,-1,241,218,240,-1,240,218,217,-1,240,217,238,-1,238,217,215,-1,238,215,242,-1,242,215,212,-1,242,212,235,-1,284,285,286,-1,286,285,287,-1,288,289,290,-1,290,289,291,-1,290,291,292,-1,292,291,293,-1,292,293,294,-1,294,293,295,-1,294,295,296,-1,296,295,297,-1,296,297,298,-1,298,297,299,-1,298,299,286,-1,286,299,284,-1,300,301,302,-1,301,300,284,-1,284,303,304,-1,305,303,284,-1,306,304,307,-1,307,304,303,-1,307,303,308,-1,308,303,305,-1,308,305,309,-1,310,302,311,-1,311,302,301,-1,311,301,312,-1,312,301,284,-1,313,306,314,-1,314,306,307,-1,314,307,315,-1,315,307,308,-1,315,308,316,-1,316,308,309,-1,316,309,317,-1,293,310,295,-1,295,310,311,-1,295,311,297,-1,297,311,312,-1,297,312,299,-1,299,312,284,-1,318,313,319,-1,319,313,314,-1,319,314,320,-1,320,314,315,-1,320,315,321,-1,321,315,316,-1,321,316,322,-1,322,316,317,-1,322,317,323,-1,293,323,310,-1,310,323,317,-1,310,317,302,-1,302,317,309,-1,302,309,300,-1,300,309,305,-1,300,305,284,-1,293,291,323,-1,323,291,324,-1,323,324,322,-1,322,324,325,-1,322,325,321,-1,321,325,326,-1,321,326,320,-1,320,326,327,-1,320,327,319,-1,319,327,328,-1,319,328,318,-1,318,328,329,-1,291,289,324,-1,324,289,330,-1,324,330,325,-1,325,330,331,-1,325,331,326,-1,326,331,332,-1,326,332,327,-1,327,332,333,-1,327,333,328,-1,328,333,334,-1,328,334,329,-1,329,334,335,-1,336,337,338,-1,337,336,286,-1,286,339,298,-1,340,339,286,-1,296,298,341,-1,341,298,339,-1,341,339,342,-1,342,339,340,-1,342,340,343,-1,344,338,345,-1,345,338,337,-1,345,337,346,-1,346,337,286,-1,294,296,347,-1,347,296,341,-1,347,341,348,-1,348,341,342,-1,348,342,349,-1,349,342,343,-1,349,343,350,-1,351,344,352,-1,352,344,345,-1,352,345,353,-1,353,345,346,-1,353,346,354,-1,354,346,286,-1,292,294,355,-1,355,294,347,-1,355,347,356,-1,356,347,348,-1,356,348,357,-1,357,348,349,-1,357,349,358,-1,358,349,350,-1,358,350,359,-1,351,359,344,-1,344,359,350,-1,344,350,338,-1,338,350,343,-1,338,343,336,-1,336,343,340,-1,336,340,286,-1,351,360,359,-1,359,360,361,-1,359,361,358,-1,358,361,362,-1,358,362,357,-1,357,362,363,-1,357,363,356,-1,356,363,364,-1,356,364,355,-1,355,364,365,-1,355,365,292,-1,292,365,290,-1,360,366,361,-1,361,366,367,-1,361,367,362,-1,362,367,368,-1,362,368,363,-1,363,368,369,-1,363,369,364,-1,364,369,370,-1,364,370,365,-1,365,370,371,-1,365,371,290,-1,290,371,288,-1,289,288,372,-1,289,372,373,-1,373,372,374,-1,373,374,375,-1,375,374,376,-1,375,376,377,-1,377,376,378,-1,377,378,379,-1,379,378,380,-1,379,380,381,-1,381,380,30,-1,381,30,27,-1,335,334,382,-1,382,334,383,-1,382,383,384,-1,384,383,385,-1,384,385,386,-1,386,385,387,-1,386,387,388,-1,388,387,389,-1,388,389,390,-1,390,389,391,-1,390,391,24,-1,24,391,20,-1,334,333,383,-1,383,333,392,-1,383,392,385,-1,385,392,393,-1,385,393,387,-1,387,393,394,-1,387,394,389,-1,389,394,395,-1,389,395,391,-1,391,395,396,-1,391,396,20,-1,20,396,19,-1,333,332,392,-1,392,332,397,-1,392,397,393,-1,393,397,398,-1,393,398,394,-1,394,398,399,-1,394,399,395,-1,395,399,400,-1,395,400,396,-1,396,400,401,-1,396,401,19,-1,19,401,17,-1,332,331,397,-1,397,331,402,-1,397,402,398,-1,398,402,403,-1,398,403,399,-1,399,403,404,-1,399,404,400,-1,400,404,405,-1,400,405,401,-1,401,405,406,-1,401,406,17,-1,17,406,25,-1,331,330,402,-1,402,330,407,-1,402,407,403,-1,403,407,408,-1,403,408,404,-1,404,408,409,-1,404,409,405,-1,405,409,410,-1,405,410,406,-1,406,410,411,-1,406,411,25,-1,25,411,26,-1,330,289,407,-1,407,289,373,-1,407,373,408,-1,408,373,375,-1,408,375,409,-1,409,375,377,-1,409,377,410,-1,410,377,379,-1,410,379,411,-1,411,379,381,-1,411,381,26,-1,26,381,27,-1,335,412,329,-1,329,412,413,-1,329,413,318,-1,318,413,414,-1,318,414,313,-1,313,414,415,-1,313,415,306,-1,306,415,416,-1,306,416,304,-1,304,416,417,-1,304,417,284,-1,284,417,285,-1,418,366,419,-1,419,366,360,-1,419,360,420,-1,420,360,351,-1,420,351,421,-1,421,351,352,-1,421,352,422,-1,422,352,353,-1,422,353,423,-1,423,353,354,-1,423,354,287,-1,287,354,286,-1,288,371,372,-1,372,371,424,-1,372,424,374,-1,374,424,425,-1,374,425,376,-1,376,425,426,-1,376,426,378,-1,378,426,427,-1,378,427,380,-1,380,427,428,-1,380,428,30,-1,30,428,22,-1,371,370,424,-1,424,370,429,-1,424,429,425,-1,425,429,430,-1,425,430,426,-1,426,430,431,-1,426,431,427,-1,427,431,432,-1,427,432,428,-1,428,432,433,-1,428,433,22,-1,22,433,21,-1,370,369,429,-1,429,369,434,-1,429,434,430,-1,430,434,435,-1,430,435,431,-1,431,435,436,-1,431,436,432,-1,432,436,437,-1,432,437,433,-1,433,437,438,-1,433,438,21,-1,21,438,14,-1,369,368,434,-1,434,368,439,-1,434,439,435,-1,435,439,440,-1,435,440,436,-1,436,440,441,-1,436,441,437,-1,437,441,442,-1,437,442,438,-1,438,442,443,-1,438,443,14,-1,14,443,12,-1,368,367,439,-1,439,367,444,-1,439,444,440,-1,440,444,445,-1,440,445,441,-1,441,445,446,-1,441,446,442,-1,442,446,447,-1,442,447,443,-1,443,447,448,-1,443,448,12,-1,12,448,13,-1,367,366,444,-1,444,366,449,-1,444,449,445,-1,445,449,450,-1,445,450,446,-1,446,450,451,-1,446,451,447,-1,447,451,452,-1,447,452,448,-1,448,452,453,-1,448,453,13,-1,13,453,28,-1,412,335,454,-1,454,335,382,-1,454,382,455,-1,455,382,456,-1,456,382,384,-1,456,384,457,-1,457,384,458,-1,458,384,386,-1,458,386,459,-1,459,386,460,-1,460,386,388,-1,460,388,461,-1,461,388,462,-1,462,388,390,-1,462,390,463,-1,463,390,464,-1,464,390,24,-1,464,24,11,-1,465,466,467,-1,466,465,285,-1,285,468,469,-1,470,468,285,-1,471,469,472,-1,472,469,468,-1,472,468,473,-1,473,468,470,-1,473,470,474,-1,475,467,476,-1,476,467,466,-1,476,466,477,-1,477,466,285,-1,478,471,479,-1,479,471,472,-1,479,472,480,-1,480,472,473,-1,480,473,481,-1,481,473,474,-1,481,474,482,-1,414,475,415,-1,415,475,476,-1,415,476,416,-1,416,476,477,-1,416,477,417,-1,417,477,285,-1,483,478,484,-1,484,478,479,-1,484,479,485,-1,485,479,480,-1,485,480,486,-1,486,480,481,-1,486,481,487,-1,487,481,482,-1,487,482,488,-1,414,488,475,-1,475,488,482,-1,475,482,467,-1,467,482,474,-1,467,474,465,-1,465,474,470,-1,465,470,285,-1,414,413,488,-1,488,413,489,-1,488,489,487,-1,487,489,490,-1,487,490,486,-1,486,490,491,-1,486,491,485,-1,485,491,492,-1,485,492,484,-1,484,492,493,-1,484,493,483,-1,483,493,494,-1,413,412,489,-1,489,412,495,-1,489,495,490,-1,490,495,496,-1,490,496,491,-1,491,496,497,-1,491,497,492,-1,492,497,498,-1,492,498,493,-1,493,498,499,-1,493,499,494,-1,494,499,500,-1,501,502,503,-1,502,501,287,-1,287,504,423,-1,505,504,287,-1,422,423,506,-1,506,423,504,-1,506,504,507,-1,507,504,505,-1,507,505,508,-1,509,503,510,-1,510,503,502,-1,510,502,511,-1,511,502,287,-1,421,422,512,-1,512,422,506,-1,512,506,513,-1,513,506,507,-1,513,507,514,-1,514,507,508,-1,514,508,515,-1,516,509,517,-1,517,509,510,-1,517,510,518,-1,518,510,511,-1,518,511,519,-1,519,511,287,-1,420,421,520,-1,520,421,512,-1,520,512,521,-1,521,512,513,-1,521,513,522,-1,522,513,514,-1,522,514,523,-1,523,514,515,-1,523,515,524,-1,516,524,509,-1,509,524,515,-1,509,515,503,-1,503,515,508,-1,503,508,501,-1,501,508,505,-1,501,505,287,-1,516,525,524,-1,524,525,526,-1,524,526,523,-1,523,526,527,-1,523,527,522,-1,522,527,528,-1,522,528,521,-1,521,528,529,-1,521,529,520,-1,520,529,530,-1,520,530,420,-1,420,530,419,-1,525,531,526,-1,526,531,532,-1,526,532,527,-1,527,532,533,-1,527,533,528,-1,528,533,534,-1,528,534,529,-1,529,534,535,-1,529,535,530,-1,530,535,536,-1,530,536,419,-1,419,536,418,-1,366,418,537,-1,366,537,449,-1,449,537,538,-1,449,538,450,-1,450,538,539,-1,450,539,451,-1,451,539,540,-1,451,540,452,-1,452,540,541,-1,452,541,453,-1,453,541,29,-1,453,29,28,-1,542,495,412,-1,500,499,543,-1,543,499,544,-1,543,544,545,-1,545,544,546,-1,412,454,542,-1,542,454,455,-1,542,455,547,-1,548,549,546,-1,546,549,550,-1,546,550,545,-1,455,456,547,-1,547,456,457,-1,547,457,551,-1,552,553,548,-1,548,553,554,-1,548,554,549,-1,457,458,551,-1,551,458,459,-1,551,459,555,-1,556,557,558,-1,558,557,559,-1,558,559,552,-1,552,559,560,-1,552,560,553,-1,499,498,544,-1,544,498,561,-1,544,561,546,-1,546,561,562,-1,546,562,548,-1,548,562,563,-1,548,563,552,-1,552,563,564,-1,552,564,558,-1,558,564,565,-1,498,497,561,-1,561,497,566,-1,561,566,562,-1,562,566,567,-1,562,567,563,-1,563,567,568,-1,563,568,564,-1,564,568,569,-1,564,569,565,-1,565,569,570,-1,497,496,566,-1,566,496,571,-1,566,571,567,-1,567,571,572,-1,567,572,568,-1,568,572,573,-1,568,573,569,-1,569,573,574,-1,569,574,570,-1,570,574,575,-1,496,495,571,-1,571,495,542,-1,571,542,572,-1,572,542,547,-1,572,547,573,-1,573,547,551,-1,573,551,574,-1,574,551,555,-1,574,555,575,-1,575,555,576,-1,38,577,578,-1,578,577,556,-1,459,460,555,-1,555,460,461,-1,555,461,576,-1,576,461,462,-1,576,462,463,-1,556,558,578,-1,578,558,565,-1,578,565,579,-1,579,565,570,-1,579,570,580,-1,580,570,575,-1,580,575,581,-1,581,575,576,-1,581,576,582,-1,582,576,463,-1,582,463,464,-1,38,578,39,-1,39,578,579,-1,39,579,31,-1,31,579,580,-1,31,580,32,-1,32,580,581,-1,32,581,33,-1,33,581,582,-1,33,582,10,-1,10,582,464,-1,10,464,11,-1,500,531,494,-1,494,531,525,-1,494,525,483,-1,483,525,516,-1,483,516,478,-1,478,516,517,-1,478,517,471,-1,471,517,518,-1,471,518,469,-1,469,518,519,-1,469,519,285,-1,285,519,287,-1,418,536,537,-1,537,536,583,-1,537,583,538,-1,538,583,584,-1,538,584,539,-1,539,584,585,-1,539,585,540,-1,540,585,586,-1,540,586,541,-1,541,586,587,-1,541,587,29,-1,29,587,15,-1,536,535,583,-1,583,535,588,-1,583,588,584,-1,584,588,589,-1,584,589,585,-1,585,589,590,-1,585,590,586,-1,586,590,591,-1,586,591,587,-1,587,591,592,-1,587,592,15,-1,15,592,16,-1,535,534,588,-1,588,534,593,-1,588,593,589,-1,589,593,594,-1,589,594,590,-1,590,594,595,-1,590,595,591,-1,591,595,596,-1,591,596,592,-1,592,596,597,-1,592,597,16,-1,16,597,34,-1,534,533,593,-1,593,533,598,-1,593,598,594,-1,594,598,599,-1,594,599,595,-1,595,599,600,-1,595,600,596,-1,596,600,601,-1,596,601,597,-1,597,601,602,-1,597,602,34,-1,34,602,35,-1,533,532,598,-1,598,532,603,-1,598,603,599,-1,599,603,604,-1,599,604,600,-1,600,604,605,-1,600,605,601,-1,601,605,606,-1,601,606,602,-1,602,606,607,-1,602,607,35,-1,35,607,36,-1,532,531,603,-1,603,531,608,-1,603,608,604,-1,604,608,609,-1,604,609,605,-1,605,609,610,-1,605,610,606,-1,606,610,611,-1,606,611,607,-1,607,611,612,-1,607,612,36,-1,36,612,37,-1,500,543,531,-1,531,543,608,-1,543,545,608,-1,608,545,550,-1,608,550,609,-1,550,549,609,-1,609,549,554,-1,609,554,610,-1,554,553,610,-1,610,553,560,-1,610,560,611,-1,560,559,611,-1,611,559,557,-1,611,557,612,-1,612,557,556,-1,612,556,37,-1,37,556,577,-1,37,577,38,-1,
        ]
    }
}
Shape{
    appearance Appearance {
        material  Material 	{
            diffuseColor 1.0 1.0 0.0
            specularColor 0.5019607843137255 0.5019607843137255 0.0
            ambientIntensity 0.886
            transparency 0.0
            shininess 0.5
        }
    }
    geometry IndexedFaceSet {
        ccw TRUE
        solid FALSE
        coord DEF co Coordinate {
            point [
                4.0944 -3.1486 0.1339, 4.0944 -2.873 0.1339, 3.6749 -3.1486 0.1339, 3.6749 -2.873 0.1339, 4.0944 -3.1486 0.0158, 4.0944 -2.873 0.0158, 3.6259 -3.1486 0.0158, 3.6259 -2.873 0.0158, 3.307 -2.8139 0.3346, 3.4347 -2.8139 0.207, 3.307 -3.2076 0.3346, 3.4347 -2.873 0.207, 3.4347 -3.2076 0.207, 3.4347 -3.1486 0.207, 2.9133 -3.2076 0.3346, 2.9133 -2.8139 0.3346, 2.9133 -3.2076 0.4528, 2.9133 -2.8139 0.4528, 3.356 -3.2076 0.4528, 3.356 -2.8139 0.4528, 3.4347 -3.2076 0.374, 3.4347 -3.1486 0.374, 3.4347 -2.8139 0.374, 3.4347 -2.873 0.374, 4.0944 -4.9202 0.1339, 4.0944 -4.6446 0.1339, 3.6749 -4.9202 0.1339, 3.6749 -4.6446 0.1339, 4.0944 -4.6446 0.0158, 4.0944 -4.9202 0.0158, 3.6259 -4.6446 0.0158, 3.6259 -4.9202 0.0158, 3.307 -4.5856 0.3346, 3.4347 -4.5856 0.207, 3.307 -4.9793 0.3346, 3.4347 -4.6446 0.207, 3.4347 -4.9793 0.207, 3.4347 -4.9202 0.207, 2.9133 -4.5856 0.3346, 2.9133 -4.9793 0.3346, 2.9133 -4.5856 0.4528, 2.9133 -4.9793 0.4528, 3.356 -4.5856 0.4528, 3.356 -4.9793 0.4528, 3.4347 -4.9793 0.374, 3.4347 -4.9202 0.374, 3.4347 -4.5856 0.374, 3.4347 -4.6446 0.374, -0.0591 -4.9202 0.8231, -0.9657 -4.9202 0.2997, -0.0591 -4.6446 0.8231, -0.9657 -4.6446 0.2997, -0.0788 -4.9202 0.8572, -0.0788 -4.6446 0.8572, -0.9762 -4.9202 0.3391, -0.9762 -4.6446 0.3391, -2.551 -4.9202 0.3391, -2.551 -4.6446 0.3391, -3.0709 -4.9202 0.6393, -3.0709 -4.6446 0.6393, -3.7008 -4.9202 0.2756, -3.7008 -4.6446 0.2756, -3.6812 -4.9202 0.2415, -3.6812 -4.6446 0.2415, -3.0709 -4.9202 0.5938, -3.0709 -4.6446 0.5938, -2.5616 -4.9202 0.2997, -2.5616 -4.6446 0.2997, -0.0591 -3.936 0.8231, -0.9657 -3.936 0.2997, -0.0591 -3.6604 0.8231, -0.9657 -3.6604 0.2997, -0.0788 -3.936 0.8572, -0.0788 -3.6604 0.8572, -0.9762 -3.936 0.3391, -0.9762 -3.6604 0.3391, -2.551 -3.936 0.3391, -2.551 -3.6604 0.3391, -3.0709 -3.936 0.6393, -3.0709 -3.6604 0.6393, -3.7008 -3.936 0.2756, -3.7008 -3.6604 0.2756, -3.6812 -3.936 0.2415, -3.6812 -3.6604 0.2415, -3.0709 -3.936 0.5938, -3.0709 -3.6604 0.5938, -2.5616 -3.936 0.2997, -2.5616 -3.6604 0.2997, -0.9657 -2.873 0.2997, -0.0591 -2.873 0.8231, -0.9657 -3.1486 0.2997, -0.0591 -3.1486 0.8231, -0.0788 -2.873 0.8572, -0.0788 -3.1486 0.8572, -0.9762 -2.873 0.3391, -0.9762 -3.1486 0.3391, -2.551 -2.873 0.3391, -2.551 -3.1486 0.3391, -3.0709 -2.873 0.6393, -3.0709 -3.1486 0.6393, -3.7008 -2.873 0.2756, -3.7008 -3.1486 0.2756, -3.6812 -2.873 0.2415, -3.6812 -3.1486 0.2415, -3.0709 -2.873 0.5938, -3.0709 -3.1486 0.5938, -2.5616 -2.873 0.2997, -2.5616 -3.1486 0.2997, -0.9657 -1.8887 0.2997, -0.0591 -1.8887 0.8231, -0.9657 -2.1643 0.2997, -0.0591 -2.1643 0.8231, -0.0788 -1.8887 0.8572, -0.0788 -2.1643 0.8572, -0.9762 -1.8887 0.3391, -0.9762 -2.1643 0.3391, -2.551 -1.8887 0.3391, -2.551 -2.1643 0.3391, -3.0709 -1.8887 0.6393, -3.0709 -2.1643 0.6393, -3.7008 -1.8887 0.2756, -3.7008 -2.1643 0.2756, -3.6812 -1.8887 0.2415, -3.6812 -2.1643 0.2415, -3.0709 -1.8887 0.5938, -3.0709 -2.1643 0.5938, -2.5616 -1.8887 0.2997, -2.5616 -2.1643 0.2997
            ]
        }
        coordIndex [
            0,1,2,-1,2,1,3,-1,0,4,1,-1,1,4,5,-1,4,6,5,-1,5,6,7,-1,8,9,10,-1,10,9,11,-1,12,10,13,-1,13,10,11,-1,13,11,6,-1,6,11,7,-1,10,14,8,-1,8,14,15,-1,14,16,15,-1,15,16,17,-1,16,18,17,-1,17,18,19,-1,18,20,19,-1,19,20,21,-1,22,19,23,-1,23,19,21,-1,23,21,3,-1,3,21,2,-1,12,20,10,-1,10,20,18,-1,10,18,14,-1,14,18,16,-1,15,17,8,-1,8,17,19,-1,8,19,9,-1,9,19,22,-1,1,5,3,-1,3,5,7,-1,3,7,23,-1,23,7,11,-1,22,23,9,-1,9,23,11,-1,21,13,2,-1,2,13,6,-1,2,6,0,-1,0,6,4,-1,21,20,13,-1,13,20,12,-1,24,25,26,-1,26,25,27,-1,28,25,29,-1,29,25,24,-1,30,28,31,-1,31,28,29,-1,32,33,34,-1,34,33,35,-1,36,34,37,-1,37,34,35,-1,37,35,31,-1,31,35,30,-1,38,32,39,-1,39,32,34,-1,40,38,41,-1,41,38,39,-1,42,40,43,-1,43,40,41,-1,43,44,42,-1,42,44,45,-1,46,42,47,-1,47,42,45,-1,47,45,27,-1,27,45,26,-1,38,40,32,-1,32,40,42,-1,32,42,33,-1,33,42,46,-1,36,44,34,-1,34,44,43,-1,34,43,39,-1,39,43,41,-1,45,37,26,-1,26,37,31,-1,26,31,24,-1,24,31,29,-1,45,44,37,-1,37,44,36,-1,25,28,27,-1,27,28,30,-1,27,30,47,-1,47,30,35,-1,46,47,33,-1,33,47,35,-1,48,49,50,-1,50,49,51,-1,52,48,53,-1,53,48,50,-1,54,52,55,-1,55,52,53,-1,56,54,57,-1,57,54,55,-1,58,56,59,-1,59,56,57,-1,60,58,61,-1,61,58,59,-1,62,60,63,-1,63,60,61,-1,64,62,65,-1,65,62,63,-1,66,64,67,-1,67,64,65,-1,49,66,51,-1,51,66,67,-1,60,62,58,-1,58,62,64,-1,58,64,56,-1,56,64,66,-1,56,66,54,-1,54,66,49,-1,54,49,52,-1,52,49,48,-1,53,50,55,-1,55,50,51,-1,55,51,57,-1,57,51,67,-1,57,67,59,-1,59,67,65,-1,59,65,61,-1,61,65,63,-1,68,69,70,-1,70,69,71,-1,72,68,73,-1,73,68,70,-1,74,72,75,-1,75,72,73,-1,76,74,77,-1,77,74,75,-1,78,76,79,-1,79,76,77,-1,80,78,81,-1,81,78,79,-1,82,80,83,-1,83,80,81,-1,84,82,85,-1,85,82,83,-1,86,84,87,-1,87,84,85,-1,69,86,71,-1,71,86,87,-1,80,82,78,-1,78,82,84,-1,78,84,76,-1,76,84,86,-1,76,86,74,-1,74,86,69,-1,74,69,72,-1,72,69,68,-1,73,70,75,-1,75,70,71,-1,75,71,77,-1,77,71,87,-1,77,87,79,-1,79,87,85,-1,79,85,81,-1,81,85,83,-1,88,89,90,-1,90,89,91,-1,89,92,91,-1,91,92,93,-1,92,94,93,-1,93,94,95,-1,94,96,95,-1,95,96,97,-1,96,98,97,-1,97,98,99,-1,98,100,99,-1,99,100,101,-1,100,102,101,-1,101,102,103,-1,102,104,103,-1,103,104,105,-1,104,106,105,-1,105,106,107,-1,106,88,107,-1,107,88,90,-1,92,89,94,-1,94,89,88,-1,94,88,96,-1,96,88,106,-1,96,106,98,-1,98,106,104,-1,98,104,100,-1,100,104,102,-1,101,103,99,-1,99,103,105,-1,99,105,97,-1,97,105,107,-1,97,107,95,-1,95,107,90,-1,95,90,93,-1,93,90,91,-1,108,109,110,-1,110,109,111,-1,109,112,111,-1,111,112,113,-1,112,114,113,-1,113,114,115,-1,114,116,115,-1,115,116,117,-1,116,118,117,-1,117,118,119,-1,118,120,119,-1,119,120,121,-1,120,122,121,-1,121,122,123,-1,122,124,123,-1,123,124,125,-1,124,126,125,-1,125,126,127,-1,126,108,127,-1,127,108,110,-1,112,109,114,-1,114,109,108,-1,114,108,116,-1,116,108,126,-1,116,126,118,-1,118,126,124,-1,118,124,120,-1,120,124,122,-1,121,123,119,-1,119,123,125,-1,119,125,117,-1,117,125,127,-1,117,127,115,-1,115,127,110,-1,115,110,113,-1,113,110,111,-1,
        ]
    }
}